<?xml version="1.0" encoding="utf-8"?>
<!-- Generator: Adobe Illustrator 16.0.0, SVG Export Plug-In . SVG Version: 6.00 Build 0)  -->
<!DOCTYPE svg PUBLIC "-//W3C//DTD SVG 1.1//EN" "http://www.w3.org/Graphics/SVG/1.1/DTD/svg11.dtd">
<svg version="1.1" id="Layer_1" xmlns="http://www.w3.org/2000/svg" xmlns:xlink="http://www.w3.org/1999/xlink" x="0px" y="0px"
	 width="288px" height="288px" viewBox="0 0 288 288" enable-background="new 0 0 288 288" xml:space="preserve">
<line id="two_4_" fill="none" stroke="#000000" stroke-width="20.2083" stroke-linecap="round" stroke-miterlimit="10" x1="36.758" y1="139.765" x2="253.081" y2="139.765"/>
<path id="four_8_" fill="none" stroke="#000000" stroke-width="20.2083" stroke-linecap="round" stroke-miterlimit="10" d="
	M91.982,96.339c-5.669,10.99-18.294,17.944-30.065,11.985c-29.505-14.931-13.885-52.769,15.86-60.698
	c8.872-2.365,22.381-3.394,31.002-0.829c37.28,11.11,35.923,44.784,33.917,75.514l-1.855,17.955l-0.035-0.5
	c1.017,41.582-41.586,39.398-44.633,39.455c-14.667-0.267-31.064-1.533-44.614,5.122c-10.987,5.389-17.146,16.32-14.095,28.506
	c3.695,14.744,17.679,25.258,32.109,28.099c11.254,2.22,23.753,0.37,33.893-4.779c18.581-9.441,32.951-24.931,50.388-36.051
	c20.807-13.276,45.084-23.08,70.223-20.071c24.705,2.961,35.371,21.765,25.203,39.358c-12.793,22.354-51.055,25.252-74.906,12.585"
	/>
<path id="four_4_" fill="none" stroke="#000000" stroke-width="20.2083" stroke-linecap="round" stroke-miterlimit="10" d="
	M196.462,96.339c5.67,10.99,18.295,17.944,30.066,11.985c29.504-14.931,13.877-52.769-15.865-60.698
	c-8.867-2.365-22.383-3.394-30.996-0.829c-37.277,11.11-35.927,44.784-33.918,75.514l1.85,17.955"/>
</svg>
