<?xml-stylesheet type="text/css" href="style.css"?>
<!-- Generator: Adobe Illustrator 16.0.0, SVG Export Plug-In . SVG Version: 6.00 Build 0)  -->
<!DOCTYPE svg PUBLIC "-//W3C//DTD SVG 1.1//EN" "http://www.w3.org/Graphics/SVG/1.1/DTD/svg11.dtd">
<svg version="1.1" id="Layer_1" xmlns="http://www.w3.org/2000/svg" xmlns:xlink="http://www.w3.org/1999/xlink" x="0px" y="0px"
	 width="155.068px" height="147.145px" viewBox="0 0 155.068 147.145" enable-background="new 0 0 155.068 147.145"
	 xml:space="preserve">
<g>
	<g>
		<path fill="#191D20" d="M70.112,67.418h-8.895l-0.46,0.921l9.816,7.211c1.839-1.072,3.912-2.147,6.059-3.222"/>
		<path fill="#191D20" d="M78.088,80.92l8.667,6.288h8.896l0.384-0.844L83.151,76.93C81.462,78.234,79.7,79.538,78.088,80.92"/>
		<path fill="#191D20" d="M68.81,87.208h-8.053l-0.69-1.074c5.445-5.291,29.833-27.842,82.824-30.22
			C142.891,55.914,98.49,57.447,68.81,87.208"/>
	</g>
	<path class="animatehex" fill="none" stroke="#000000" stroke-width="5.0121" stroke-miterlimit="10" d="M41.3,72.87
		c1.294-18.179,15.824-32.692,34.004-33.963"/>
	<path class="animatehex" fill="none" stroke="#000000" stroke-width="5.0121" stroke-miterlimit="10" d="M80.21,38.887
		c18.179,1.294,32.692,15.824,33.963,34.004"/>
	<path class="animatehex" fill="none" stroke="#000000" stroke-width="5.0121" stroke-miterlimit="10" d="M114.193,77.752
		c-1.294,18.179-15.824,32.692-34.004,33.963"/>
	<path class="animatehex" fill="none" stroke="#000000" stroke-width="5.0121" stroke-miterlimit="10" d="M75.283,111.736
		c-18.179-1.294-32.692-15.824-33.963-34.004"/>
</g>
</svg>
