<?xml version="1.0" encoding="utf-8"?>
<!-- Generator: Adobe Illustrator 16.0.0, SVG Export Plug-In . SVG Version: 6.00 Build 0)  -->
<!DOCTYPE svg PUBLIC "-//W3C//DTD SVG 1.1//EN" "http://www.w3.org/Graphics/SVG/1.1/DTD/svg11.dtd">
<svg version="1.1" id="Layer_1" xmlns="http://www.w3.org/2000/svg" xmlns:xlink="http://www.w3.org/1999/xlink" x="0px" y="0px"
	 width="155.068px" height="147.145px" viewBox="0 0 155.068 147.145" enable-background="new 0 0 155.068 147.145"
	 xml:space="preserve">
<g>
	<defs>
		<path id="SVGID_1_" d="M77.75,143.073L97.212,33.617c18.552,0,24.399,2.035,25.245,10.337c0,0,12.45-4.639,18.727-14.062
			C116.691,18.538,92.08,18.03,92.08,18.03L77.718,35.519l0.033-0.001l-14.363-17.49c0,0-24.611,0.509-49.101,11.86
			c6.273,9.424,18.723,14.063,18.723,14.063c0.848-8.303,6.695-10.336,25.119-10.351L77.75,143.073L77.75,143.073z M77.741,12.977
			c19.796-0.152,42.462,3.062,65.659,13.171c3.103-5.581,3.896-8.047,3.896-8.047C121.936,8.069,98.189,4.635,77.738,4.549l0,0
			C57.286,4.636,33.539,8.069,8.178,18.101c0,0,1.135,3.039,3.896,8.047c23.196-10.109,45.862-13.324,65.662-13.171H77.741
			L77.741,12.977z"/>
	</defs>
	<clipPath id="SVGID_2_">
		<use xlink:href="#SVGID_1_"  overflow="visible"/>
	</clipPath>
	<rect x="8.177" y="4.549" clip-path="url(#SVGID_2_)" fill="#666666" width="139.12" height="138.524"/>
</g>
</svg>
