<?xml-stylesheet type="text/css" href="style.css"?>
<!-- Generator: Adobe Illustrator 16.0.0, SVG Export Plug-In . SVG Version: 6.00 Build 0)  -->
<!DOCTYPE svg PUBLIC "-//W3C//DTD SVG 1.1//EN" "http://www.w3.org/Graphics/SVG/1.1/DTD/svg11.dtd">
<svg version="1.1" id="Layer_1" xmlns="http://www.w3.org/2000/svg" xmlns:xlink="http://www.w3.org/1999/xlink" x="0px" y="0px"
	 width="878.956px" height="612px" viewBox="-43.888 0 878.956 612" enable-background="new -43.888 0 878.956 612"
	 xml:space="preserve">
<g id="_x31_">
	<path class="one" id="one_11_" fill="none" stroke="#272525" stroke-width="5.2887" stroke-linecap="round" stroke-miterlimit="10" d="
		M210.592,257.822c-6.968-1.604-18.944-0.751-20.261,6.441c-0.989,5.417,6.145,9.682,12.557,8.087
		c6.884-1.714,10.475-6.275,15.781-9.771c4.921-3.252,11.151-6.032,17.732-5.241c6.091,0.728,8.72,5.363,6.213,9.699
		c-3.153,5.512-12.583,6.225-18.463,3.104"/>
</g>
<g id="_x39_">
	<path class="two" id="two_6_" fill="none" stroke="#272525" stroke-width="5.2768" stroke-linecap="round" stroke-miterlimit="10" d="
		M461.293,395.414c1.391-11.814,2.977-23.646,5.93-35.252c1.604-6.305,4.529-13.295,11.834-15.936c2.23-0.807,6.658-1.318,8.92-0.4
		c8.379,3.396,5.955,13.816,2.871,19.516c-3.715,6.855-11.533,13.898-11.102,21.994c0.197,3.715,2.473,8.262,6.514,8.771
		c5.262,0.662,8.869-6.402,5.15-10.256c-0.932-0.969-1.561-1.646-2.861-2.025"/>
	<path class="three" id="three_5_" fill="none" stroke="#272525" stroke-width="5" stroke-linecap="round" stroke-miterlimit="10" d="
		M491.543,382.383c0-2.232,0.203-4.742,1.744-6.492c1.824-2.072,5.348-1.863,6.896,0.453c3.578,5.344-3.299,16.811,6.053,18.035"/>
	<path class="one" id="one_7_" fill="none" stroke="#272525" stroke-width="4.8908" stroke-linecap="round" stroke-miterlimit="10" d="
		M452.279,395.414c1.324-11.305,2.834-22.625,5.646-33.729c1.527-6.033,4.312-12.721,11.27-15.248
		c2.123-0.771,6.34-1.26,8.494-0.383c7.979,3.25,9.777,12.873,4.402,14.748c-2.594,0.908-6.701-1.4-4.416-6.082"/>
	<path class="four" id="four_2_" fill="none" stroke="#272525" stroke-width="5" stroke-linecap="round" stroke-miterlimit="10" d="
		M475.094,367.199c-2.814,11.605-2.887,16.4-4.211,28.215"/>
</g>
<g id="_x32_">
	<path class="two" id="two_1_" fill="none" stroke="#272525" stroke-width="5.2887" stroke-linecap="round" stroke-miterlimit="10" d="
		M298.147,262.141c-6.968-1.604-18.944-0.751-20.261,6.441c-0.989,5.417,6.145,9.682,12.557,8.087
		c6.884-1.714,10.475-6.275,15.781-9.771c4.921-3.252,11.151-6.032,17.732-5.241c6.091,0.728,8.72,5.363,6.213,9.699
		c-3.153,5.512-12.583,6.225-18.463,3.104"/>

		<line class="one" id="one_1_" fill="none" stroke="#272525" stroke-width="5.2887" stroke-linecap="round" stroke-miterlimit="10" x1="277.794" y1="251.132" x2="331.113" y2="251.132"/>
</g>
<g id="_x37_">
	<path class="three" id="three_3_" fill="none" stroke="#272525" stroke-width="5.2887" stroke-linecap="round" stroke-miterlimit="10" d="
		M313.698,367.999c8.561,0.215,16.486-1.758,16.398,5.881c-0.061,5.252-5.527,7.297-12.672,7.439
		c-6.17,0.121-11.974-1.166-17.658-3.488c-5.503-2.248-11.543-5.201-17.543-2.953c-5.44,2.039-8.04,9.322-3.782,14.004
		c3.47,3.816,12.703,5.094,14.233-1.584"/>
	<path class="two" id="two_4_" fill="none" stroke="#272525" stroke-width="5" stroke-linecap="round" stroke-miterlimit="10" d="
		M285.947,345.888c7.75-0.021,9.561-0.674,12.228,2.41c2.041,2.361,2.148,4.945,2.166,8.842c0.012,3.617,0.749,7.611,3.55,10.193
		c2.589,2.391,10.224,2.49,11.224-3.01"/>

		<line class="one" id="one_6_" fill="none" stroke="#272525" stroke-width="5.2887" stroke-linecap="round" stroke-miterlimit="10" x1="276.871" y1="357.173" x2="330.19" y2="357.173"/>

		<line class="four" id="four_1_" fill="none" stroke="#272525" stroke-width="5.2887" stroke-linecap="round" stroke-miterlimit="10" x1="290.776" y1="390.798" x2="329.465" y2="390.798"/>
</g>
<g id="_x33_">
	<path class="two" id="two_9_" fill="none" stroke="#272525" stroke-width="5.2887" stroke-linecap="round" stroke-miterlimit="10" d="
		M385.857,257.822c-6.968-1.604-18.944-0.751-20.261,6.441c-0.989,5.417,6.145,9.682,12.557,8.087
		c6.884-1.714,10.475-6.275,15.781-9.771c4.919-3.252,11.146-6.032,17.725-5.241c6.091,0.728,8.72,5.363,6.213,9.699
		c-3.153,5.512-12.581,6.225-18.457,3.104"/>

		<line class="one" id="one_2_" fill="none" stroke="#272525" stroke-width="5.2887" stroke-linecap="round" stroke-miterlimit="10" x1="365.504" y1="246.813" x2="418.815" y2="246.813"/>

		<line class="three" id="three" fill="none" stroke="#272525" stroke-width="5.2887" stroke-linecap="round" stroke-miterlimit="10" x1="365.504" y1="282.18" x2="418.815" y2="282.18"/>
</g>
<g id="_x31_0">
	<path class="one"  id="one_8_" fill="none" stroke="#272525" stroke-width="5.2887" stroke-linecap="round" stroke-miterlimit="10" d="
		M558.069,346.642c-6.967-1.604-18.943-0.752-20.26,6.441c-0.99,5.416,6.145,9.682,12.557,8.088
		c6.883-1.715,10.475-6.277,15.781-9.771c4.92-3.252,11.15-6.033,17.732-5.242c6.09,0.729,9.203,5.684,6.213,9.699
		c-3.158,4.24-9.438,2.967-13.898,3.709c-3.451,0.574-7.725,2.348-10.189,4.861c-1.672,1.705-2.707,4.592-2.648,6.986
		c0.25,10.25-10.25,9.711-11,9.725c-3.617-0.066-7.658-0.377-10.998,1.264c-2.709,1.328-4.225,4.023-3.473,7.025
		c0.91,3.635,4.355,6.225,7.914,6.926c2.773,0.547,5.854,0.092,8.354-1.178c4.58-2.328,8.121-6.145,12.418-8.887
		c5.129-3.271,11.113-5.689,17.309-4.945c6.09,0.729,8.719,5.363,6.213,9.699c-3.154,5.512-12.584,6.225-18.463,3.104"/>

		<line class="two" id="two_7_" fill="none" stroke="#272525" stroke-width="5.2887" stroke-linecap="round" stroke-miterlimit="10" x1="537.71" y1="371.413" x2="591.03" y2="371.413"/>
</g>
<g id="_x35_">
	<path class="three"  id="three_7_" fill="none" stroke="#272525" stroke-width="5" stroke-linecap="round" stroke-miterlimit="10" d="
		M585.451,257.066c0,2.632-2.406,4.342-5.373,4.342h-28.215c-7.627-0.001-11.137,5.998-8.104,11.997"/>
	<path class="one" id="one_3_" fill="none" stroke="#272525" stroke-width="5" stroke-linecap="round" stroke-miterlimit="10" d="
		M559.086,239.11c-1.9-0.318-3.928-0.47-5.852-0.512c-3.146-0.069-6.945-0.495-9.738,1.264c-2.447,1.542-3.418,5.16-1.02,7.33
		c2.383,2.154,6.41,2.357,9.422,1.811c6.422-1.167,9.773-4.274,14.725-6.653c2.531-1.222,5.256-2.214,7.986-2.878
		c3.082-0.749,6.637-0.852,9.756-0.259c2.793,0.53,6.447,3.537,4.93,6.599c-1.152,2.33-4.387,3.583-6.879,3.518
		c-3.705-0.096-7.221-0.491-10.678-1.83"/>
	<path class="five" id="five_2_" fill="none" stroke="#272525" stroke-width="5" stroke-linecap="round" stroke-miterlimit="10" d="
		M559.086,282.007c-1.9-0.318-3.928-0.469-5.852-0.511c-3.146-0.069-6.945-0.496-9.738,1.263c-2.447,1.543-3.418,5.162-1.02,7.331
		c2.383,2.154,6.41,2.358,9.422,1.811c6.422-1.168,9.773-4.273,14.725-6.653c2.531-1.222,5.256-2.215,7.986-2.878
		c3.082-0.749,6.637-0.852,9.756-0.26c2.793,0.531,6.447,3.539,4.93,6.599c-1.152,2.33-4.387,3.583-6.879,3.519
		c-3.705-0.096-7.221-0.491-10.678-1.831"/>
	<path class="four" id="four_4_" fill="none" stroke="#272525" stroke-width="5" stroke-linecap="round" stroke-miterlimit="10" d="
		M580.078,261.408c15.076-0.794,13.133,17.366-2.516,9.876"/>
	<path class="two" id="two_10_" fill="none" stroke="#272525" stroke-width="5" stroke-linecap="round" stroke-miterlimit="10" d="
		M542.604,255.539h22.391v-0.001c3.607,0,6.533,1.835,6.533,4.097v3.25c0,2.75-2.406,4.981-5.373,4.981h-10.029
		c-1.484,0-3.004,0.377-3.961,1.28c-1.346,1.267-1.359,3.572-0.021,4.793c1.561,1.423,4.328,1.874,6.527,1.116"/>
</g>
<g id="_x34_">
	<path class="two" id="two_2_" fill="none" stroke="#272525" stroke-width="5.2887" stroke-linecap="round" stroke-miterlimit="10" d="
		M474.275,244.517v33.53c0,3.865-2.578,7-5.758,7h-14.398c-2.473,0-4.477-2.295-4.477-5.125s2.004-5.125,4.477-5.125h0.27h8.932
		h-0.719c2.471,0,4.477-2.295,4.477-5.125s-2.006-5.125-4.477-5.125h0.719h-12.33"/>
	<path class="one" id="one_10_" fill="none" stroke="#272525" stroke-width="5.2887" stroke-linecap="round" stroke-miterlimit="10" d="
		M474.275,254.767h-18.807c-2.471,0-4.479-2.295-4.479-5.125s2.008-5.125,4.479-5.125h25.912h19.525
		c2.473,0,4.479,2.295,4.479,5.125s-2.006,5.125-4.479,5.125h-18.805"/>
	<path class="three" id="three_1_" fill="none" stroke="#272525" stroke-width="5.2887" stroke-linecap="round" stroke-miterlimit="10" d="
		M482.102,244.517v33.53c0,3.865,2.578,7,5.756,7h14.398c2.473,0,4.479-2.295,4.479-5.125s-2.006-5.125-4.479-5.125h1.17h-10.369
		h0.719c-2.473,0-4.479-2.295-4.479-5.125s2.006-5.125,4.479-5.125h-0.719h12.328"/>
</g>
<g id="_x36_">
	<path class="one" id="one_4_" fill="none" stroke="#272525" stroke-width="5.4536" stroke-linecap="round" stroke-miterlimit="10" d="
		M219.85,340.269c6.071,0.725,9.174,5.664,6.192,9.668c-2.776,3.727-7.57,3.811-11.802,3.689
		c-6.621-0.191-13.399,0.477-19.088,4.184c-2.332,1.521-4.759,4.26-4.835,7.172c-0.158,6.033,7.788,8.438,12.604,7.24
		c6.86-1.709,10.439-6.256,15.729-9.74c4.904-3.24,11.114-6.012,17.674-5.223c6.071,0.725,8.691,5.344,6.192,9.668
		c-3.142,5.492-12.541,6.203-18.402,3.092"/>

		<path class="three" id="three_2_" fill="none" stroke="#272525" stroke-width="5.4536" stroke-linecap="round" stroke-linejoin="round" stroke-miterlimit="10" d="
		M227.625,378.815c-4.38,0-7.937,3.363-7.937,7.516c0,4.146,3.557,7.512,7.937,7.512h0.737c4.546,0,8.229-3.244,8.229-7.244v-0.268
		c0,3.334,3.073,6.041,6.866,6.041"/>

		<path class="two" id="two_3_" fill="none" stroke="#272525" stroke-width="5.4536" stroke-linecap="round" stroke-linejoin="round" stroke-miterlimit="10" d="
		M204.586,378.815c4.382,0,7.938,3.363,7.938,7.516c0,4.146-3.556,7.512-7.938,7.512h-0.737c-4.545,0-8.229-3.244-8.229-7.244
		v-0.268c0,3.334-3.075,6.041-6.865,6.041"/>
</g>
<g id="_x38_">

		<path class="six" id="six_1_" fill="none" stroke="#272525" stroke-width="5" stroke-linecap="round" stroke-linejoin="round" stroke-miterlimit="10" d="
		M402.913,378.815c-4.392,0-7.959,3.375-7.959,7.539c0,4.162,3.567,7.537,7.959,7.537h0.74c4.561,0,8.256-3.256,8.256-7.268v-0.27
		c0,3.346,3.084,6.062,6.889,6.062"/>
	<path class="four" id="four_5_" fill="none" stroke="#272525" stroke-width="5" stroke-linecap="round" stroke-miterlimit="10" d="
		M407.276,353.354c6.557,0,11.877,5.863,11.877,13.096c0,7.23-5.32,13.092-11.877,13.092c-2.893-0.002-5.234-1.973-5.234-4.402
		c0-2.785,2.049-5.041,4.57-5.041"/>
	<path class="two" id="two_5_" fill="none" stroke="#272525" stroke-width="5" stroke-linecap="round" stroke-miterlimit="10" d="
		M418.208,345.976c0,0-23.254-3.344-23.254,12.166c0,2.732,1.723,5.824,4.779,6.48c3.223,0.689,6.756-1.734,6.846-4.822"/>

		<path class="five" id="five_3_" fill="none" stroke="#272525" stroke-width="5" stroke-linecap="round" stroke-linejoin="round" stroke-miterlimit="10" d="
		M379.802,378.815c4.396,0,7.963,3.375,7.963,7.539c0,4.162-3.566,7.537-7.963,7.537h-0.738c-4.561,0-8.256-3.256-8.256-7.268v-0.27
		c0,3.346-3.086,6.062-6.889,6.062"/>
	<path class="three" id="three_4_" fill="none" stroke="#272525" stroke-width="5" stroke-linecap="round" stroke-miterlimit="10" d="
		M375.44,353.354c-6.557,0-11.879,5.863-11.879,13.096c0,7.23,5.322,13.092,11.879,13.092c2.893-0.002,5.232-1.973,5.232-4.402
		c0-2.785-2.047-5.041-4.57-5.041"/>
	<path class="one" id="one_5_" fill="none" stroke="#272525" stroke-width="5" stroke-linecap="round" stroke-miterlimit="10" d="
		M364.509,345.976c0,0,23.256-3.344,23.256,12.166c0,2.732-1.723,5.824-4.781,6.48c-3.225,0.689-6.756-1.734-6.846-4.822"/>
</g>
</svg>
