<?xml version="1.0" standalone="no"?>
<!DOCTYPE svg PUBLIC "-//W3C//DTD SVG 20010904//EN"
 "http://www.w3.org/TR/2001/REC-SVG-20010904/DTD/svg10.dtd">
<svg version="1.0" xmlns="http://www.w3.org/2000/svg"
 width="600.000000pt" height="600.000000pt" viewBox="0 0 600.000000 600.000000"
 preserveAspectRatio="xMidYMid meet">
<metadata>
Created by potrace 1.11, written by Peter Selinger 2001-2013
</metadata>
<g transform="translate(0.000000,600.000000) scale(0.100000,-0.100000)"
fill="#000000" stroke="none">
<path d="M5991 5424 c0 -11 3 -14 6 -6 3 7 2 16 -1 19 -3 4 -6 -2 -5 -13z"/>
<path d="M5991 5264 c0 -11 3 -14 6 -6 3 7 2 16 -1 19 -3 4 -6 -2 -5 -13z"/>
<path d="M230 5214 c-138 -41 -212 -204 -153 -334 31 -69 58 -93 193 -171 69
-39 141 -81 160 -92 19 -11 46 -27 60 -34 14 -8 40 -23 58 -34 218 -129 554
-318 581 -327 44 -15 107 -14 153 2 20 7 80 39 135 71 54 32 114 67 133 78
112 63 444 255 492 283 l56 34 289 -166 c531 -306 526 -303 575 -310 74 -10
124 9 320 122 100 59 199 116 218 127 152 86 322 184 353 204 l39 24 156 -89
c87 -50 240 -138 342 -198 316 -183 313 -182 366 -190 69 -10 126 9 269 92 74
44 153 89 175 101 21 12 124 71 227 131 103 59 241 139 306 176 77 45 129 82
151 110 126 154 23 390 -176 400 -29 2 -66 0 -83 -5 -16 -5 -210 -112 -430
-239 -336 -194 -403 -229 -420 -221 -11 6 -42 23 -70 39 -557 324 -670 388
-715 409 -20 10 -61 17 -96 17 -69 0 -96 -12 -293 -127 -62 -37 -115 -67 -117
-67 -3 0 -76 -44 -129 -78 -11 -6 -27 -15 -35 -19 -8 -4 -79 -44 -158 -90 -78
-46 -149 -86 -156 -89 -7 -3 -96 43 -197 102 -101 59 -198 115 -214 124 -17 9
-87 50 -155 90 -190 110 -261 147 -301 154 -61 11 -132 -12 -251 -81 -62 -36
-129 -74 -148 -85 -98 -56 -441 -255 -483 -279 -26 -16 -51 -29 -55 -29 -4 0
-49 25 -101 55 -51 30 -95 55 -97 55 -3 0 -21 11 -42 24 -30 19 -233 137 -462
269 -124 72 -188 86 -270 61z"/>
<path d="M5992 5090 c0 -19 2 -27 5 -17 2 9 2 25 0 35 -3 9 -5 1 -5 -18z"/>
<path d="M5991 4144 c0 -11 3 -14 6 -6 3 7 2 16 -1 19 -3 4 -6 -2 -5 -13z"/>
<path d="M219 4067 c-139 -52 -202 -213 -136 -343 33 -65 50 -79 207 -169 74
-43 203 -117 285 -165 83 -48 170 -98 195 -112 25 -14 114 -65 199 -114 141
-81 158 -89 217 -92 74 -5 93 2 214 71 47 27 103 59 125 71 22 13 121 70 220
128 99 57 207 120 240 138 33 18 71 41 86 51 l25 18 270 -156 c148 -85 285
-164 304 -175 19 -11 72 -42 118 -69 118 -70 142 -78 219 -75 78 2 67 -3 313
141 102 59 210 121 240 138 30 16 60 33 65 38 17 13 249 145 267 152 10 3 20
2 23 -3 3 -5 29 -22 58 -38 28 -16 81 -46 117 -67 36 -20 80 -46 98 -56 18
-11 102 -59 185 -108 364 -211 333 -196 417 -196 75 0 117 13 180 55 14 10 45
28 70 42 25 14 83 48 130 75 47 27 94 55 105 61 11 6 115 66 230 132 116 66
217 125 225 130 8 5 36 21 61 34 26 14 64 45 85 69 137 156 35 398 -173 411
-57 3 -106 -12 -182 -58 -31 -19 -72 -43 -91 -53 -19 -11 -170 -98 -334 -193
-252 -146 -301 -171 -320 -162 -11 5 -109 60 -216 122 -465 268 -593 340 -610
341 -8 0 -26 2 -39 3 -47 5 -112 -16 -198 -66 -101 -58 -185 -107 -473 -273
-113 -64 -209 -121 -214 -126 -19 -17 -41 -8 -200 85 -151 88 -530 306 -602
346 -94 53 -182 43 -316 -37 -25 -15 -86 -51 -135 -79 -48 -28 -180 -104 -293
-169 -295 -171 -277 -162 -297 -149 -10 6 -38 22 -63 36 -25 14 -85 49 -135
78 -49 29 -108 62 -130 75 -72 40 -109 62 -165 95 -30 18 -75 44 -100 58 -25
14 -79 44 -120 68 -110 63 -167 72 -251 41z"/>
<path d="M5991 3984 c0 -11 3 -14 6 -6 3 7 2 16 -1 19 -3 4 -6 -2 -5 -13z"/>
<path d="M5991 3794 c0 -11 3 -14 6 -6 3 7 2 16 -1 19 -3 4 -6 -2 -5 -13z"/>
<path d="M5991 3644 c0 -11 3 -14 6 -6 3 7 2 16 -1 19 -3 4 -6 -2 -5 -13z"/>
<path d="M263 2949 c-200 -26 -285 -260 -150 -415 12 -14 105 -73 206 -132
102 -59 195 -112 206 -119 11 -7 27 -15 35 -19 8 -4 51 -29 95 -55 44 -26 96
-56 115 -66 19 -11 91 -53 160 -93 161 -94 200 -111 258 -111 58 0 94 11 152
44 25 15 97 56 160 92 63 37 122 70 130 76 118 75 467 266 475 260 5 -5 26
-18 45 -29 19 -11 76 -43 125 -72 50 -29 108 -62 130 -75 22 -12 138 -79 257
-148 120 -69 234 -131 253 -137 49 -16 115 -15 157 3 20 9 211 116 424 239
213 122 391 222 394 221 3 -1 179 -102 391 -224 211 -122 400 -228 419 -236
22 -10 57 -14 100 -11 58 3 76 10 163 61 54 31 100 57 103 57 2 0 23 12 46 26
23 15 115 69 204 120 90 52 177 102 193 111 17 10 94 55 173 100 165 95 206
131 232 202 58 163 -57 330 -229 332 -71 1 -84 -4 -300 -129 -99 -58 -198
-115 -220 -127 -22 -13 -80 -46 -130 -75 -283 -165 -238 -152 -336 -95 -46 26
-98 56 -116 66 -18 11 -48 27 -65 38 -18 10 -109 62 -203 116 -93 54 -186 108
-205 120 -96 60 -172 89 -228 87 -67 -2 -94 -14 -346 -162 -104 -60 -191 -110
-192 -110 -1 0 -79 -45 -173 -100 -94 -55 -176 -100 -182 -100 -6 0 -49 23
-96 50 -47 28 -87 50 -89 50 -2 0 -28 16 -58 35 -30 19 -57 35 -60 35 -2 0
-39 20 -80 45 -42 25 -79 45 -83 45 -4 0 -14 6 -22 14 -9 7 -41 27 -71 43 -30
17 -93 53 -140 80 -112 65 -161 81 -225 72 -47 -6 -100 -25 -135 -49 -14 -9
-60 -36 -516 -298 -116 -67 -217 -122 -225 -122 -8 0 -19 4 -24 9 -9 8 -42 27
-134 77 -19 11 -40 23 -45 27 -45 34 -606 347 -635 354 -20 5 -59 6 -88 2z"/>
<path d="M5991 2864 c0 -11 3 -14 6 -6 3 7 2 16 -1 19 -3 4 -6 -2 -5 -13z"/>
<path d="M5991 2704 c0 -11 3 -14 6 -6 3 7 2 16 -1 19 -3 4 -6 -2 -5 -13z"/>
<path d="M5991 2514 c0 -11 3 -14 6 -6 3 7 2 16 -1 19 -3 4 -6 -2 -5 -13z"/>
<path d="M2055 1827 c-22 -12 -51 -30 -65 -38 -14 -9 -115 -68 -225 -131 -110
-64 -216 -125 -235 -137 -19 -11 -41 -24 -48 -27 -7 -4 -74 -41 -148 -84
l-135 -78 -72 43 c-208 123 -716 413 -745 424 -21 9 -55 12 -97 9 -173 -14
-274 -177 -211 -342 25 -65 74 -103 306 -236 118 -68 240 -138 270 -155 486
-282 552 -318 568 -308 17 10 459 265 522 300 19 11 69 40 110 65 41 24 82 47
90 51 8 4 38 21 65 37 94 57 88 57 157 19 56 -30 72 -34 138 -34 85 0 123 16
176 72 49 52 68 99 68 170 -1 72 -37 157 -81 189 -28 21 -359 214 -365 214 -2
-1 -21 -11 -43 -23z"/>
<path d="M3715 1750 c-106 -62 -184 -115 -206 -139 -83 -92 -77 -252 13 -340
50 -48 95 -66 173 -66 60 0 79 5 136 34 l67 34 188 -108 c104 -60 305 -176
447 -258 l258 -149 241 138 c133 77 262 151 287 165 531 304 562 324 598 398
26 53 24 164 -5 217 -60 116 -201 166 -319 114 -26 -11 -153 -82 -283 -157
-129 -75 -298 -173 -376 -218 l-141 -82 -154 89 c-85 50 -183 106 -219 125
-36 20 -69 39 -75 43 -24 18 -448 260 -453 259 -4 0 -83 -45 -177 -99z"/>
<path d="M5991 1584 c0 -11 3 -14 6 -6 3 7 2 16 -1 19 -3 4 -6 -2 -5 -13z"/>
<path d="M5991 1424 c0 -11 3 -14 6 -6 3 7 2 16 -1 19 -3 4 -6 -2 -5 -13z"/>
<path d="M2731 1400 c-136 -34 -219 -206 -162 -335 12 -27 29 -58 39 -69 15
-17 146 -106 156 -106 3 0 55 -30 116 -66 106 -62 114 -65 138 -53 111 58 323
186 351 212 95 89 98 251 8 345 -52 55 -102 76 -182 76 -63 1 -77 -3 -136 -36
-37 -20 -71 -33 -75 -28 -5 4 -33 20 -61 35 -57 29 -135 40 -192 25z"/>
<path d="M5991 784 c0 -11 3 -14 6 -6 3 7 2 16 -1 19 -3 4 -6 -2 -5 -13z"/>
<path d="M5991 624 c0 -11 3 -14 6 -6 3 7 2 16 -1 19 -3 4 -6 -2 -5 -13z"/>
<path d="M5991 464 c0 -11 3 -14 6 -6 3 7 2 16 -1 19 -3 4 -6 -2 -5 -13z"/>
<path d="M5991 304 c0 -11 3 -14 6 -6 3 7 2 16 -1 19 -3 4 -6 -2 -5 -13z"/>
</g>
</svg>
