<?xml version="1.0" encoding="utf-8"?>
<!-- Generator: Adobe Illustrator 16.0.0, SVG Export Plug-In . SVG Version: 6.00 Build 0)  -->
<!DOCTYPE svg PUBLIC "-//W3C//DTD SVG 1.1//EN" "http://www.w3.org/Graphics/SVG/1.1/DTD/svg11.dtd">
<svg version="1.1" id="Layer_1" xmlns="http://www.w3.org/2000/svg" xmlns:xlink="http://www.w3.org/1999/xlink" x="0px" y="0px"
	 width="288px" height="288px" viewBox="0 0 288 288" enable-background="new 0 0 288 288" xml:space="preserve">
<path id="two_20_" fill="none" stroke="#000000" stroke-width="20.2083" stroke-linecap="round" stroke-miterlimit="10" d="
	M99.442,202.719c-5.348,5.821-15.305,8.17-22.986,7.952c-8.053-0.234-15.361-4.406-20.854-10.111
	c-11.132-11.538-15.093-29.118-13.006-44.7c4.004-29.929,34.211-39.98,60.551-40.921c11.095-0.401,22.189,0.095,33.285,0.08
	c3.713-0.007,7.432,0.007,11.145,0.007h-2.378c8.199,0,14.853-7.615,14.853-17.01V65.161"/>
<path id="four_11_" fill="none" stroke="#000000" stroke-width="20.2083" stroke-linecap="round" stroke-miterlimit="10" d="
	M159.672,223.026l0.029-26.931c-0.839-34.561,34.562-32.737,37.092-32.788c12.189,0.218,25.815,1.261,37.079-4.269
	c9.131-4.464,14.237-13.559,11.707-23.684c-3.071-12.248-14.685-20.986-26.684-23.35c-9.345-1.846-19.731-0.307-28.163,3.968
	c-14.479,9.249-26.202,21.957-41.645,29.806c-8.44,4.274-18.812,5.813-28.164,3.969c-11.992-2.364-26.683-10.716-26.683-23.351
	c0-20.869,0-5.419,0-5.419"/>
<line fill="none" stroke="#000000" stroke-width="20.2083" stroke-linecap="round" stroke-miterlimit="10" x1="41.772" y1="65.161" x2="246.228" y2="65.161"/>
<line fill="none" stroke="#000000" stroke-width="20.2083" stroke-linecap="round" stroke-miterlimit="10" x1="41.772" y1="223.026" x2="246.228" y2="223.026"/>
</svg>
