<?xml version="1.0" encoding="utf-8"?>
<!-- Generator: Adobe Illustrator 16.0.0, SVG Export Plug-In . SVG Version: 6.00 Build 0)  -->
<!DOCTYPE svg PUBLIC "-//W3C//DTD SVG 1.1//EN" "http://www.w3.org/Graphics/SVG/1.1/DTD/svg11.dtd">
<svg version="1.1" id="Layer_1" xmlns="http://www.w3.org/2000/svg" xmlns:xlink="http://www.w3.org/1999/xlink" x="0px" y="0px"
	 width="246.25px" height="597.5px" viewBox="0 0 246.25 597.5" enable-background="new 0 0 246.25 597.5" xml:space="preserve">
<polyline fill="none" stroke="#000000" stroke-width="13" stroke-linecap="round" stroke-linejoin="round" stroke-miterlimit="10" points="
	84.838,120.021 84.838,471.538 108.314,485.091 108.314,512.175 131.791,525.729 131.791,552.831 155.268,566.384 "/>
<polyline opacity="0.5" fill="none" stroke="#FFFFFF" stroke-width="13" stroke-linecap="round" stroke-linejoin="round" stroke-miterlimit="10" enable-background="new    " points="
	97.878,437.243 97.878,464.353 121.354,477.905 121.354,504.989 144.831,518.542 144.831,545.646 168.309,559.2 "/>
<polyline opacity="0.5" fill="none" stroke="#FFFFFF" stroke-width="13" stroke-linecap="round" stroke-linejoin="round" stroke-miterlimit="10" enable-background="new    " points="
	123.729,422.897 123.729,450.007 147.206,463.56 147.206,490.642 170.684,504.194 170.684,531.3 194.159,544.854 "/>
<polyline opacity="0.5" fill="none" stroke="#FFFFFF" stroke-width="13" stroke-linecap="round" stroke-linejoin="round" stroke-miterlimit="10" enable-background="new    " points="
	71.858,451.968 71.858,479.077 95.335,492.63 95.335,519.714 118.812,533.267 118.812,560.372 142.288,573.925 "/>
<polyline fill="none" stroke="#000000" stroke-width="13" stroke-linecap="round" stroke-linejoin="round" stroke-miterlimit="10" points="
	110.815,231.299 110.815,457.435 134.292,470.987 134.292,498.073 157.77,511.626 157.77,538.731 181.245,552.284 "/>
<polyline fill="none" stroke="#000000" stroke-width="13" stroke-linecap="round" stroke-linejoin="round" stroke-miterlimit="10" points="
	136.736,298.067 136.736,442.589 160.213,456.142 160.213,483.226 183.689,496.778 183.689,523.882 207.166,537.435 "/>
<polyline opacity="0.5" fill="none" stroke="#FFFFFF" stroke-width="13" stroke-linecap="round" stroke-linejoin="round" stroke-miterlimit="10" enable-background="new    " points="
	149.708,407.983 149.708,435.093 173.186,448.646 173.186,475.728 196.661,489.28 196.661,516.386 220.139,529.938 "/>
<polyline fill="none" stroke="#000000" stroke-width="13" stroke-linecap="round" stroke-linejoin="round" stroke-miterlimit="10" points="
	233.145,522.521 209.668,508.968 209.668,481.864 186.191,468.312 186.191,441.228 162.715,427.675 162.715,171.146 "/>
<g>
	
		<line fill="none" stroke="#000000" stroke-width="13" stroke-linecap="round" stroke-miterlimit="10" x1="59.128" y1="97.028" x2="59.128" y2="486.624"/>
	<polyline fill="none" stroke="#000000" stroke-width="13" stroke-linecap="round" stroke-miterlimit="10" points="59.128,480.624 
		59.128,486.624 64.324,489.624 	"/>
	<polyline fill="none" stroke="#000000" stroke-width="13" stroke-linecap="round" stroke-miterlimit="10" points="59.128,486.624 
		82.604,500.177 82.604,506.177 	"/>
	<polyline fill="none" stroke="#000000" stroke-width="13" stroke-linecap="round" stroke-miterlimit="10" points="82.604,521.261 
		82.604,527.261 87.801,530.261 	"/>
	<polyline fill="none" stroke="#000000" stroke-width="13" stroke-linecap="round" stroke-miterlimit="10" points="100.885,537.812 
		106.081,540.812 106.081,546.812 	"/>
	<polyline fill="none" stroke="#000000" stroke-width="13" stroke-linecap="round" stroke-miterlimit="10" points="106.081,540.812 
		106.081,567.919 126.959,579.972 	"/>
	
		<line fill="none" stroke="#000000" stroke-width="13" stroke-linecap="round" stroke-miterlimit="10" x1="124.361" y1="578.472" x2="129.559" y2="581.472"/>
</g>
<g id="gear_3_">
	<polyline fill="none" stroke="#000000" stroke-width="13" stroke-linecap="round" stroke-miterlimit="10" points="51.257,23.816 
		51.257,50.926 74.733,64.479 74.733,91.562 98.21,105.115 98.21,132.22 121.687,145.772 	"/>
	<polyline fill="none" stroke="#000000" stroke-width="13" stroke-linecap="round" stroke-miterlimit="10" points="36.675,35.009 
		43.69,61.194 69.875,68.209 76.885,94.37 103.069,101.385 110.085,127.565 136.27,134.58 	"/>
	<polyline fill="none" stroke="#000000" stroke-width="13" stroke-linecap="round" stroke-miterlimit="10" points="25.486,49.594 
		39.04,73.071 66.147,73.069 79.689,96.525 106.798,96.523 120.351,119.996 147.457,119.995 	"/>
	<polyline fill="none" stroke="#000000" stroke-width="13" stroke-linecap="round" stroke-miterlimit="10" points="18.454,66.577 
		37.622,85.747 63.806,78.729 82.957,97.881 109.141,90.863 128.307,110.028 154.488,103.012 	"/>
	<polyline fill="none" stroke="#000000" stroke-width="13" stroke-linecap="round" stroke-miterlimit="10" points="15.052,84.935 
		38.528,98.49 62.003,84.935 85.459,98.477 108.934,84.922 132.407,98.474 155.882,84.919 	"/>
	<polyline fill="none" stroke="#000000" stroke-width="13" stroke-linecap="round" stroke-miterlimit="10" points="15.698,103.39 
		41.884,110.407 61.05,91.238 87.212,98.248 106.378,79.079 132.561,86.094 151.727,66.926 	"/>
	<polyline fill="none" stroke="#000000" stroke-width="13" stroke-linecap="round" stroke-miterlimit="10" points="21.729,120.504 
		48.839,120.505 62.391,97.028 89.476,97.028 103.027,73.552 130.132,73.552 143.686,50.076 	"/>
	<polyline fill="none" stroke="#000000" stroke-width="13" stroke-linecap="round" stroke-miterlimit="10" points="32.921,135.086 
		59.107,128.07 66.121,101.887 92.283,94.877 99.297,68.692 125.479,61.677 132.493,35.494 	"/>
	<polyline fill="none" stroke="#000000" stroke-width="13" stroke-linecap="round" stroke-miterlimit="10" points="47.506,146.274 
		70.983,132.721 70.981,105.614 94.438,92.071 94.436,64.964 117.908,51.411 117.908,24.306 	"/>
	<polyline fill="none" stroke="#000000" stroke-width="13" stroke-linecap="round" stroke-miterlimit="10" points="64.489,153.308 
		83.659,134.139 76.642,107.956 95.794,88.804 88.775,62.621 107.94,43.455 100.925,17.272 	"/>
	<polyline fill="none" stroke="#000000" stroke-width="13" stroke-linecap="round" stroke-miterlimit="10" points="82.847,156.71 
		96.402,133.232 82.847,109.759 96.39,86.302 82.834,62.828 96.386,39.354 82.832,15.88 	"/>
	<polyline fill="none" stroke="#000000" stroke-width="13" stroke-linecap="round" stroke-miterlimit="10" points="101.302,156.063 
		108.319,129.877 89.15,110.712 96.161,84.549 76.991,65.384 84.006,39.202 64.839,20.036 	"/>
	<polyline fill="none" stroke="#000000" stroke-width="13" stroke-linecap="round" stroke-miterlimit="10" points="118.416,150.032 
		118.417,122.922 94.94,109.371 94.941,82.285 71.464,68.734 71.464,41.63 47.989,28.077 	"/>
	<polyline fill="none" stroke="#000000" stroke-width="13" stroke-linecap="round" stroke-miterlimit="10" points="132.998,138.841 
		125.982,112.653 99.799,105.641 92.789,79.478 66.604,72.465 59.59,46.284 33.407,39.269 	"/>
	<polyline fill="none" stroke="#000000" stroke-width="13" stroke-linecap="round" stroke-miterlimit="10" points="144.188,124.257 
		130.633,100.777 103.526,100.78 89.983,77.322 62.876,77.326 49.324,53.853 22.219,53.853 	"/>
	<polyline fill="none" stroke="#000000" stroke-width="13" stroke-linecap="round" stroke-miterlimit="10" points="151.221,107.273 
		132.051,88.103 105.869,95.12 86.716,75.967 60.533,82.986 41.367,63.82 15.186,70.836 	"/>
	<polyline fill="none" stroke="#000000" stroke-width="13" stroke-linecap="round" stroke-miterlimit="10" points="154.622,88.916 
		131.145,75.36 107.672,88.915 84.214,75.371 60.74,88.928 37.267,75.376 13.793,88.929 	"/>
	<polyline fill="none" stroke="#000000" stroke-width="13" stroke-linecap="round" stroke-miterlimit="10" points="153.977,70.461 
		127.789,63.443 108.625,82.611 82.461,75.601 63.296,94.771 37.114,87.756 17.948,106.922 	"/>
	<polyline fill="none" stroke="#000000" stroke-width="13" stroke-linecap="round" stroke-miterlimit="10" points="147.943,53.347 
		120.834,53.346 107.284,76.82 80.197,76.82 66.646,100.298 39.542,100.298 25.989,123.771 	"/>
	<polyline fill="none" stroke="#000000" stroke-width="13" stroke-linecap="round" stroke-miterlimit="10" points="136.753,38.765 
		110.566,45.78 103.554,71.962 77.39,78.973 70.377,105.157 44.196,112.173 37.181,138.354 	"/>
	<polyline fill="none" stroke="#000000" stroke-width="13" stroke-linecap="round" stroke-miterlimit="10" points="122.169,27.576 
		98.69,41.13 98.692,68.234 75.235,81.778 75.238,108.886 51.766,122.438 51.765,149.542 	"/>
	<polyline fill="none" stroke="#000000" stroke-width="13" stroke-linecap="round" stroke-miterlimit="10" points="105.186,20.543 
		86.016,39.712 93.032,65.893 73.88,85.046 80.898,111.229 61.733,130.395 68.748,156.575 	"/>
	<polyline fill="none" stroke="#000000" stroke-width="13" stroke-linecap="round" stroke-miterlimit="10" points="86.829,17.141 
		73.273,40.618 86.827,64.09 73.284,87.548 86.84,111.022 73.289,134.495 86.841,157.968 	"/>
	<polyline fill="none" stroke="#000000" stroke-width="13" stroke-linecap="round" stroke-miterlimit="10" points="68.374,17.787 
		61.356,43.973 80.523,63.137 73.514,89.301 92.683,108.467 85.669,134.647 104.834,153.812 	"/>
	<polyline fill="none" stroke="#000000" stroke-width="13" stroke-linecap="round" stroke-miterlimit="10" points="51.26,23.817 
		51.259,50.927 74.732,64.478 74.733,91.564 98.21,105.116 98.211,132.22 121.684,145.771 	"/>
	<polyline fill="none" stroke="#000000" stroke-width="13" stroke-linecap="round" stroke-miterlimit="10" points="36.678,35.009 
		43.693,61.194 69.874,68.208 76.886,94.372 103.069,101.386 110.086,127.565 136.266,134.58 	"/>
</g>
<g id="gear_2_">
	<polyline fill="none" stroke="#000000" stroke-width="7.3379" stroke-linecap="round" stroke-miterlimit="10" points="
		91.859,168.741 91.859,184.044 105.113,191.694 105.113,206.983 118.364,214.63 118.364,229.929 131.613,237.58 	"/>
	<polyline fill="none" stroke="#000000" stroke-width="7.3379" stroke-linecap="round" stroke-miterlimit="10" points="
		83.63,175.06 87.593,189.842 102.37,193.801 106.326,208.565 121.107,212.524 125.066,227.302 139.848,231.265 	"/>
	<polyline fill="none" stroke="#000000" stroke-width="7.3379" stroke-linecap="round" stroke-miterlimit="10" points="
		77.314,183.294 84.966,196.544 100.268,196.544 107.911,209.784 123.21,209.78 130.861,223.031 146.163,223.031 	"/>
	<polyline fill="none" stroke="#000000" stroke-width="7.3379" stroke-linecap="round" stroke-miterlimit="10" points="
		73.345,192.88 84.164,203.698 98.945,199.739 109.754,210.548 124.532,206.585 135.352,217.404 150.129,213.445 	"/>
	<polyline fill="none" stroke="#000000" stroke-width="7.3379" stroke-linecap="round" stroke-miterlimit="10" points="
		71.427,203.239 84.678,210.891 97.929,203.239 111.165,210.884 124.416,203.232 137.666,210.884 150.917,203.232 	"/>
	<polyline fill="none" stroke="#000000" stroke-width="7.3379" stroke-linecap="round" stroke-miterlimit="10" points="
		71.79,213.657 86.571,217.62 97.388,206.798 112.155,210.757 122.974,199.935 137.752,203.894 148.57,193.075 	"/>
	<polyline fill="none" stroke="#000000" stroke-width="7.3379" stroke-linecap="round" stroke-miterlimit="10" points="
		75.194,223.319 90.497,223.319 98.147,210.065 113.433,210.065 121.083,196.814 136.382,196.814 144.033,183.563 	"/>
	<polyline fill="none" stroke="#000000" stroke-width="7.3379" stroke-linecap="round" stroke-miterlimit="10" points="
		81.51,231.549 96.291,227.59 100.25,212.809 115.019,208.853 118.978,194.071 133.755,190.112 137.714,175.334 	"/>
	<polyline fill="none" stroke="#000000" stroke-width="7.3379" stroke-linecap="round" stroke-miterlimit="10" points="
		89.743,237.864 102.997,230.214 102.993,214.915 116.233,207.271 116.233,191.968 129.484,184.317 129.484,169.019 	"/>
	<polyline fill="none" stroke="#000000" stroke-width="7.3379" stroke-linecap="round" stroke-miterlimit="10" points="
		99.329,241.833 110.151,231.015 106.188,216.237 117.001,205.425 113.038,190.646 123.857,179.827 119.896,165.05 	"/>
	<polyline fill="none" stroke="#000000" stroke-width="7.3379" stroke-linecap="round" stroke-miterlimit="10" points="
		109.692,243.755 117.344,230.501 109.692,217.254 117.337,204.014 109.686,190.763 117.333,177.513 109.683,164.262 	"/>
	<polyline fill="none" stroke="#000000" stroke-width="7.3379" stroke-linecap="round" stroke-miterlimit="10" points="
		120.107,243.389 124.068,228.606 113.251,217.792 117.206,203.024 106.388,192.204 110.347,177.427 99.527,166.608 	"/>
	<polyline fill="none" stroke="#000000" stroke-width="7.3379" stroke-linecap="round" stroke-miterlimit="10" points="
		129.77,239.984 129.77,224.683 116.519,217.034 116.519,201.746 103.268,194.095 103.268,178.797 90.017,171.146 	"/>
	<polyline fill="none" stroke="#000000" stroke-width="7.3379" stroke-linecap="round" stroke-miterlimit="10" points="
		137.999,233.669 134.04,218.888 119.262,214.929 115.306,200.161 100.524,196.202 96.565,181.423 81.787,177.464 	"/>
	<polyline fill="none" stroke="#000000" stroke-width="7.3379" stroke-linecap="round" stroke-miterlimit="10" points="
		144.312,225.436 136.666,212.182 121.364,212.185 113.72,198.944 98.421,198.944 90.771,185.694 75.472,185.694 	"/>
	<polyline fill="none" stroke="#000000" stroke-width="7.3379" stroke-linecap="round" stroke-miterlimit="10" points="
		148.286,215.85 137.464,205.027 122.687,208.989 111.878,198.178 97.097,202.14 86.28,191.321 71.503,195.284 	"/>
	<polyline fill="none" stroke="#000000" stroke-width="7.3379" stroke-linecap="round" stroke-miterlimit="10" points="
		150.204,205.489 136.954,197.835 123.703,205.486 110.463,197.842 97.216,205.493 83.966,197.845 70.715,205.497 	"/>
	<polyline fill="none" stroke="#000000" stroke-width="7.3379" stroke-linecap="round" stroke-miterlimit="10" points="
		149.842,195.071 135.061,191.108 124.245,201.928 109.474,197.972 98.657,208.791 83.88,204.832 73.061,215.651 	"/>
	<polyline fill="none" stroke="#000000" stroke-width="7.3379" stroke-linecap="round" stroke-miterlimit="10" points="
		146.438,185.41 131.137,185.41 123.484,198.661 108.196,198.661 100.548,211.911 85.25,211.911 77.599,225.161 	"/>
	<polyline fill="none" stroke="#000000" stroke-width="7.3379" stroke-linecap="round" stroke-miterlimit="10" points="
		140.118,177.181 125.341,181.14 121.382,195.917 106.613,199.876 102.654,214.654 87.876,218.613 83.917,233.392 	"/>
	<polyline fill="none" stroke="#000000" stroke-width="7.3379" stroke-linecap="round" stroke-miterlimit="10" points="
		131.889,170.864 118.635,178.516 118.635,193.814 105.395,201.458 105.397,216.761 92.147,224.408 92.147,239.707 	"/>
	<polyline fill="none" stroke="#000000" stroke-width="7.3379" stroke-linecap="round" stroke-miterlimit="10" points="
		122.303,166.896 111.48,177.714 115.442,192.493 104.631,203.305 108.593,218.083 97.774,228.901 101.733,243.677 	"/>
	<polyline fill="none" stroke="#000000" stroke-width="7.3379" stroke-linecap="round" stroke-miterlimit="10" points="
		111.939,164.974 104.288,178.225 111.939,191.476 104.295,204.716 111.946,217.966 104.298,231.217 111.946,244.464 	"/>
	<polyline fill="none" stroke="#000000" stroke-width="7.3379" stroke-linecap="round" stroke-miterlimit="10" points="
		101.524,165.337 97.562,180.118 108.381,190.938 104.425,205.706 115.244,216.524 111.285,231.299 122.104,242.118 	"/>
	<polyline fill="none" stroke="#000000" stroke-width="7.3379" stroke-linecap="round" stroke-miterlimit="10" points="
		91.863,168.741 91.863,184.044 105.113,191.694 105.113,206.983 118.364,214.634 118.364,229.929 131.613,237.58 	"/>
	<polyline fill="none" stroke="#000000" stroke-width="7.3379" stroke-linecap="round" stroke-miterlimit="10" points="
		83.633,175.06 87.593,189.842 102.37,193.798 106.326,208.568 121.107,212.527 125.066,227.302 139.846,231.265 	"/>
</g>
<g id="gear_1_">
	<polyline fill="none" stroke="#000000" stroke-width="7.3379" stroke-linecap="round" stroke-miterlimit="10" points="
		96.954,285.429 110.205,293.08 123.456,285.429 136.691,293.073 149.943,285.422 163.193,293.073 176.443,285.422 	"/>
	<polyline fill="none" stroke="#000000" stroke-width="7.3379" stroke-linecap="round" stroke-miterlimit="10" points="
		175.73,287.679 162.48,280.024 149.23,287.676 135.99,280.031 122.743,287.683 109.493,280.034 96.242,287.687 	"/>
	<g>
		<polyline fill="none" stroke="#000000" stroke-width="7.3379" stroke-linecap="round" stroke-miterlimit="10" points="
			117.387,250.931 117.387,266.233 130.641,273.884 130.641,289.173 143.893,296.819 143.893,312.118 157.143,319.77 		"/>
		<polyline fill="none" stroke="#000000" stroke-width="7.3379" stroke-linecap="round" stroke-miterlimit="10" points="
			109.157,257.249 113.12,272.031 127.896,275.99 131.854,290.755 146.635,294.714 150.594,309.491 165.375,313.454 		"/>
		<polyline fill="none" stroke="#000000" stroke-width="7.3379" stroke-linecap="round" stroke-miterlimit="10" points="
			102.842,265.483 110.493,278.733 125.795,278.733 133.438,291.974 148.736,291.97 156.389,305.221 171.689,305.221 		"/>
		<polyline fill="none" stroke="#000000" stroke-width="7.3379" stroke-linecap="round" stroke-miterlimit="10" points="
			98.872,275.069 109.691,285.888 124.473,281.929 135.281,292.737 150.061,288.774 160.878,299.594 175.656,295.635 		"/>
		<polyline fill="none" stroke="#000000" stroke-width="7.3379" stroke-linecap="round" stroke-miterlimit="10" points="
			97.317,295.847 112.099,299.811 122.915,288.987 137.684,292.946 148.501,282.124 163.279,286.083 174.1,275.265 		"/>
		<polyline fill="none" stroke="#000000" stroke-width="7.3379" stroke-linecap="round" stroke-miterlimit="10" points="
			100.722,305.509 116.024,305.509 123.675,292.255 138.96,292.255 146.609,279.004 161.909,279.004 169.561,265.753 		"/>
		<polyline fill="none" stroke="#000000" stroke-width="7.3379" stroke-linecap="round" stroke-miterlimit="10" points="
			107.037,313.738 121.818,309.779 125.777,294.998 140.546,291.042 144.505,276.261 159.282,272.302 163.241,257.523 		"/>
		<polyline fill="none" stroke="#000000" stroke-width="7.3379" stroke-linecap="round" stroke-miterlimit="10" points="
			115.271,320.054 128.523,312.403 128.521,297.104 141.762,289.46 141.762,274.157 155.012,266.507 155.012,251.208 		"/>
		<polyline fill="none" stroke="#000000" stroke-width="7.3379" stroke-linecap="round" stroke-miterlimit="10" points="
			124.855,324.022 135.68,313.204 131.716,298.427 142.527,287.614 138.564,272.836 149.385,262.017 145.423,247.239 		"/>
		<polyline fill="none" stroke="#000000" stroke-width="7.3379" stroke-linecap="round" stroke-miterlimit="10" points="
			135.221,325.944 142.871,312.69 135.221,299.443 142.863,286.203 135.213,272.952 142.859,259.702 135.21,246.451 		"/>
		<polyline fill="none" stroke="#000000" stroke-width="7.3379" stroke-linecap="round" stroke-miterlimit="10" points="
			145.635,325.578 149.598,310.796 138.777,299.98 142.732,285.214 131.915,274.394 135.874,259.616 125.055,248.798 		"/>
		<polyline fill="none" stroke="#000000" stroke-width="7.3379" stroke-linecap="round" stroke-miterlimit="10" points="
			155.296,322.174 155.296,306.872 142.046,299.224 142.046,283.936 128.795,276.284 128.795,260.986 115.544,253.335 		"/>
		<polyline fill="none" stroke="#000000" stroke-width="7.3379" stroke-linecap="round" stroke-miterlimit="10" points="
			163.525,315.858 159.566,301.077 144.789,297.118 140.833,282.351 126.052,278.392 122.093,263.612 107.314,259.653 		"/>
		<polyline fill="none" stroke="#000000" stroke-width="7.3379" stroke-linecap="round" stroke-miterlimit="10" points="
			169.841,307.625 162.193,294.371 146.893,294.374 139.247,281.134 123.948,281.134 116.298,267.884 100.999,267.884 		"/>
		<polyline fill="none" stroke="#000000" stroke-width="7.3379" stroke-linecap="round" stroke-miterlimit="10" points="
			173.812,298.039 162.991,287.217 148.214,291.179 137.404,280.367 122.624,284.329 111.808,273.511 97.03,277.474 		"/>
		<polyline fill="none" stroke="#000000" stroke-width="7.3379" stroke-linecap="round" stroke-miterlimit="10" points="
			175.369,277.261 160.587,273.298 149.771,284.117 135.001,280.161 124.186,290.98 109.407,287.021 98.588,297.841 		"/>
		<polyline fill="none" stroke="#000000" stroke-width="7.3379" stroke-linecap="round" stroke-miterlimit="10" points="
			171.965,267.6 156.663,267.6 149.012,280.851 133.725,280.851 126.075,294.101 110.777,294.101 103.126,307.351 		"/>
		<polyline fill="none" stroke="#000000" stroke-width="7.3379" stroke-linecap="round" stroke-miterlimit="10" points="
			165.646,259.37 150.868,263.329 146.909,278.106 132.141,282.065 128.182,296.844 113.403,300.803 109.444,315.581 		"/>
		<polyline fill="none" stroke="#000000" stroke-width="7.3379" stroke-linecap="round" stroke-miterlimit="10" points="
			157.416,253.054 144.162,260.705 144.162,276.004 130.922,283.647 130.925,298.95 117.675,306.598 117.675,321.896 		"/>
		<polyline fill="none" stroke="#000000" stroke-width="7.3379" stroke-linecap="round" stroke-miterlimit="10" points="
			147.83,249.085 137.008,259.903 140.971,274.683 130.158,285.494 134.12,300.271 123.302,311.091 127.262,325.866 		"/>
		<polyline fill="none" stroke="#000000" stroke-width="7.3379" stroke-linecap="round" stroke-miterlimit="10" points="
			137.467,247.163 129.814,260.414 137.467,273.665 129.822,286.905 137.475,300.154 129.825,313.406 137.475,326.653 		"/>
		<polyline fill="none" stroke="#000000" stroke-width="7.3379" stroke-linecap="round" stroke-miterlimit="10" points="
			127.052,247.526 123.089,262.308 133.908,273.127 129.952,287.896 140.771,298.714 136.812,313.488 147.632,324.308 		"/>
		<polyline fill="none" stroke="#000000" stroke-width="7.3379" stroke-linecap="round" stroke-miterlimit="10" points="
			117.391,250.931 117.391,266.233 130.641,273.884 130.641,289.173 143.893,296.823 143.893,312.118 157.143,319.77 		"/>
		<polyline fill="none" stroke="#000000" stroke-width="7.3379" stroke-linecap="round" stroke-miterlimit="10" points="
			109.16,257.249 113.12,272.031 127.896,275.987 131.854,290.758 146.635,294.717 150.594,309.491 165.372,313.454 		"/>
	</g>
</g>
<g id="gear">
	<polyline fill="none" stroke="#000000" stroke-width="4.4879" stroke-linecap="round" stroke-miterlimit="10" points="
		151.121,133.35 151.121,142.709 159.229,147.389 159.229,156.738 167.332,161.416 167.332,170.772 175.436,175.451 	"/>
	<polyline fill="none" stroke="#000000" stroke-width="4.4879" stroke-linecap="round" stroke-miterlimit="10" points="
		146.089,137.215 148.512,146.256 157.55,148.677 159.969,157.707 169.01,160.128 171.432,169.166 180.471,171.59 	"/>
	<polyline fill="none" stroke="#000000" stroke-width="4.4879" stroke-linecap="round" stroke-miterlimit="10" points="
		142.227,142.251 146.904,150.354 156.266,150.354 160.938,158.452 170.295,158.45 174.975,166.555 184.334,166.555 	"/>
	<polyline fill="none" stroke="#000000" stroke-width="4.4879" stroke-linecap="round" stroke-miterlimit="10" points="
		139.798,148.114 146.414,154.73 155.455,152.31 162.066,158.919 171.105,156.496 177.721,163.111 186.759,160.691 	"/>
	<polyline fill="none" stroke="#000000" stroke-width="4.4879" stroke-linecap="round" stroke-miterlimit="10" points="
		138.624,154.449 146.729,159.129 154.832,154.449 162.928,159.125 171.032,154.445 179.137,159.125 187.241,154.445 	"/>
	<polyline fill="none" stroke="#000000" stroke-width="4.4879" stroke-linecap="round" stroke-miterlimit="10" points="
		138.848,160.821 147.889,163.245 154.502,156.626 163.533,159.047 170.15,152.429 179.189,154.851 185.807,148.232 	"/>
	<polyline fill="none" stroke="#000000" stroke-width="4.4879" stroke-linecap="round" stroke-miterlimit="10" points="
		140.93,166.73 150.289,166.73 154.967,158.625 164.314,158.625 168.995,150.521 178.352,150.521 183.031,142.416 	"/>
	<polyline fill="none" stroke="#000000" stroke-width="4.4879" stroke-linecap="round" stroke-miterlimit="10" points="
		144.791,171.763 153.832,169.343 156.253,160.302 165.285,157.882 167.706,148.843 176.745,146.421 179.166,137.382 	"/>
	<polyline fill="none" stroke="#000000" stroke-width="4.4879" stroke-linecap="round" stroke-miterlimit="10" points="
		149.827,175.625 157.934,170.947 157.932,161.59 166.027,156.915 166.027,147.556 174.133,142.877 174.133,133.52 	"/>
	<polyline fill="none" stroke="#000000" stroke-width="4.4879" stroke-linecap="round" stroke-miterlimit="10" points="
		155.689,178.054 162.309,171.437 159.885,162.399 166.497,155.786 164.074,146.748 170.689,140.13 168.268,131.093 	"/>
	<polyline fill="none" stroke="#000000" stroke-width="4.4879" stroke-linecap="round" stroke-miterlimit="10" points="
		162.027,179.229 166.707,171.122 162.027,163.021 166.703,154.923 162.023,146.818 166.7,138.715 162.021,130.61 	"/>
	<polyline fill="none" stroke="#000000" stroke-width="4.4879" stroke-linecap="round" stroke-miterlimit="10" points="
		168.396,179.005 170.82,169.964 164.204,163.35 166.623,154.318 160.007,147.7 162.427,138.661 155.811,132.045 	"/>
	<polyline fill="none" stroke="#000000" stroke-width="4.4879" stroke-linecap="round" stroke-miterlimit="10" points="
		174.307,176.923 174.307,167.564 166.202,162.887 166.202,153.536 158.098,148.856 158.098,139.501 149.993,134.821 	"/>
	<polyline fill="none" stroke="#000000" stroke-width="4.4879" stroke-linecap="round" stroke-miterlimit="10" points="
		179.34,173.06 176.918,164.021 167.88,161.599 165.461,152.567 156.42,150.145 153.999,141.106 144.961,138.686 	"/>
	<polyline fill="none" stroke="#000000" stroke-width="4.4879" stroke-linecap="round" stroke-miterlimit="10" points="
		183.202,168.025 178.523,159.918 169.166,159.92 164.49,151.823 155.134,151.823 150.455,143.719 141.098,143.719 	"/>
	<polyline fill="none" stroke="#000000" stroke-width="4.4879" stroke-linecap="round" stroke-miterlimit="10" points="
		185.632,162.161 179.014,155.542 169.975,157.968 163.363,151.354 154.323,153.776 147.708,147.159 138.671,149.584 	"/>
	<polyline fill="none" stroke="#000000" stroke-width="4.4879" stroke-linecap="round" stroke-miterlimit="10" points="
		186.805,155.826 178.702,151.144 170.598,155.824 162.498,151.148 154.396,155.828 146.293,151.15 138.189,155.83 	"/>
	<polyline fill="none" stroke="#000000" stroke-width="4.4879" stroke-linecap="round" stroke-miterlimit="10" points="
		186.582,149.452 177.542,147.029 170.93,153.646 161.895,151.228 155.277,157.845 146.24,155.424 139.624,162.041 	"/>
	<polyline fill="none" stroke="#000000" stroke-width="4.4879" stroke-linecap="round" stroke-miterlimit="10" points="
		184.501,143.544 175.143,143.544 170.463,151.649 161.113,151.649 156.436,159.753 147.078,159.753 142.398,167.856 	"/>
	<polyline fill="none" stroke="#000000" stroke-width="4.4879" stroke-linecap="round" stroke-miterlimit="10" points="
		180.637,138.513 171.598,140.933 169.177,149.971 160.145,152.393 157.725,161.431 148.686,163.851 146.264,172.891 	"/>
	<polyline fill="none" stroke="#000000" stroke-width="4.4879" stroke-linecap="round" stroke-miterlimit="10" points="
		175.604,134.648 167.497,139.328 167.497,148.685 159.398,153.359 159.4,162.719 151.297,167.396 151.297,176.753 	"/>
	<polyline fill="none" stroke="#000000" stroke-width="4.4879" stroke-linecap="round" stroke-miterlimit="10" points="
		169.74,132.221 163.122,138.837 165.545,147.876 158.934,154.49 161.355,163.528 154.738,170.145 157.16,179.182 	"/>
	<polyline fill="none" stroke="#000000" stroke-width="4.4879" stroke-linecap="round" stroke-miterlimit="10" points="
		163.4,131.046 158.723,139.15 163.4,147.255 158.727,155.353 163.406,163.455 158.729,171.561 163.406,179.663 	"/>
	<polyline fill="none" stroke="#000000" stroke-width="4.4879" stroke-linecap="round" stroke-miterlimit="10" points="
		157.032,131.268 154.609,140.309 161.227,146.926 158.807,155.958 165.423,162.575 163.003,171.611 169.618,178.228 	"/>
	<polyline fill="none" stroke="#000000" stroke-width="4.4879" stroke-linecap="round" stroke-miterlimit="10" points="
		151.123,133.35 151.123,142.709 159.229,147.389 159.229,156.738 167.332,161.418 167.332,170.772 175.436,175.451 	"/>
	<polyline fill="none" stroke="#000000" stroke-width="4.4879" stroke-linecap="round" stroke-miterlimit="10" points="
		146.09,137.215 148.512,146.256 157.55,148.675 159.969,157.709 169.01,160.13 171.432,169.166 180.469,171.59 	"/>
</g>
<circle cx="85.962" cy="90.165" r="7.028"/>
<circle cx="162.934" cy="156.575" r="7.028"/>
<circle cx="111.171" cy="207.062" r="7.028"/>
<circle cx="135.986" cy="286.197" r="7.028"/>
<text transform="matrix(1 0 0 1 64.4888 91.7046)" fill="#FFFFFF" font-family="'Helvetica'" font-size="12">+ 0.5 mi</text>
<text transform="matrix(1 0 0 1 91.8589 210.8911)" fill="#FFFFFF" font-family="'Helvetica'" font-size="12">+ 0.3 mi</text>
<text transform="matrix(1 0 0 1 115.5439 291.8262)" fill="#FF0000" font-family="'Helvetica'" font-size="12">- 0.7 mi</text>
</svg>
