<?xml-stylesheet type="text/css" href="style.css"?>
<!-- Generator: Adobe Illustrator 16.0.0, SVG Export Plug-In . SVG Version: 6.00 Build 0)  -->
<!DOCTYPE svg PUBLIC "-//W3C//DTD SVG 1.1//EN" "http://www.w3.org/Graphics/SVG/1.1/DTD/svg11.dtd">
<svg class="animate" version="1.1" id="Layer_1" xmlns="http://www.w3.org/2000/svg" xmlns:xlink="http://www.w3.org/1999/xlink" x="0px" y="0px"
	 width="76.333px" height="76.32px" viewBox="0 0 76.333 76.32" enable-background="new 0 0 76.333 76.32" xml:space="preserve">
<path fill="none" stroke="#000000" stroke-width="4" stroke-linecap="round" stroke-miterlimit="10" d="M38.921,40.341
	c0.344-0.012,0.259,1.657,0.219,1.919c-0.2,1.289-1.263,2.385-2.411,2.917c-2.188,1.014-4.915,0.261-6.5-1.488
	c-3.023-3.337-1.729-8.897,1.797-11.305c3.947-2.696,9.357-1.793,12.563,1.605c3.38,3.583,3.812,8.854,1.632,13.182
	c-2.258,4.48-7.031,7.112-12.004,6.974c-5.249-0.146-10.013-3.201-12.449-7.829c-4.889-9.28,0.744-20.702,10.626-23.44
	c8.616-2.388,18.054,2.163,21.845,10.184c3.946,8.352,1.433,18.657-5.54,24.598c-7.783,6.632-19.453,6.553-27.606,0.629
	c-8.198-5.957-11.624-16.858-8.663-26.496c2.82-9.186,10.902-16.268,20.384-17.841c10.046-1.667,20.67,2.761,26.631,11.003
	c6.733,9.311,7.098,22.214,1.108,32.004C54.773,66.4,44.109,71.807,33.1,71.3c-10.608-0.488-20.263-6.355-25.696-15.454
	c-5.421-9.078-6.141-20.345-1.976-30.059C9.67,15.895,18.515,8.52,28.953,5.973c10.092-2.463,20.92-0.234,29.334,5.819
	c9.236,6.646,14.502,17.155,15.169,28.428"/>
</svg>
