<?xml version="1.0" encoding="utf-8"?>
<!-- Generator: Adobe Illustrator 16.0.0, SVG Export Plug-In . SVG Version: 6.00 Build 0)  -->
<!DOCTYPE svg PUBLIC "-//W3C//DTD SVG 1.1//EN" "http://www.w3.org/Graphics/SVG/1.1/DTD/svg11.dtd">
<svg version="1.1" id="Layer_1" xmlns="http://www.w3.org/2000/svg" xmlns:xlink="http://www.w3.org/1999/xlink" x="0px" y="0px"
	 width="155.068px" height="147.145px" viewBox="0 0 155.068 147.145" enable-background="new 0 0 155.068 147.145"
	 xml:space="preserve">
<g>
	<path d="M106.105,85.73L92.93,78.123l-13.178,7.608c-1.311,0.759-2.925,0.758-4.235,0.001l-13.165-7.601L49.178,85.74
		c-0.655,0.379-1.387,0.568-2.118,0.568s-1.462-0.188-2.117-0.566l-1.855-1.071v7.786l5.666,3.271l13.741-7.935l5.503,3.176
		c2.026,1.169,2.72,3.759,1.551,5.785c-1.168,2.023-3.76,2.719-5.784,1.551l-1.27-0.731l-5.271,3.044l20.572,11.877l20.569-11.874
		l-5.292-3.055l-1.271,0.732c-2.024,1.165-4.615,0.474-5.783-1.554c-1.168-2.025-0.474-4.615,1.554-5.784l5.503-3.174l13.762,7.944
		l5.67-3.273v-7.979l-2.166,1.251C109.03,86.489,107.415,86.489,106.105,85.73z M83.282,103.22l-5.504,3.176l-5.501-3.176
		c-2.026-1.17-2.72-3.76-1.55-5.785c1.169-2.025,3.759-2.72,5.785-1.551l1.268,0.732l1.268-0.732
		c2.025-1.169,4.616-0.475,5.785,1.551C86.002,99.461,85.308,102.051,83.282,103.22z"/>
	<path d="M106.263,66.479L93.09,58.87L79.912,66.48c-1.311,0.757-2.925,0.757-4.236,0L62.51,58.878l-13.177,7.609
		c-0.654,0.379-1.386,0.567-2.117,0.567c-0.73,0-1.462-0.188-2.116-0.567l-2.013-1.162v9.565l3.972,2.292l13.177-7.608
		c1.311-0.758,2.925-0.757,4.235,0l13.163,7.6l13.178-7.61c1.311-0.757,2.926-0.757,4.235,0l13.176,7.608l4.283-2.474v-9.379
		l-2.008,1.16C109.188,67.236,107.573,67.236,106.263,66.479z"/>
	<path d="M75.675,47.016l-11.651-6.727L43.088,52.378v3.169l4.128,2.383l13.178-7.61c1.311-0.757,2.925-0.757,4.235,0l13.165,7.604
		l13.179-7.61c1.311-0.757,2.926-0.757,4.235,0l13.173,7.608l4.126-2.383v-3.161l-20.94-12.09L79.91,47.016
		C78.601,47.773,76.986,47.773,75.675,47.016z"/>
	<polygon points="72.492,35.399 77.794,38.46 83.098,35.398 77.797,32.336 	"/>
</g>
</svg>
