<?xml version="1.0" encoding="utf-8"?>
<!-- Generator: Adobe Illustrator 16.0.0, SVG Export Plug-In . SVG Version: 6.00 Build 0)  -->
<!DOCTYPE svg PUBLIC "-//W3C//DTD SVG 1.1//EN" "http://www.w3.org/Graphics/SVG/1.1/DTD/svg11.dtd">
<svg version="1.1" id="Layer_1" xmlns="http://www.w3.org/2000/svg" xmlns:xlink="http://www.w3.org/1999/xlink" x="0px" y="0px"
	 width="155.068px" height="147.145px" viewBox="0 0 155.068 147.145" enable-background="new 0 0 155.068 147.145"
	 xml:space="preserve">
<a xlink:href="https://yeemachine.github.io/teslatimeline/" >
	
		<polyline fill="none" stroke="#000000" stroke-width="8.4699" stroke-linecap="round" stroke-linejoin="round" stroke-miterlimit="10" points="
		31.92,34.527 47.217,43.358 62.51,34.525 77.793,43.349 93.09,34.517 108.381,43.347 123.677,34.516 	"/>
</a>
<a xlink:href="http://yeemachine.github.io/WatsonXWayback/" >
	
		<polyline fill="none" stroke="#000000" stroke-width="8.4699" stroke-linecap="round" stroke-linejoin="round" stroke-miterlimit="10" points="
		31.92,53.99 47.217,62.821 62.511,53.988 77.794,62.813 93.09,53.98 108.381,62.811 123.677,53.977 	"/>
</a>
<a xlink:href="http://yeemachine.com/sound" >
	
		<polyline fill="none" stroke="#000000" stroke-width="8.4699" stroke-linecap="round" stroke-linejoin="round" stroke-miterlimit="10" points="
		31.761,73.242 47.06,82.073 62.354,73.242 77.636,82.066 92.931,73.233 108.224,82.064 123.518,73.233 	"/>
</a>
<a xlink:href="https://vimeo.com/user44076957" >
	<polyline fill="none" stroke="#000000" stroke-width="8.4699" stroke-linecap="round" stroke-miterlimit="10" points="
		31.904,92.683 47.2,101.516 62.496,92.683 65.882,94.637 	"/>
</a>
<a xlink:href="http://yeemachine.com" >
	<polyline fill="none" stroke="#000000" stroke-width="8.4699" stroke-linecap="round" stroke-miterlimit="10" points="
		74.393,99.552 77.778,101.506 81.164,99.552 	"/>
</a>
<polyline fill="none" stroke="#000000" stroke-width="8.4699" stroke-linecap="round" stroke-miterlimit="10" points="
	89.687,94.629 93.074,92.676 93.074,92.676 93.074,92.676 108.365,101.503 123.661,92.673 "/>
<g opacity="0.5">
	<path d="M77.797,32.073l34.858,20.127V92.45l-34.858,20.122L42.94,92.45V52.199L77.797,32.073 M77.797,17.228
		c-2.563,0-5.126,0.663-7.423,1.989L35.517,39.344c-4.592,2.652-7.421,7.552-7.421,12.855V92.45c0,5.304,2.83,10.204,7.423,12.855
		l34.857,20.122c2.296,1.326,4.859,1.988,7.421,1.988c2.563,0,5.125-0.662,7.421-1.988l34.857-20.122
		c4.594-2.651,7.423-7.552,7.423-12.855V52.199c0-5.303-2.829-10.204-7.421-12.855L85.219,19.218
		C82.924,17.891,80.36,17.228,77.797,17.228L77.797,17.228z"/>
</g>
</svg>
