<?xml-stylesheet type="text/css" href="style.css"?>
<!-- Generator: Adobe Illustrator 16.0.0, SVG Export Plug-In . SVG Version: 6.00 Build 0)  -->
<!DOCTYPE svg PUBLIC "-//W3C//DTD SVG 1.1//EN" "http://www.w3.org/Graphics/SVG/1.1/DTD/svg11.dtd">
<svg class="animate" version="1.1" id="Layer_1" xmlns="http://www.w3.org/2000/svg" xmlns:xlink="http://www.w3.org/1999/xlink" x="0px" y="0px"
	 width="155.068px" height="147.145px" viewBox="318.688 233.418 155.068 147.145"
	 enable-background="new 318.688 233.418 155.068 147.145" xml:space="preserve">
<polyline fill="none" stroke="#000000" stroke-width="13" stroke-linecap="round" stroke-linejoin="round" stroke-miterlimit="10" points="
	325.318,329.47 348.797,343.024 372.271,329.47 395.727,343.012 419.201,329.456 442.676,343.009 466.15,329.454 "/>
<polyline fill="none" stroke="#000000" stroke-width="13" stroke-linecap="round" stroke-linejoin="round" stroke-miterlimit="10" points="
	326.094,299.922 349.572,313.477 373.047,299.921 396.504,313.464 419.979,299.909 443.451,313.462 466.928,299.906 "/>
<polyline fill="none" stroke="#000000" stroke-width="13" stroke-linecap="round" stroke-linejoin="round" stroke-miterlimit="10" points="
	326.197,270.051 349.676,283.605 373.15,270.05 396.605,283.592 420.082,270.037 443.555,283.589 467.029,270.034 "/>
<polyline fill="none" stroke="#000000" stroke-width="13" stroke-linecap="round" stroke-linejoin="round" stroke-miterlimit="10" points="
	326.271,240.096 349.748,253.65 373.225,240.095 396.68,253.637 420.154,240.082 443.627,253.634 467.104,240.079 "/>

<polyline fill="none" stroke="#000000" stroke-width="13" stroke-linecap="round" stroke-miterlimit="10" points="325.529,359.279
	349.006,372.834 372.482,359.278 377.678,362.278 "/>
<polyline class="animateheart" fill="none" stroke="#000000" stroke-width="13" stroke-linecap="round" stroke-miterlimit="10" points="390.742,369.821
	395.938,372.821 401.135,369.821 "/>
<polyline fill="none" stroke="#000000" stroke-width="13" stroke-linecap="round" stroke-miterlimit="10" points="414.217,362.267
	419.414,359.267 419.414,359.267 419.414,359.267 442.885,372.817 466.361,359.263 "/>
</svg>
