<?xml version="1.0" encoding="utf-8"?>
<!-- Generator: Adobe Illustrator 16.0.0, SVG Export Plug-In . SVG Version: 6.00 Build 0)  -->
<!DOCTYPE svg PUBLIC "-//W3C//DTD SVG 1.1//EN" "http://www.w3.org/Graphics/SVG/1.1/DTD/svg11.dtd">
<svg version="1.1" id="Layer_1" xmlns="http://www.w3.org/2000/svg" xmlns:xlink="http://www.w3.org/1999/xlink" x="0px" y="0px"
	 width="155.068px" height="147.145px" viewBox="0 0 155.068 147.145" enable-background="new 0 0 155.068 147.145"
	 xml:space="preserve">
<g>
	<polygon fill="#FFFFFF" points="77.797,127.839 29.799,100.13 29.799,44.705 77.797,16.99 125.797,44.705 125.797,100.13 	"/>
</g>
<g>
	<g id="link1">
		<path d="M47.217,47.593c-0.731,0-1.462-0.189-2.117-0.567l-15.297-8.831c-2.026-1.169-2.72-3.759-1.55-5.785
			c1.169-2.026,3.76-2.719,5.785-1.55l13.179,7.608l13.175-7.61c1.311-0.758,2.925-0.757,4.236,0l13.166,7.602l13.18-7.609
			c1.309-0.757,2.925-0.757,4.235,0l13.173,7.607l13.179-7.608c2.024-1.169,4.614-0.476,5.785,1.55
			c1.169,2.026,0.475,4.616-1.551,5.785l-15.296,8.831c-1.311,0.757-2.925,0.757-4.235,0L93.09,39.407l-13.18,7.609
			c-1.309,0.757-2.924,0.757-4.235,0L62.51,39.415l-13.175,7.61C48.679,47.404,47.948,47.593,47.217,47.593z"/>
	</g>
	<g id="link2">
		<path d="M47.217,67.055c-0.731,0-1.462-0.189-2.117-0.567l-15.297-8.83c-2.025-1.169-2.72-3.76-1.551-5.785
			c1.17-2.025,3.759-2.719,5.785-1.551l13.179,7.608l13.177-7.61c1.311-0.757,2.925-0.757,4.236,0l13.165,7.603l13.178-7.61
			c1.311-0.757,2.926-0.757,4.236,0l13.173,7.608l13.178-7.611c2.024-1.17,4.616-0.476,5.785,1.549
			c1.17,2.025,0.477,4.616-1.549,5.786l-15.296,8.834c-1.311,0.757-2.926,0.757-4.236,0L93.09,58.87l-13.178,7.61
			c-1.311,0.757-2.925,0.757-4.236,0l-13.165-7.602l-13.177,7.61C48.679,66.866,47.948,67.055,47.217,67.055z"/>
	</g>
	<g id="link3">
		<path d="M47.06,86.309c-0.731,0-1.462-0.189-2.117-0.567L29.644,76.91c-2.025-1.17-2.72-3.759-1.551-5.785
			c1.169-2.025,3.758-2.719,5.785-1.551l13.181,7.609l13.177-7.609c1.311-0.757,2.925-0.756,4.235,0l13.164,7.6l13.177-7.61
			c1.311-0.757,2.926-0.757,4.236,0l13.175,7.608l13.176-7.608c2.025-1.17,4.616-0.475,5.785,1.55
			c1.17,2.025,0.477,4.616-1.55,5.785l-15.293,8.831c-1.311,0.758-2.926,0.758-4.236,0l-13.175-7.607l-13.177,7.609
			c-1.311,0.758-2.925,0.757-4.236,0.001l-13.165-7.601L49.178,85.74C48.523,86.119,47.792,86.309,47.06,86.309z"/>
	</g>
	<g id="link4">
		<path d="M47.2,106.406L29.786,96.35c-2.025-1.169-2.719-3.76-1.55-5.785c1.17-2.025,3.761-2.721,5.785-1.549L47.2,96.625
			l15.295-8.832l5.503,3.176c2.026,1.169,2.72,3.759,1.551,5.785c-1.168,2.024-3.76,2.719-5.785,1.551l-1.269-0.732L47.2,106.406z"
			/>
	</g>
	<g id="heart">
		<path d="M77.778,106.396l-5.501-3.176c-2.026-1.17-2.72-3.76-1.55-5.785c1.169-2.026,3.759-2.72,5.785-1.551l1.268,0.732
			l1.268-0.732c2.025-1.169,4.616-0.475,5.785,1.551c1.169,2.026,0.475,4.616-1.551,5.785L77.778,106.396z"/>
	</g>
	<g id="link6">
		<path d="M108.365,106.393l-15.292-8.827l-1.271,0.732c-2.025,1.165-4.616,0.474-5.784-1.554c-1.168-2.025-0.473-4.615,1.554-5.784
			l5.503-3.174l15.29,8.827l13.179-7.608c2.025-1.168,4.615-0.474,5.785,1.551c1.169,2.025,0.475,4.615-1.551,5.785L108.365,106.393
			z"/>
	</g>
	<g id="link7">
		<path d="M77.797,141.128c-2.294,0-4.588-0.593-6.644-1.779L23.154,111.64c-4.112-2.374-6.645-6.762-6.645-11.51V44.705
			c0-4.748,2.533-9.135,6.644-11.509L71.151,5.482c4.112-2.375,9.178-2.375,13.291,0l48,27.715
			c4.111,2.374,6.644,6.761,6.644,11.509v55.425c0,4.748-2.533,9.136-6.645,11.51l-48,27.709
			C82.385,140.535,80.091,141.128,77.797,141.128z M43.088,92.457l34.708,20.037l34.711-20.037v-40.08L77.797,32.336L43.088,52.378
			V92.457z"/>
	</g>
</g>
</svg>
