<?xml version="1.0" encoding="utf-8"?>
<!-- Generator: Adobe Illustrator 16.0.0, SVG Export Plug-In . SVG Version: 6.00 Build 0)  -->
<!DOCTYPE svg PUBLIC "-//W3C//DTD SVG 1.1//EN" "http://www.w3.org/Graphics/SVG/1.1/DTD/svg11.dtd">
<svg version="1.1" id="Layer_1" xmlns="http://www.w3.org/2000/svg" xmlns:xlink="http://www.w3.org/1999/xlink" x="0px" y="0px"
	 width="288px" height="288px" viewBox="0 0 288 288" enable-background="new 0 0 288 288" xml:space="preserve">
<path fill="none" stroke="#000000" stroke-width="18.5524" stroke-linecap="round" stroke-miterlimit="10" d="M164.02,32.442h59.843
	c13.1,0,23.712,7.116,23.712,15.917c0,8.794-10.612,15.9-23.712,15.9h-44.977h5.14c-13.085,0-23.73,7.125-23.73,15.918
	s10.646,15.918,23.73,15.918h39.837c13.1,0,23.712,7.115,23.712,15.909c0,8.803-10.612,15.91-23.712,15.91
	c0,0-32.363,0-32.363,0.007c-10.273,0-21.721,0.127-30.981,3.5c-9.19,3.358-12.849,10.001-17.928,15.697
	c-6.667,7.479-15.69,10.296-28.311,11.756c-5.709,0.665-11.524,0.874-17.312,0.874H64.484c-13.091,0-23.713,7.115-23.713,15.912
	c0,8.791,10.623,15.908,23.713,15.908h39.847c13.079,0,23.725,7.12,23.725,15.918c0,8.796-10.646,15.917-23.725,15.917h5.145H64.484
	c-13.091,0-23.713,7.11-23.713,15.902c0,8.801,10.623,15.918,23.713,15.918h59.853"/>
<path fill="none" stroke="#000000" stroke-width="18.5524" stroke-linecap="round" stroke-miterlimit="10" d="M124.337,32.442
	H64.484c-13.091,0-23.713,7.116-23.713,15.917c0,8.794,10.623,15.9,23.713,15.9h44.991h-5.145c13.079,0,23.725,7.125,23.725,15.918
	s-10.646,15.918-23.725,15.918H64.484c-13.091,0-23.713,7.115-23.713,15.909c0,8.803,10.623,15.91,23.713,15.91
	c0,0,32.366,0,32.366,0.007c10.269,0,21.727,0.127,30.983,3.5c9.19,3.358,12.859,10.001,17.943,15.697
	c6.65,7.479,15.686,10.296,28.299,11.756c5.71,0.665,11.526,0.874,17.312,0.874h32.475c13.1,0,23.712,7.115,23.712,15.912
	c0,8.791-10.612,15.908-23.712,15.908h-39.837c-13.085,0-23.73,7.12-23.73,15.918c0,8.796,10.646,15.917,23.73,15.917h-5.14h44.977
	c13.1,0,23.712,7.11,23.712,15.902c0,8.801-10.612,15.918-23.712,15.918H164.02"/>
</svg>
