<?xml version="1.0" encoding="utf-8"?>
<!-- Generator: Adobe Illustrator 16.0.0, SVG Export Plug-In . SVG Version: 6.00 Build 0)  -->
<!DOCTYPE svg PUBLIC "-//W3C//DTD SVG 1.1//EN" "http://www.w3.org/Graphics/SVG/1.1/DTD/svg11.dtd">
<svg version="1.1" id="Layer_1" xmlns="http://www.w3.org/2000/svg" xmlns:xlink="http://www.w3.org/1999/xlink" x="0px" y="0px"
	 width="155.068px" height="147.145px" viewBox="0 0 155.068 147.145" enable-background="new 0 0 155.068 147.145"
	 xml:space="preserve">
<g id="shadow">
	<polygon id="move1" fill="#FFFFFF" points="72.493,35.399 77.793,38.459 83.095,35.396 77.797,32.336 	"/>
	<path id="move2" fill="#FFFFFF" d="M75.675,47.016l-11.649-6.728l-20.938,12.09v3.17l4.128,2.383l13.179-7.609
		c1.311-0.758,2.925-0.758,4.234,0l13.165,7.604l13.18-7.61c1.311-0.757,2.926-0.757,4.234,0l13.173,7.608l4.127-2.384V52.38
		L91.566,40.286L79.91,47.016C78.601,47.773,76.986,47.773,75.675,47.016z"/>
	<path id="move3" fill="#FFFFFF" d="M106.261,66.478L93.09,58.87L79.912,66.48c-1.311,0.758-2.925,0.758-4.236,0L62.51,58.878
		l-13.177,7.609c-0.654,0.379-1.386,0.566-2.118,0.566c-0.729,0-1.462-0.188-2.115-0.566l-2.013-1.16v9.562l3.974,2.293
		l13.177-7.607c1.311-0.759,2.925-0.758,4.235,0l13.162,7.6l13.179-7.61c1.311-0.757,2.926-0.757,4.234,0l13.177,7.608l4.281-2.474
		v-9.383l-2.009,1.16C109.188,67.235,107.573,67.235,106.261,66.478z"/>
	<path id="move4" fill="#FFFFFF" d="M106.106,85.731l-13.175-7.605l-13.179,7.607c-1.311,0.76-2.925,0.759-4.234,0.001
		l-13.165-7.601L49.177,85.74c-0.654,0.379-1.387,0.566-2.117,0.566c-0.731,0-1.462-0.188-2.117-0.565l-1.855-1.07v7.786
		l5.666,3.271l13.742-7.936l14.016,8.092c0,0,0.001,0.001,0.003,0.001l1.265,0.731l15.296-8.83l13.763,7.942l5.671-3.271V84.48
		l-2.165,1.25C109.032,86.49,107.417,86.49,106.106,85.731z"/>
	<polygon id="move5" fill="#FFFFFF" points="83.285,103.217 83.281,103.22 81.153,104.448 79.895,105.174 79.892,105.175 
		77.778,106.396 72.278,103.221 72.276,103.22 62.496,97.573 57.224,100.617 77.797,112.494 98.366,100.62 93.074,97.566 	"/>
</g>
<g id="logo">
	<polygon fill="#FFFFFF" points="77.797,127.839 29.799,100.13 29.799,44.705 77.797,16.99 125.797,44.705 125.797,100.13 	"/>
	<a>
		
			<polyline id="link1" fill="none" stroke="#000000" stroke-width="8.4699" stroke-linecap="round" stroke-linejoin="round" stroke-miterlimit="10" points="
			38.732,38.459 47.217,43.358 62.51,34.525 77.793,43.349 93.09,34.517 108.381,43.347 116.845,38.459 		"/>
	</a>
	<a>
		
			<polyline id="link2" fill="none" stroke="#000000" stroke-width="8.4699" stroke-linecap="round" stroke-linejoin="round" stroke-miterlimit="10" points="
			31.92,53.99 47.217,62.822 62.51,53.989 77.794,62.813 93.09,53.98 108.381,62.811 123.677,53.977 		"/>
	</a>
	<a>
		
			<polyline id="link3" fill="none" stroke="#000000" stroke-width="8.4699" stroke-linecap="round" stroke-linejoin="round" stroke-miterlimit="10" points="
			31.76,73.242 47.06,82.073 62.354,73.242 77.635,82.066 92.931,73.233 108.224,82.064 123.518,73.233 		"/>
	</a>
	<a>
		<polyline id="link4" fill="none" stroke="#000000" stroke-width="8.4699" stroke-linecap="round" stroke-miterlimit="10" points="
			31.904,92.683 47.2,101.516 62.496,92.683 65.882,94.637 		"/>
	</a>
	<a>
		<polyline id="link6" fill="none" stroke="#000000" stroke-width="8.4699" stroke-linecap="round" stroke-miterlimit="10" points="
			89.687,94.629 93.074,92.676 93.074,92.676 93.074,92.676 108.365,101.503 123.661,92.673 		"/>
	</a>
	<a>
		
			<polygon id="link7" fill="none" stroke="#000000" stroke-width="26.579" stroke-linecap="round" stroke-linejoin="round" stroke-miterlimit="10" points="
			77.797,127.839 29.799,100.13 29.799,44.705 77.797,16.99 125.797,44.705 125.797,100.13 		"/>
	</a>
</g>
<a>
	<polyline id="link5" fill="none" stroke="#000000" stroke-width="8.4699" stroke-linecap="round" stroke-miterlimit="10" points="
		74.393,99.552 77.778,101.506 81.164,99.552 	"/>
</a>
<g id="ways">
	<rect x="62.004" y="32.582" fill="none" width="15" height="12.833"/>
	<text transform="matrix(1 0 0 1 62.0002 34.8005)" fill="#FFFFFF" font-family="'ITCAvantGardeStd-Bk'" font-size="3">1</text>
	<rect x="118.48" y="58.538" fill="none" width="15" height="12.833"/>
	<text transform="matrix(1 0 0 1 118.4783 60.7576)" fill="#FFFFFF" font-family="'ITCAvantGardeStd-Bk'" font-size="3">2</text>
	<rect x="35.29" y="78.535" fill="none" width="15" height="12.834"/>
	<text transform="matrix(1 0 0 1 35.2864 80.7561)" fill="#FFFFFF" font-family="'ITCAvantGardeStd-Bk'" font-size="3">3</text>
	<rect x="46.655" y="102.931" fill="none" width="15" height="12.834"/>
	<text transform="matrix(1 0 0 1 46.6506 105.1477)" fill="#FFFFFF" font-family="'ITCAvantGardeStd-Bk'" font-size="3">4</text>
	<rect x="93.719" y="102.84" fill="none" width="15" height="12.834"/>
	<text transform="matrix(1 0 0 1 106.9861 105.0569)" fill="#FFFFFF" font-family="'ITCAvantGardeStd-Bk'" font-size="3">5</text>
	<rect x="63.552" y="118.308" fill="none" width="15.001" height="12.834"/>
	<text transform="matrix(1 0 0 1 76.823 120.5217)" fill="#FFFFFF" font-family="'ITCAvantGardeStd-Bk'" font-size="3">6</text>
</g>
</svg>
