<?xml version="1.0" standalone="no"?>
<!DOCTYPE svg PUBLIC "-//W3C//DTD SVG 20010904//EN"
 "http://www.w3.org/TR/2001/REC-SVG-20010904/DTD/svg10.dtd">
<svg version="1.0" xmlns="http://www.w3.org/2000/svg"
 width="360.000000pt" height="360.000000pt" viewBox="0 0 360.000000 360.000000"
 preserveAspectRatio="xMidYMid meet">
<metadata>
Created by potrace 1.11, written by Peter Selinger 2001-2013
</metadata>
<g transform="translate(0.000000,360.000000) scale(0.100000,-0.100000)"
fill="#000000" stroke="none">
<path d="M39 3152 l-36 -3 0 -270 c0 -239 2 -269 16 -269 54 -1 172 -9 206
-15 84 -14 177 -64 239 -130 36 -37 116 -161 116 -178 0 -7 4 -17 9 -22 10
-11 119 -227 169 -335 39 -83 154 -330 249 -535 l75 -160 0 -107 c-1 -245 -38
-290 -243 -291 l-86 0 1 -277 0 -276 225 3 c315 3 1252 3 1513 0 l216 -3 4 26
c4 24 3 451 -1 506 -1 20 -7 21 -83 22 -100 0 -157 14 -198 48 -63 54 -73 102
-73 354 0 161 -2 178 -22 215 -12 22 -46 85 -75 140 -29 55 -65 123 -80 150
-15 28 -48 88 -72 135 -25 47 -64 120 -87 162 -168 315 -195 418 -131 508 31
44 56 55 130 59 l25 1 0 270 0 270 -25 0 c-14 1 -124 0 -245 -1 -505 -4 -1352
-4 -1520 1 -99 3 -196 4 -216 2z"/>
<path d="M3420 3150 c-91 -3 -379 -4 -640 -3 l-475 2 0 -269 c0 -173 4 -270
10 -271 5 -1 18 -1 27 0 23 3 68 -22 95 -51 70 -75 72 -273 4 -407 -11 -21
-36 -59 -55 -85 -20 -25 -36 -50 -36 -54 0 -4 33 -65 73 -137 39 -71 86 -156
102 -188 20 -39 33 -54 38 -45 4 7 39 69 78 138 66 116 138 230 250 397 25 37
69 104 97 148 136 212 271 278 580 284 l32 1 0 269 c0 149 -3 271 -7 273 -5 2
-82 1 -173 -2z"/>
</g>
</svg>
