<?xml version="1.0" encoding="utf-8"?>
<!-- Generator: Adobe Illustrator 16.0.0, SVG Export Plug-In . SVG Version: 6.00 Build 0)  -->
<!DOCTYPE svg PUBLIC "-//W3C//DTD SVG 1.1//EN" "http://www.w3.org/Graphics/SVG/1.1/DTD/svg11.dtd">
<svg version="1.1" id="Layer_1" xmlns="http://www.w3.org/2000/svg" xmlns:xlink="http://www.w3.org/1999/xlink" x="0px" y="0px"
	 width="288px" height="576px" viewBox="0 0 288 576" enable-background="new 0 0 288 576" xml:space="preserve">
<g id="_x31_0_38_">
	<path id="one_110_" fill="none" stroke="#000000" stroke-width="19.7005" stroke-linecap="round" stroke-miterlimit="10" d="
		M122.119,79.901c-25.972-5.975-70.576-2.806-75.505,23.989c-3.649,20.167,22.898,36.045,46.8,30.124
		c25.633-6.393,39.013-23.391,58.797-36.409c18.311-12.111,41.51-22.473,66.031-19.528c22.685,2.711,34.295,21.192,23.156,36.143
		c-11.76,15.792-35.15,11.042-51.774,13.807c-12.87,2.134-28.77,8.74-37.946,18.12c-6.252,6.338-10.114,17.094-9.88,26.015
		c0.938,38.171-38.18,36.174-40.977,36.217c-13.468-0.234-28.511-1.387-40.955,4.716c-10.075,4.951-15.75,14.982-12.953,26.177
		c3.413,13.53,16.239,23.188,29.472,25.79c10.353,2.05,21.812,0.354,31.138-4.396c17.073-8.666,30.262-22.889,46.247-33.089
		c19.122-12.188,41.401-21.205,64.473-18.419c22.685,2.71,32.481,19.976,23.156,36.122c-11.738,20.54-46.868,23.197-68.784,11.557"
		/>
	
		<line id="two_101_" fill="none" stroke="#000000" stroke-width="19.7005" stroke-linecap="round" stroke-miterlimit="10" x1="46.272" y1="172.161" x2="244.875" y2="172.161"/>
</g>
<g id="_x33__6_">
	<path id="two_107_" fill="none" stroke="#000000" stroke-width="19.7532" stroke-linecap="round" stroke-miterlimit="10" d="
		M121.998,389.151c-26.021-6.002-70.744-2.804-75.687,24.052c-3.681,20.243,22.96,36.164,46.905,30.215
		c25.701-6.388,39.117-23.442,58.955-36.496c18.38-12.143,41.641-22.533,66.229-19.58c22.746,2.719,32.547,20.039,23.196,36.239
		c-11.771,20.585-47.014,23.239-68.947,11.587"/>
	
		<line id="one_116_" fill="none" stroke="#000000" stroke-width="19.7532" stroke-linecap="round" stroke-miterlimit="10" x1="45.968" y1="348.043" x2="245.104" y2="348.043"/>
	
		<line id="three_52_" fill="none" stroke="#000000" stroke-width="19.7532" stroke-linecap="round" stroke-miterlimit="10" x1="45.968" y1="480.128" x2="245.104" y2="480.128"/>
</g>
</svg>
