<?xml version="1.0" encoding="utf-8"?>
<!-- Generator: Adobe Illustrator 16.0.0, SVG Export Plug-In . SVG Version: 6.00 Build 0)  -->
<!DOCTYPE svg PUBLIC "-//W3C//DTD SVG 1.1//EN" "http://www.w3.org/Graphics/SVG/1.1/DTD/svg11.dtd">
<svg version="1.1" id="Layer_1" xmlns="http://www.w3.org/2000/svg" xmlns:xlink="http://www.w3.org/1999/xlink" x="0px" y="0px"
	 width="288px" height="576px" viewBox="0 0 288 576" enable-background="new 0 0 288 576" xml:space="preserve">
<g id="_x31_0_38_">
	<path id="one_110_" fill="none" stroke="#000000" stroke-width="19.7005" stroke-linecap="round" stroke-miterlimit="10" d="
		M122.119,79.901c-25.972-5.975-70.576-2.806-75.505,23.989c-3.649,20.167,22.898,36.045,46.8,30.124
		c25.633-6.393,39.013-23.391,58.797-36.409c18.311-12.111,41.51-22.473,66.031-19.528c22.685,2.711,34.295,21.192,23.156,36.143
		c-11.76,15.792-35.15,11.042-51.774,13.807c-12.87,2.134-28.77,8.74-37.946,18.12c-6.252,6.338-10.114,17.094-9.88,26.015
		c0.938,38.171-38.18,36.174-40.977,36.217c-13.468-0.234-28.511-1.387-40.955,4.716c-10.075,4.951-15.75,14.982-12.953,26.177
		c3.413,13.53,16.239,23.188,29.472,25.79c10.353,2.05,21.812,0.354,31.138-4.396c17.073-8.666,30.262-22.889,46.247-33.089
		c19.122-12.188,41.401-21.205,64.473-18.419c22.685,2.71,32.481,19.976,23.156,36.122c-11.738,20.54-46.868,23.197-68.784,11.557"
		/>
	
		<line id="two_101_" fill="none" stroke="#000000" stroke-width="19.7005" stroke-linecap="round" stroke-miterlimit="10" x1="46.272" y1="172.161" x2="244.875" y2="172.161"/>
</g>
<g id="_x39__6_">
	<path id="two_89_" fill="none" stroke="#000000" stroke-width="19.4177" stroke-linecap="round" stroke-miterlimit="10" d="
		M79.055,510.559c5.123-43.472,10.963-87.02,21.82-129.723c5.904-23.189,16.677-48.923,43.559-58.632
		c8.222-2.982,24.498-4.869,32.804-1.484c30.864,12.512,21.926,50.852,10.562,71.817c-13.662,25.214-42.419,51.136-40.837,80.948
		c0.716,13.659,9.106,30.401,23.971,32.257c19.354,2.445,32.636-23.551,18.953-37.729c-3.438-3.563-5.756-6.062-10.541-7.443"/>
	<path id="three_45_" fill="none" stroke="#000000" stroke-width="18.3992" stroke-linecap="round" stroke-miterlimit="10" d="
		M190.35,462.605c0-8.213,0.782-17.456,6.451-23.876c6.685-7.643,19.671-6.873,25.385,1.653
		c13.134,19.661-12.165,61.858,22.242,66.37"/>
	<path id="one_98_" fill="none" stroke="#000000" stroke-width="17.9974" stroke-linecap="round" stroke-miterlimit="10" d="
		M45.891,510.559c4.871-41.598,10.415-83.267,20.789-124.125c5.607-22.19,15.874-46.803,41.448-56.112
		c7.822-2.825,23.316-4.638,31.265-1.391c29.348,11.963,35.989,47.373,16.213,54.276c-9.552,3.333-24.667-5.163-16.276-22.39"/>
	<path id="four_27_" fill="none" stroke="#000000" stroke-width="18.3992" stroke-linecap="round" stroke-miterlimit="10" d="
		M129.842,406.726c-10.352,42.725-10.625,60.361-15.494,103.833"/>
</g>
</svg>
