<?xml version="1.0" encoding="utf-8"?>
<!-- Generator: Adobe Illustrator 16.0.0, SVG Export Plug-In . SVG Version: 6.00 Build 0)  -->
<!DOCTYPE svg PUBLIC "-//W3C//DTD SVG 1.1//EN" "http://www.w3.org/Graphics/SVG/1.1/DTD/svg11.dtd">
<svg version="1.1" id="Layer_1" xmlns="http://www.w3.org/2000/svg" xmlns:xlink="http://www.w3.org/1999/xlink" x="0px" y="0px"
	 width="288px" height="288px" viewBox="0 0 288 288" enable-background="new 0 0 288 288" xml:space="preserve">
<g id="_x34__7_">
	<path id="two_93_" fill="none" stroke="#000000" stroke-width="19.189" stroke-linecap="round" stroke-miterlimit="10" d="
		M129.087,70.975v121.638c0,14.042-9.375,25.413-20.891,25.413h-52.24c-8.959,0-16.255-8.347-16.255-18.584
		c0-10.27,7.296-18.615,16.255-18.615h0.978H89.34h-2.619c8.98,0,16.256-8.327,16.256-18.584c0-10.27-7.276-18.595-16.256-18.595
		h2.619H44.605"/>
	<path id="one_102_" fill="none" stroke="#000000" stroke-width="19.189" stroke-linecap="round" stroke-miterlimit="10" d="
		M129.087,108.152H60.841c-8.959,0-16.235-8.325-16.235-18.595c0-10.269,7.276-18.583,16.235-18.583h94.045h70.822
		c8.98,0,16.257,8.314,16.257,18.583c0,10.27-7.276,18.595-16.257,18.595h-68.225"/>
	<path id="three_49_" fill="none" stroke="#000000" stroke-width="19.189" stroke-linecap="round" stroke-miterlimit="10" d="
		M157.483,70.975v121.638c0,14.042,9.354,25.413,20.892,25.413h52.239c8.959,0,16.235-8.347,16.235-18.584
		c0-10.27-7.276-18.615-16.235-18.615h4.241h-37.626h2.618c-8.979,0-16.255-8.327-16.255-18.584c0-10.27,7.275-18.595,16.255-18.595
		h-2.618h44.735"/>
</g>
</svg>
