<?xml version="1.0" encoding="utf-8"?>
<!-- Generator: Adobe Illustrator 16.0.0, SVG Export Plug-In . SVG Version: 6.00 Build 0)  -->
<!DOCTYPE svg PUBLIC "-//W3C//DTD SVG 1.1//EN" "http://www.w3.org/Graphics/SVG/1.1/DTD/svg11.dtd">
<svg version="1.1" id="Layer_1" xmlns="http://www.w3.org/2000/svg" xmlns:xlink="http://www.w3.org/1999/xlink" x="0px" y="0px"
	 width="288px" height="288px" viewBox="0 0 288 288" enable-background="new 0 0 288 288" xml:space="preserve">
<g id="_x36__7_">
	<path id="one_100_" fill="none" stroke="#000000" stroke-width="20.5743" stroke-linecap="round" stroke-miterlimit="10" d="
		M157.716,41.947c22.911,2.723,34.626,21.366,23.387,36.474c-10.483,14.06-28.574,14.386-44.528,13.931
		c-24.964-0.724-50.557,1.795-72.019,15.778c-8.797,5.749-17.962,16.071-18.243,27.051c-0.583,22.762,29.374,31.838,47.551,27.311
		c25.874-6.441,39.382-23.604,59.355-36.734c18.502-12.222,41.931-22.685,66.679-19.711c22.913,2.745,32.77,20.176,23.367,36.474
		c-11.865,20.727-47.314,23.397-69.426,11.672"/>
	
		<path id="three_47_" fill="none" stroke="#000000" stroke-width="20.5743" stroke-linecap="round" stroke-linejoin="round" stroke-miterlimit="10" d="
		M187.068,187.357c-16.536,0-29.915,12.698-29.915,28.359c0,15.648,13.379,28.336,29.915,28.336h2.766
		c17.14,0,31.061-12.213,31.061-27.31v-1.026c0,12.579,11.606,22.803,25.895,22.803"/>
	
		<path id="two_91_" fill="none" stroke="#000000" stroke-width="20.5743" stroke-linecap="round" stroke-linejoin="round" stroke-miterlimit="10" d="
		M100.154,187.357c16.514,0,29.936,12.698,29.936,28.359c0,15.648-13.422,28.336-29.936,28.336h-2.767
		c-17.161,0-31.082-12.213-31.082-27.31v-1.026c0,12.579-11.564,22.803-25.872,22.803"/>
</g>
</svg>
