<?xml version="1.0" encoding="utf-8"?>
<!-- Generator: Adobe Illustrator 16.0.0, SVG Export Plug-In . SVG Version: 6.00 Build 0)  -->
<!DOCTYPE svg PUBLIC "-//W3C//DTD SVG 1.1//EN" "http://www.w3.org/Graphics/SVG/1.1/DTD/svg11.dtd">
<svg version="1.1" id="Layer_1" xmlns="http://www.w3.org/2000/svg" xmlns:xlink="http://www.w3.org/1999/xlink" x="0px" y="0px"
	 width="288px" height="288px" viewBox="0 0 288 288" enable-background="new 0 0 288 288" xml:space="preserve">
<g id="_x37__7_">
	<path id="three_54_" fill="none" stroke="#000000" stroke-width="20.5661" stroke-linecap="round" stroke-miterlimit="10" d="
		M183.983,139.474c33.306,0.836,64.119-6.84,63.763,22.859c-0.223,20.419-21.5,28.374-49.26,28.931
		c-23.973,0.49-46.563-4.523-68.69-13.569c-21.389-8.733-44.871-20.229-68.198-11.474c-21.165,7.932-31.257,36.261-14.704,54.463
		c13.479,14.837,49.394,19.805,55.342-6.172"/>
	<path id="two_109_" fill="none" stroke="#000000" stroke-width="19.4435" stroke-linecap="round" stroke-miterlimit="10" d="
		M76.059,53.499c30.166-0.091,37.207-2.63,47.544,9.356c7.954,9.178,8.355,19.238,8.443,34.389
		c0.045,14.068,2.919,29.598,13.795,39.635c10.069,9.303,39.769,9.67,43.667-11.709"/>
	
		<line id="one_118_" fill="none" stroke="#000000" stroke-width="20.5661" stroke-linecap="round" stroke-miterlimit="10" x1="40.768" y1="97.365" x2="248.125" y2="97.365"/>
	
		<line id="four_31_" fill="none" stroke="#000000" stroke-width="20.5661" stroke-linecap="round" stroke-miterlimit="10" x1="94.862" y1="228.113" x2="245.272" y2="228.113"/>
</g>
</svg>
