<?xml-stylesheet type="text/css" href="working demo/../../../style.css"?>
<!-- Generator: Adobe Illustrator 16.0.0, SVG Export Plug-In . SVG Version: 6.00 Build 0)  -->
<!DOCTYPE svg PUBLIC "-//W3C//DTD SVG 1.1//EN" "http://www.w3.org/Graphics/SVG/1.1/DTD/svg11.dtd">
<svg version="1.1" id="Layer_1" xmlns="http://www.w3.org/2000/svg" xmlns:xlink="http://www.w3.org/1999/xlink" x="0px" y="0px"
	 width="288px" height="288px" viewBox="0 0 288 288" enable-background="new 0 0 288 288" xml:space="preserve">
	 <rect x="0" y="0" width="100%" height="100%" fill-opacity="0"/>

<g class="roman">
	<g id="_x33__673_">

			<line id="three_849_" fill="none" stroke="#000000" stroke-width="20.8849" stroke-linecap="round" stroke-miterlimit="10" x1="80.03" y1="246.32" x2="208.971" y2="51.93"/>
	</g>
	<g id="_x33__672_">

			<line id="three_848_" fill="none" stroke="#000000" stroke-width="20.8849" stroke-linecap="round" stroke-miterlimit="10" x1="208.971" y1="246.32" x2="80.03" y2="51.93"/>
	</g>
</g>
<g id="_x31_0_43_" class="birdbug">
	<path id="one_1_" fill="none" stroke="#000000" stroke-width="20.1981" stroke-linecap="round" stroke-miterlimit="10" d="
		M119.918,55.023c-26.606-6.125-72.36-2.855-77.392,24.605c-3.763,20.678,23.478,36.968,47.962,30.896
		c26.301-6.554,39.998-23.981,60.26-37.328c18.816-12.418,42.602-23.041,67.743-20.021c23.235,2.778,35.14,21.704,23.718,37.032
		c-12.078,16.214-36.037,11.334-53.061,14.179c-13.217,2.177-29.519,8.96-38.926,18.543c-6.392,6.533-10.329,17.55-10.133,26.685
		c0.962,39.155-39.123,37.087-41.988,37.142c-13.83-0.25-29.233-1.441-42.012,4.836c-10.35,5.064-16.148,15.371-13.26,26.836
		c3.479,13.873,16.63,23.775,30.217,26.436c10.59,2.088,22.362,0.357,31.924-4.485c17.484-8.884,31.006-23.468,47.417-33.938
		c19.584-12.494,42.447-21.737,66.103-18.894c23.235,2.777,33.301,20.49,23.718,37.043c-12.033,21.039-48.05,23.772-70.521,11.859"
		/>

		<line id="two_1_" fill="none" stroke="#000000" stroke-width="20.1981" stroke-linecap="round" stroke-miterlimit="10" x1="42.154" y1="149.613" x2="245.777" y2="149.613"/>
</g>
</svg>
