<?xml-stylesheet type="text/css" href="working demo/../../../style.css"?>
<!-- Generator: Adobe Illustrator 16.0.0, SVG Export Plug-In . SVG Version: 6.00 Build 0)  -->
<!DOCTYPE svg PUBLIC "-//W3C//DTD SVG 1.1//EN" "http://www.w3.org/Graphics/SVG/1.1/DTD/svg11.dtd">
<svg version="1.1" id="Layer_1" xmlns="http://www.w3.org/2000/svg" xmlns:xlink="http://www.w3.org/1999/xlink" x="0px" y="0px"
	 width="288px" height="576px" viewBox="0 0 288 576" enable-background="new 0 0 288 576" xml:space="preserve">
	 <rect x="0" y="0" width="100%" height="100%" fill-opacity="0"/>

<g class="roman">
	<g id="_x33__673_">

			<line id="three_849_" fill="none" stroke="#000000" stroke-width="20.8849" stroke-linecap="round" stroke-miterlimit="10" x1="79.31" y1="260.581" x2="208.249" y2="66.189"/>
	</g>
	<g id="_x33__672_">

			<line id="three_848_" fill="none" stroke="#000000" stroke-width="20.8849" stroke-linecap="round" stroke-miterlimit="10" x1="208.249" y1="260.581" x2="79.31" y2="66.189"/>
	</g>
</g>
<g class="roman" id="_x33__683_">

		<line id="one_481_" fill="none" stroke="#000000" stroke-width="20.8864" stroke-linecap="round" stroke-miterlimit="10" x1="143.779" y1="510.584" x2="143.779" y2="316.189"/>
</g>
<g class="birdbug" id="_x31_0_38_">
	<path id="one_110_" fill="none" stroke="#000000" stroke-width="19.7005" stroke-linecap="round" stroke-miterlimit="10" d="
		M120.119,80.184c-25.972-5.975-70.576-2.806-75.505,23.989c-3.649,20.167,22.898,36.045,46.8,30.124
		c25.633-6.393,39.013-23.391,58.797-36.409c18.311-12.111,41.51-22.473,66.031-19.528c22.685,2.711,34.295,21.192,23.156,36.143
		c-11.76,15.792-35.15,11.042-51.774,13.807c-12.87,2.134-28.771,8.74-37.946,18.12c-6.252,6.338-10.114,17.094-9.88,26.015
		c0.938,38.171-38.18,36.174-40.977,36.217c-13.468-0.234-28.511-1.387-40.955,4.716c-10.075,4.951-15.75,14.982-12.953,26.177
		c3.413,13.53,16.239,23.188,29.472,25.79c10.353,2.051,21.812,0.354,31.138-4.396c17.073-8.666,30.262-22.889,46.247-33.089
		c19.123-12.188,41.401-21.205,64.474-18.419c22.685,2.71,32.481,19.976,23.155,36.122c-11.737,20.54-46.867,23.198-68.783,11.557"
		/>

		<line id="two_101_" fill="none" stroke="#000000" stroke-width="19.7005" stroke-linecap="round" stroke-miterlimit="10" x1="44.272" y1="172.444" x2="242.875" y2="172.444"/>
</g>
<g class="birdbug" id="_x31__18_">
	<path id="one_123_" fill="none" stroke="#000000" stroke-width="19.8385" stroke-linecap="round" stroke-miterlimit="10" d="
		M120.557,387.768c-26.134-6.006-71.05-2.824-76.014,24.156c-3.718,20.32,23.038,36.332,47.108,30.334
		c25.833-6.436,39.286-23.543,59.186-36.631c18.463-12.217,41.845-22.65,66.537-19.686c22.824,2.75,32.688,20.115,23.297,36.395
		c-11.819,20.664-47.216,23.352-69.245,11.617"/>
</g>
</svg>
