<?xml-stylesheet type="text/css" href="working demo/../../../style.css"?>
<!-- Generator: Adobe Illustrator 16.0.0, SVG Export Plug-In . SVG Version: 6.00 Build 0)  -->
<!DOCTYPE svg PUBLIC "-//W3C//DTD SVG 1.1//EN" "http://www.w3.org/Graphics/SVG/1.1/DTD/svg11.dtd">
<svg version="1.1" id="Layer_1" xmlns="http://www.w3.org/2000/svg" xmlns:xlink="http://www.w3.org/1999/xlink" x="0px" y="0px"
	 width="288px" height="576px" viewBox="0 0 288 576" enable-background="new 0 0 288 576" xml:space="preserve">
	 <rect x="0" y="0" width="100%" height="100%" fill-opacity="0"/>

<g class="roman">
	<g id="_x33__657_">

			<line id="three_833_" fill="none" stroke="#000000" stroke-width="20.3815" stroke-linecap="round" stroke-miterlimit="10" x1="81.061" y1="262.634" x2="206.891" y2="72.938"/>
	</g>
	<g id="_x33__656_">

			<line id="three_832_" fill="none" stroke="#000000" stroke-width="20.3815" stroke-linecap="round" stroke-miterlimit="10" x1="206.891" y1="262.634" x2="81.061" y2="72.938"/>
	</g>
</g>
<g class="roman" id="_x33__646_">

		<line id="one_469_" fill="none" stroke="#000000" stroke-width="20.3815" stroke-linecap="round" stroke-miterlimit="10" x1="204.41" y1="507.24" x2="204.41" y2="317.545"/>

		<line id="one_468_" fill="none" stroke="#000000" stroke-width="20.3815" stroke-linecap="round" stroke-miterlimit="10" x1="243.777" y1="507.24" x2="243.777" y2="317.545"/>

		<line id="three_821_" fill="none" stroke="#000000" stroke-width="20.3815" stroke-linecap="round" stroke-miterlimit="10" x1="102.735" y1="507.24" x2="39.809" y2="317.545"/>

		<line id="three_775_" fill="none" stroke="#000000" stroke-width="20.3815" stroke-linecap="round" stroke-miterlimit="10" x1="102.735" y1="507.416" x2="165.639" y2="317.723"/>
</g>
<g class="birdbug" id="_x31_0_38_">
	<path id="one_110_" fill="none" stroke="#000000" stroke-width="19.7005" stroke-linecap="round" stroke-miterlimit="10" d="
		M120.839,75.58c-25.972-5.975-70.576-2.806-75.505,23.989c-3.649,20.167,22.898,36.045,46.8,30.124
		c25.633-6.393,39.013-23.391,58.796-36.409c18.311-12.111,41.51-22.473,66.031-19.528c22.685,2.711,34.295,21.192,23.156,36.143
		c-11.76,15.792-35.15,11.042-51.774,13.807c-12.87,2.134-28.771,8.74-37.946,18.12c-6.251,6.338-10.113,17.094-9.879,26.015
		c0.938,38.171-38.18,36.174-40.977,36.217c-13.468-0.234-28.511-1.387-40.955,4.716c-10.075,4.951-15.75,14.982-12.953,26.177
		c3.413,13.53,16.239,23.188,29.472,25.79c10.353,2.05,21.812,0.354,31.138-4.396c17.073-8.666,30.262-22.889,46.246-33.089
		c19.123-12.188,41.401-21.205,64.474-18.419c22.685,2.71,32.481,19.976,23.155,36.122c-11.737,20.54-46.867,23.197-68.783,11.557"
		/>

		<line id="two_101_" fill="none" stroke="#000000" stroke-width="19.7005" stroke-linecap="round" stroke-miterlimit="10" x1="44.992" y1="167.84" x2="243.595" y2="167.84"/>
</g>
<g class="birdbug" id="_x37__6_">
	<path id="three_44_" fill="none" stroke="#000000" stroke-width="19.5842" stroke-linecap="round" stroke-miterlimit="10" d="
		M183.344,406.354c31.696,0.785,61.017-6.503,60.722,21.778c-0.236,19.433-20.477,27.02-46.91,27.55
		c-22.871,0.444-44.342-4.317-65.407-12.933c-20.367-8.327-42.729-19.253-64.962-10.937c-20.154,7.562-29.767,34.527-14.003,51.873
		c12.857,14.128,47.057,18.858,52.721-5.868"/>
	<path id="two_88_" fill="none" stroke="#000000" stroke-width="18.5153" stroke-linecap="round" stroke-miterlimit="10" d="
		M80.574,324.472c28.706-0.073,35.41-2.503,45.274,8.933c7.554,8.75,7.958,18.311,8.021,32.745
		c0.042,13.378,2.78,28.164,13.151,37.732c9.592,8.848,37.852,9.229,41.583-11.138"/>

		<line id="one_97_" fill="none" stroke="#000000" stroke-width="19.5842" stroke-linecap="round" stroke-miterlimit="10" x1="46.969" y1="366.257" x2="244.401" y2="366.257"/>

		<line id="four_26_" fill="none" stroke="#000000" stroke-width="19.5842" stroke-linecap="round" stroke-miterlimit="10" x1="98.46" y1="490.771" x2="241.706" y2="490.771"/>
</g>
</svg>
