<?xml-stylesheet type="text/css" href="working demo/../../../style.css"?>
<!-- Generator: Adobe Illustrator 16.0.0, SVG Export Plug-In . SVG Version: 6.00 Build 0)  -->
<!DOCTYPE svg PUBLIC "-//W3C//DTD SVG 1.1//EN" "http://www.w3.org/Graphics/SVG/1.1/DTD/svg11.dtd">
<svg version="1.1" id="Layer_1" xmlns="http://www.w3.org/2000/svg" xmlns:xlink="http://www.w3.org/1999/xlink" x="0px" y="0px"
	 width="288px" height="576px" viewBox="0 0 288 576" enable-background="new 0 0 288 576" xml:space="preserve">
	 <rect x="0" y="0" width="100%" height="100%" fill-opacity="0"/>

<g class="roman">
	<g id="_x33__659_">

			<line id="three_835_" fill="none" stroke="#000000" stroke-width="20.3069" stroke-linecap="round" stroke-miterlimit="10" x1="81.825" y1="263.549" x2="207.195" y2="74.546"/>
	</g>
	<g id="_x33__658_">

			<line id="three_834_" fill="none" stroke="#000000" stroke-width="20.3069" stroke-linecap="round" stroke-miterlimit="10" x1="207.175" y1="263.549" x2="81.804" y2="74.546"/>
	</g>
</g>
<g class="roman" id="_x33__645_">

		<line id="one_467_" fill="none" stroke="#000000" stroke-width="20.3069" stroke-linecap="round" stroke-miterlimit="10" x1="186.398" y1="507.26" x2="186.398" y2="318.259"/>

		<line id="one_466_" fill="none" stroke="#000000" stroke-width="20.3069" stroke-linecap="round" stroke-miterlimit="10" x1="225.624" y1="507.26" x2="225.624" y2="318.259"/>

		<line id="one_465_" fill="none" stroke="#000000" stroke-width="20.3069" stroke-linecap="round" stroke-miterlimit="10" x1="264.913" y1="507.26" x2="264.913" y2="318.259"/>

		<line id="three_530_" fill="none" stroke="#000000" stroke-width="20.3069" stroke-linecap="round" stroke-miterlimit="10" x1="85.097" y1="507.26" x2="22.421" y2="318.259"/>

		<line id="three_529_" fill="none" stroke="#000000" stroke-width="20.3069" stroke-linecap="round" stroke-miterlimit="10" x1="85.097" y1="507.436" x2="147.771" y2="318.436"/>
</g>
<g class="birdbug" id="_x31_0_38_">
	<path id="one_2_" fill="none" stroke="#000000" stroke-width="19.7005" stroke-linecap="round" stroke-miterlimit="10" d="
		M121.119,78.374c-25.972-5.975-70.576-2.806-75.505,23.989c-3.649,20.167,22.898,36.045,46.8,30.124
		c25.633-6.393,39.013-23.391,58.797-36.409c18.311-12.111,41.51-22.473,66.031-19.528c22.685,2.711,34.295,21.192,23.156,36.143
		c-11.76,15.792-35.15,11.042-51.774,13.807c-12.87,2.134-28.771,8.74-37.946,18.12c-6.252,6.338-10.114,17.094-9.88,26.015
		c0.938,38.171-38.18,36.174-40.977,36.217c-13.468-0.234-28.511-1.387-40.955,4.716c-10.075,4.951-15.75,14.982-12.953,26.177
		c3.413,13.53,16.239,23.188,29.472,25.79c10.353,2.05,21.812,0.354,31.138-4.396c17.073-8.666,30.262-22.889,46.247-33.089
		c19.123-12.188,41.401-21.205,64.474-18.419c22.685,2.71,32.481,19.976,23.155,36.122c-11.737,20.54-46.867,23.197-68.783,11.557"
		/>

		<line id="two_1_" fill="none" stroke="#000000" stroke-width="19.7005" stroke-linecap="round" stroke-miterlimit="10" x1="45.272" y1="170.634" x2="243.875" y2="170.634"/>
</g>
<g class="birdbug" id="_x38__6_">

		<path id="six_1_" fill="none" stroke="#000000" stroke-width="18.1724" stroke-linecap="round" stroke-linejoin="round" stroke-miterlimit="10" d="
		M184.611,445.375c-15.991,0-28.945,12.274-28.945,27.415c0,15.115,12.954,27.392,28.945,27.392h2.664
		c16.576,0,30.006-11.828,30.006-26.425v-0.967c0,12.159,11.203,22.029,25.051,22.029"/>
	<path id="four_1_" fill="none" stroke="#000000" stroke-width="18.1724" stroke-linecap="round" stroke-miterlimit="10" d="
		M200.457,352.851c23.822,0,43.166,21.302,43.166,47.6c0,26.27-19.344,47.58-43.166,47.58c-10.516-0.009-19.01-7.161-19.01-16.012
		c0-10.12,7.433-18.313,16.595-18.313"/>
	<path id="two_2_" fill="none" stroke="#000000" stroke-width="18.1724" stroke-linecap="round" stroke-miterlimit="10" d="
		M240.167,326.041c0,0-84.501-12.172-84.501,44.218c0,9.932,6.248,21.165,17.368,23.56c11.723,2.488,24.551-6.318,24.884-17.531"/>

		<path id="five_1_" fill="none" stroke="#000000" stroke-width="18.1724" stroke-linecap="round" stroke-linejoin="round" stroke-miterlimit="10" d="
		M100.57,445.375c15.991,0,28.965,12.274,28.965,27.415c0,15.115-12.974,27.392-28.965,27.392h-2.666
		c-16.596,0-30.005-11.828-30.005-26.425v-0.967c0,12.159-11.223,22.029-25.05,22.029"/>
	<path id="three_1_" fill="none" stroke="#000000" stroke-width="18.1724" stroke-linecap="round" stroke-miterlimit="10" d="
		M84.745,352.851c-23.842,0-43.187,21.302-43.187,47.6c0,26.27,19.345,47.58,43.187,47.58c10.495-0.009,19.011-7.161,19.011-16.012
		c0-10.12-7.454-18.313-16.596-18.313"/>
	<path id="one_1_" fill="none" stroke="#000000" stroke-width="18.1724" stroke-linecap="round" stroke-miterlimit="10" d="
		M44.994,326.041c0,0,84.541-12.172,84.541,44.218c0,9.932-6.268,21.165-17.387,23.56c-11.724,2.488-24.55-6.318-24.884-17.531"/>
</g>
</svg>
