<?xml-stylesheet type="text/css" href="working demo/../../../style.css"?>
<!-- Generator: Adobe Illustrator 16.0.0, SVG Export Plug-In . SVG Version: 6.00 Build 0)  -->
<!DOCTYPE svg PUBLIC "-//W3C//DTD SVG 1.1//EN" "http://www.w3.org/Graphics/SVG/1.1/DTD/svg11.dtd">
<svg version="1.1" id="Layer_1" xmlns="http://www.w3.org/2000/svg" xmlns:xlink="http://www.w3.org/1999/xlink" x="0px" y="0px"
	 width="288px" height="576px" viewBox="0 0 288 576" enable-background="new 0 0 288 576" xml:space="preserve">
	 <rect x="0" y="0" width="100%" height="100%" fill-opacity="0"/>

<g class="roman">
	<g id="_x33__661_">

			<line id="three_837_" fill="none" stroke="#000000" stroke-width="20.3359" stroke-linecap="round" stroke-miterlimit="10" x1="81.179" y1="264.517" x2="206.75" y2="75.246"/>
	</g>
	<g id="_x33__660_">

			<line id="three_836_" fill="none" stroke="#000000" stroke-width="20.3359" stroke-linecap="round" stroke-miterlimit="10" x1="206.729" y1="264.517" x2="81.179" y2="75.246"/>
	</g>
</g>
<g class="roman">
	<g id="_x33__644_">

			<line id="three_518_" fill="none" stroke="#000000" stroke-width="20.3359" stroke-linecap="round" stroke-miterlimit="10" x1="101.028" y1="508.841" x2="226.576" y2="319.57"/>
	</g>
	<g id="_x33__643_">

			<line id="three_517_" fill="none" stroke="#000000" stroke-width="20.3359" stroke-linecap="round" stroke-miterlimit="10" x1="226.576" y1="508.841" x2="101.006" y2="319.57"/>
	</g>
</g>
<line class="roman" id="one_463_" fill="none" stroke="#000000" stroke-width="20.3359" stroke-linecap="round" stroke-miterlimit="10" x1="60.756" y1="508.576" x2="60.756" y2="319.305"/>
<g class="birdbug" id="_x31_0_38_">
	<path id="one_110_" fill="none" stroke="#000000" stroke-width="19.7005" stroke-linecap="round" stroke-miterlimit="10" d="
		M120.119,78.942c-25.972-5.975-70.576-2.806-75.505,23.989c-3.649,20.167,22.898,36.045,46.8,30.124
		c25.633-6.393,39.013-23.391,58.797-36.409c18.311-12.111,41.51-22.473,66.031-19.528c22.685,2.711,34.295,21.192,23.156,36.143
		c-11.76,15.792-35.15,11.042-51.774,13.807c-12.87,2.134-28.771,8.74-37.946,18.12c-6.252,6.338-10.114,17.094-9.88,26.015
		c0.938,38.171-38.18,36.174-40.977,36.217c-13.468-0.234-28.511-1.387-40.955,4.716c-10.075,4.951-15.75,14.982-12.953,26.177
		c3.413,13.53,16.239,23.188,29.472,25.79c10.353,2.05,21.812,0.354,31.138-4.396c17.073-8.666,30.262-22.889,46.247-33.089
		c19.123-12.188,41.401-21.205,64.474-18.419c22.685,2.71,32.481,19.976,23.155,36.122c-11.737,20.54-46.867,23.197-68.783,11.557"
		/>

		<line id="two_101_" fill="none" stroke="#000000" stroke-width="19.7005" stroke-linecap="round" stroke-miterlimit="10" x1="44.272" y1="171.203" x2="242.875" y2="171.203"/>
</g>
<g class="birdbug" id="_x39__6_">
	<path id="two_89_" fill="none" stroke="#000000" stroke-width="19.4177" stroke-linecap="round" stroke-miterlimit="10" d="
		M77.055,509.597c5.123-43.472,10.963-87.02,21.82-129.723c5.904-23.189,16.677-48.923,43.559-58.632
		c8.222-2.981,24.498-4.869,32.804-1.483c30.863,12.512,21.926,50.852,10.562,71.816c-13.661,25.214-42.419,51.136-40.837,80.948
		c0.717,13.658,9.105,30.4,23.971,32.257c19.354,2.444,32.637-23.551,18.953-37.729c-3.438-3.562-5.756-6.062-10.541-7.442"/>
	<path id="three_45_" fill="none" stroke="#000000" stroke-width="18.3992" stroke-linecap="round" stroke-miterlimit="10" d="
		M188.35,461.644c0-8.214,0.782-17.456,6.451-23.877c6.686-7.643,19.672-6.872,25.385,1.653
		c13.135,19.661-12.164,61.858,22.242,66.37"/>
	<path id="one_98_" fill="none" stroke="#000000" stroke-width="17.9974" stroke-linecap="round" stroke-miterlimit="10" d="
		M43.891,509.597c4.871-41.598,10.415-83.267,20.789-124.125c5.607-22.189,15.874-46.803,41.448-56.111
		c7.822-2.825,23.316-4.639,31.265-1.391c29.348,11.963,35.989,47.373,16.212,54.275c-9.551,3.333-24.667-5.163-16.275-22.391"/>
	<path id="four_27_" fill="none" stroke="#000000" stroke-width="18.3992" stroke-linecap="round" stroke-miterlimit="10" d="
		M127.842,405.764c-10.352,42.726-10.625,60.361-15.494,103.833"/>
</g>
</svg>
