<?xml-stylesheet type="text/css" href="working demo/../../../style.css"?>
<!-- Generator: Adobe Illustrator 16.0.0, SVG Export Plug-In . SVG Version: 6.00 Build 0)  -->
<!DOCTYPE svg PUBLIC "-//W3C//DTD SVG 1.1//EN" "http://www.w3.org/Graphics/SVG/1.1/DTD/svg11.dtd">
<svg version="1.1" id="Layer_1" xmlns="http://www.w3.org/2000/svg" xmlns:xlink="http://www.w3.org/1999/xlink" x="0px" y="0px"
	 width="288px" height="288px" viewBox="0 0 288 288" enable-background="new 0 0 288 288" xml:space="preserve">
	 <rect x="0" y="0" width="100%" height="100%" fill-opacity="0"/>

<g class="roman" id="_x33__680_">

		<line id="one_478_" fill="none" stroke="#000000" stroke-width="20.64" stroke-linecap="round" stroke-miterlimit="10" x1="60.351" y1="243.593" x2="60.351" y2="51.492"/>

		<line id="three_863_" fill="none" stroke="#000000" stroke-width="20.64" stroke-linecap="round" stroke-miterlimit="10" x1="164.924" y1="243.593" x2="101.224" y2="51.492"/>

		<line id="three_862_" fill="none" stroke="#000000" stroke-width="20.64" stroke-linecap="round" stroke-miterlimit="10" x1="164.947" y1="243.771" x2="228.648" y2="51.672"/>
</g>
<g class="birdbug" id="_x34__7_">
	<path id="two_1_" fill="none" stroke="#000000" stroke-width="19.189" stroke-linecap="round" stroke-miterlimit="10" d="
		M130.087,74.018v121.638c0,14.041-9.375,25.412-20.891,25.412h-52.24c-8.959,0-16.255-8.346-16.255-18.584
		c0-10.271,7.296-18.614,16.255-18.614h0.978H90.34h-2.619c8.98,0,16.256-8.327,16.256-18.584c0-10.271-7.276-18.595-16.256-18.595
		h2.619H45.605"/>
	<path id="one_102_" fill="none" stroke="#000000" stroke-width="19.189" stroke-linecap="round" stroke-miterlimit="10" d="
		M130.087,111.195H61.841c-8.959,0-16.235-8.325-16.235-18.595c0-10.269,7.276-18.583,16.235-18.583h94.046h70.821
		c8.979,0,16.257,8.314,16.257,18.583c0,10.27-7.275,18.595-16.257,18.595h-68.226"/>
	<path id="three_1_" fill="none" stroke="#000000" stroke-width="19.189" stroke-linecap="round" stroke-miterlimit="10" d="
		M158.482,74.018v121.638c0,14.041,9.354,25.412,20.893,25.412h52.238c8.96,0,16.236-8.346,16.236-18.584
		c0-10.271-7.276-18.614-16.236-18.614h4.242h-37.627h2.619c-8.979,0-16.257-8.327-16.257-18.584
		c0-10.271,7.275-18.595,16.257-18.595h-2.619h44.734"/>
	<path fill="none" stroke="#000000" stroke-width="19.189" stroke-linecap="round" stroke-miterlimit="10" d="M158.482,111.195"/>
</g>
</svg>
