<?xml-stylesheet type="text/css" href="working demo/../../../style.css"?>
<!-- Generator: Adobe Illustrator 16.0.0, SVG Export Plug-In . SVG Version: 6.00 Build 0)  -->
<!DOCTYPE svg PUBLIC "-//W3C//DTD SVG 1.1//EN" "http://www.w3.org/Graphics/SVG/1.1/DTD/svg11.dtd">
<svg version="1.1" id="Layer_1" xmlns="http://www.w3.org/2000/svg" xmlns:xlink="http://www.w3.org/1999/xlink" x="0px" y="0px"
	 width="288px" height="288px" viewBox="0 0 288 288" enable-background="new 0 0 288 288" xml:space="preserve">
	 <rect x="0" y="0" width="100%" height="100%" fill-opacity="0"/>

<g class="roman" id="_x33__675_">

		<line id="three_853_" fill="none" stroke="#000000" stroke-width="20.8359" stroke-linecap="round" stroke-miterlimit="10" x1="144.5" y1="243.585" x2="80.193" y2="49.66"/>

		<line id="three_852_" fill="none" stroke="#000000" stroke-width="20.8359" stroke-linecap="round" stroke-miterlimit="10" x1="144.5" y1="243.768" x2="208.807" y2="49.842"/>
</g>
<g class="birdbug" id="_x35__7_">
	<path id="three_1_" fill="none" stroke="#000000" stroke-width="20.0147" stroke-linecap="round" stroke-miterlimit="10" d="
		M223.377,109.848c0,10.549-9.633,17.396-21.536,17.396H88.915c-30.524,0-44.582,23.988-32.451,48.011"/>
	<path id="one_1_" fill="none" stroke="#000000" stroke-width="20.0147" stroke-linecap="round" stroke-miterlimit="10" d="
		M117.835,37.951c-7.615-1.261-15.733-1.869-23.416-2.03c-12.591-0.276-27.819-1.983-38.987,5.058
		c-9.817,6.168-13.691,20.651-4.083,29.355c9.542,8.611,25.663,9.425,37.704,7.247c25.708-4.677,39.124-17.132,58.962-26.638
		c10.137-4.884,21.028-8.863,31.969-11.535c12.315-2.993,26.537-3.395,39.033-1.032c11.193,2.131,25.778,14.161,19.748,26.419
		c-4.635,9.323-17.57,14.334-27.545,14.081c-14.838-0.378-28.896-1.96-42.748-7.339"/>
	<path id="five_1_" fill="none" stroke="#000000" stroke-width="20.0147" stroke-linecap="round" stroke-miterlimit="10" d="
		M117.835,209.68c-7.615-1.272-15.733-1.871-23.416-2.043c-12.591-0.285-27.819-1.984-38.987,5.059
		c-9.817,6.181-13.691,20.676-4.083,29.332c9.542,8.623,25.663,9.459,37.704,7.271c25.708-4.68,39.124-17.107,58.962-26.648
		c10.137-4.885,21.028-8.862,31.969-11.523c12.315-3.005,26.537-3.404,39.033-1.043c11.193,2.134,25.778,14.172,19.748,26.42
		c-4.635,9.322-17.57,14.346-27.545,14.094c-14.838-0.391-28.896-1.962-42.748-7.328"/>
	<path id="four_1_" fill="none" stroke="#000000" stroke-width="20.0147" stroke-linecap="round" stroke-miterlimit="10" d="
		M201.841,127.244c60.386-3.188,52.589,69.5-10.043,39.514"/>
	<path id="two_1_" fill="none" stroke="#000000" stroke-width="20.0147" stroke-linecap="round" stroke-miterlimit="10" d="
		M51.877,103.736h89.58h0.022c14.47,0,26.145,7.328,26.145,16.386v13.015c0,10.997-9.61,19.952-21.513,19.952h-40.133
		c-5.94,0-12.041,1.492-15.848,5.115c-5.414,5.08-5.458,14.298-0.092,19.183c6.262,5.711,17.339,7.523,26.122,4.473"/>
</g>
</svg>
