<?xml-stylesheet type="text/css" href="working demo/../../../style.css"?>
<!-- Generator: Adobe Illustrator 16.0.0, SVG Export Plug-In . SVG Version: 6.00 Build 0)  -->
<!DOCTYPE svg PUBLIC "-//W3C//DTD SVG 1.1//EN" "http://www.w3.org/Graphics/SVG/1.1/DTD/svg11.dtd">
<svg version="1.1" id="Layer_1" xmlns="http://www.w3.org/2000/svg" xmlns:xlink="http://www.w3.org/1999/xlink" x="0px" y="0px"
	 width="288px" height="288px" viewBox="0 0 288 288" enable-background="new 0 0 288 288" xml:space="preserve">
	 <rect x="0" y="0" width="100%" height="100%" fill-opacity="0"/>

<g id="_x33__677_" class="roman">

		<line id="one_475_" fill="none" stroke="#000000" stroke-width="21.0992" stroke-linecap="round" stroke-miterlimit="10" x1="208.488" y1="244.834" x2="208.488" y2="48.446"/>

		<line id="one_474_" fill="none" stroke="#000000" stroke-width="21.0992" stroke-linecap="round" stroke-miterlimit="10" x1="249.242" y1="244.834" x2="249.242" y2="48.446"/>

		<line id="three_857_" fill="none" stroke="#000000" stroke-width="21.0992" stroke-linecap="round" stroke-miterlimit="10" x1="103.233" y1="244.834" x2="38.091" y2="48.446"/>

		<line id="three_856_" fill="none" stroke="#000000" stroke-width="21.0992" stroke-linecap="round" stroke-miterlimit="10" x1="103.233" y1="245.004" x2="168.354" y2="48.629"/>
</g>
<g id="_x37__7_" class="birdbug">
	<path id="three_1_" fill="none" stroke="#000000" stroke-width="20.5661" stroke-linecap="round" stroke-miterlimit="10" d="
		M184.982,144.038c33.307,0.835,64.119-6.84,63.764,22.858c-0.223,20.42-21.5,28.375-49.26,28.932
		c-23.973,0.49-46.563-4.521-68.69-13.568c-21.389-8.732-44.871-20.229-68.198-11.475c-21.165,7.932-31.257,36.262-14.704,54.463
		c13.479,14.838,49.394,19.805,55.342-6.172"/>
	<path id="two_1_" fill="none" stroke="#000000" stroke-width="19.4435" stroke-linecap="round" stroke-miterlimit="10" d="
		M77.059,58.062c30.166-0.091,37.207-2.63,47.544,9.356c7.954,9.178,8.355,19.238,8.443,34.389
		c0.045,14.068,2.919,29.598,13.795,39.635c10.069,9.303,39.769,9.669,43.667-11.709"/>

		<line id="one_1_" fill="none" stroke="#000000" stroke-width="20.5661" stroke-linecap="round" stroke-miterlimit="10" x1="41.768" y1="101.929" x2="249.125" y2="101.929"/>

		<line id="four_1_" fill="none" stroke="#000000" stroke-width="20.5661" stroke-linecap="round" stroke-miterlimit="10" x1="95.862" y1="232.677" x2="246.271" y2="232.677"/>
</g>
</svg>
