<?xml version="1.0" encoding="utf-8"?>
<!-- Generator: Adobe Illustrator 16.0.0, SVG Export Plug-In . SVG Version: 6.00 Build 0)  -->
<!DOCTYPE svg PUBLIC "-//W3C//DTD SVG 1.1//EN" "http://www.w3.org/Graphics/SVG/1.1/DTD/svg11.dtd">
<svg version="1.1" id="Layer_1" xmlns="http://www.w3.org/2000/svg" xmlns:xlink="http://www.w3.org/1999/xlink" x="0px" y="0px"
	 width="288px" height="576px" viewBox="0 0 288 576" enable-background="new 0 0 288 576" xml:space="preserve">
<g id="_x31_0_38_">
	<path id="one_110_" fill="none" stroke="#000000" stroke-width="19.7005" stroke-linecap="round" stroke-miterlimit="10" d="
		M122.119,79.901c-25.972-5.975-70.576-2.806-75.505,23.989c-3.649,20.167,22.898,36.045,46.8,30.124
		c25.633-6.393,39.013-23.391,58.797-36.409c18.311-12.111,41.51-22.473,66.031-19.528c22.685,2.711,34.295,21.192,23.156,36.143
		c-11.76,15.792-35.15,11.042-51.774,13.807c-12.87,2.134-28.77,8.74-37.946,18.12c-6.252,6.338-10.114,17.094-9.88,26.015
		c0.938,38.171-38.18,36.174-40.977,36.217c-13.468-0.234-28.511-1.387-40.955,4.716c-10.075,4.951-15.75,14.982-12.953,26.177
		c3.413,13.53,16.239,23.188,29.472,25.79c10.353,2.05,21.812,0.354,31.138-4.396c17.073-8.666,30.262-22.889,46.247-33.089
		c19.122-12.188,41.401-21.205,64.473-18.419c22.685,2.71,32.481,19.976,23.156,36.122c-11.738,20.54-46.868,23.197-68.784,11.557"
		/>
	
		<line id="two_101_" fill="none" stroke="#000000" stroke-width="19.7005" stroke-linecap="round" stroke-miterlimit="10" x1="46.272" y1="172.161" x2="244.875" y2="172.161"/>
</g>
<g id="_x32__11_">
	<path id="two_111_" fill="none" stroke="#000000" stroke-width="19.4711" stroke-linecap="round" stroke-miterlimit="10" d="
		M123.021,406.979c-25.67-5.896-69.755-2.764-74.627,23.709c-3.628,19.943,22.633,35.669,46.236,29.782
		c25.354-6.296,38.559-23.106,58.111-35.963c18.1-11.981,41.048-22.222,65.284-19.301c22.422,2.669,32.083,19.744,22.865,35.711
		c-11.602,20.292-46.321,22.908-67.984,11.411"/>
	
		<line id="one_120_" fill="none" stroke="#000000" stroke-width="19.4711" stroke-linecap="round" stroke-miterlimit="10" x1="48.055" y1="366.448" x2="244.369" y2="366.448"/>
</g>
</svg>
