<?xml version="1.0" encoding="utf-8"?>
<!-- Generator: Adobe Illustrator 16.0.0, SVG Export Plug-In . SVG Version: 6.00 Build 0)  -->
<!DOCTYPE svg PUBLIC "-//W3C//DTD SVG 1.1//EN" "http://www.w3.org/Graphics/SVG/1.1/DTD/svg11.dtd">
<svg version="1.1" id="Layer_1" xmlns="http://www.w3.org/2000/svg" xmlns:xlink="http://www.w3.org/1999/xlink" x="0px" y="0px"
	 width="288px" height="576px" viewBox="0 0 288 576" enable-background="new 0 0 288 576" xml:space="preserve">
<g id="_x31_0_38_">
	<path id="one_110_" fill="none" stroke="#000000" stroke-width="19.7005" stroke-linecap="round" stroke-miterlimit="10" d="
		M118.953,79.901c-25.972-5.975-70.576-2.806-75.505,23.989c-3.649,20.167,22.898,36.045,46.8,30.124
		c25.633-6.393,39.013-23.391,58.798-36.409c18.311-12.111,41.51-22.473,66.031-19.528c22.685,2.711,34.295,21.192,23.156,36.143
		c-11.76,15.792-35.15,11.042-51.774,13.807c-12.87,2.134-28.77,8.74-37.946,18.12c-6.253,6.338-10.115,17.094-9.881,26.015
		c0.938,38.171-38.18,36.174-40.977,36.217c-13.468-0.234-28.511-1.387-40.955,4.716c-10.075,4.951-15.75,14.982-12.953,26.177
		c3.413,13.53,16.239,23.188,29.472,25.79c10.353,2.05,21.812,0.354,31.138-4.396c17.073-8.666,30.262-22.889,46.248-33.089
		c19.122-12.188,41.401-21.205,64.473-18.419c22.685,2.71,32.481,19.976,23.156,36.122c-11.738,20.54-46.868,23.197-68.784,11.557"
		/>
	
		<line id="two_101_" fill="none" stroke="#000000" stroke-width="19.7005" stroke-linecap="round" stroke-miterlimit="10" x1="43.106" y1="172.161" x2="241.71" y2="172.161"/>
</g>
<g id="_x35__6_">
	<path id="three_50_" fill="none" stroke="#000000" stroke-width="18.9223" stroke-linecap="round" stroke-miterlimit="10" d="
		M225.857,381.015c0,10.873-9.931,17.932-22.183,17.932H87.199c-31.481-0.012-45.988,24.748-33.477,49.511"/>
	<path id="one_103_" fill="none" stroke="#000000" stroke-width="18.9223" stroke-linecap="round" stroke-miterlimit="10" d="
		M117.013,306.882c-7.849-1.312-16.241-1.951-24.177-2.102c-12.985-0.294-28.685-2.038-40.197,5.215
		c-10.104,6.352-14.115,21.303-4.228,30.234c9.843,8.913,26.473,9.759,38.896,7.491c26.518-4.802,40.372-17.638,60.818-27.47
		c10.43-5.032,21.683-9.141,32.956-11.882c12.729-3.091,27.385-3.504,40.288-1.074c11.512,2.202,26.602,14.613,20.337,27.254
		c-4.748,9.627-18.104,14.787-28.404,14.518c-15.286-0.392-29.791-2.029-44.079-7.546"/>
	<path id="five_15_" fill="none" stroke="#000000" stroke-width="18.9223" stroke-linecap="round" stroke-miterlimit="10" d="
		M117.013,483.983c-7.849-1.324-16.241-1.941-24.177-2.126c-12.985-0.27-28.685-2.048-40.197,5.236
		c-10.104,6.342-14.115,21.281-4.228,30.236c9.843,8.9,26.473,9.757,38.896,7.492c26.518-4.826,40.372-17.64,60.818-27.472
		c10.43-5.053,21.683-9.139,32.956-11.882c12.729-3.079,27.385-3.514,40.288-1.075c11.512,2.212,26.602,14.614,20.337,27.234
		c-4.748,9.648-18.104,14.808-28.404,14.516c-15.286-0.369-29.791-2.017-44.079-7.545"/>
	<path id="four_29_" fill="none" stroke="#000000" stroke-width="18.9223" stroke-linecap="round" stroke-miterlimit="10" d="
		M203.675,398.946c62.229-3.297,54.187,71.69-10.385,40.761"/>
	<path id="two_94_" fill="none" stroke="#000000" stroke-width="18.9223" stroke-linecap="round" stroke-miterlimit="10" d="
		M48.975,374.704h92.409h0.021c14.896,0,26.951,7.578,26.951,16.913v13.421c0,11.35-9.929,20.565-22.18,20.565h-41.393
		c-6.157,0-12.401,1.551-16.37,5.28c-5.55,5.236-5.593,14.743-0.087,19.784c6.441,5.875,17.867,7.741,26.952,4.607"/>
</g>
</svg>
