<?xml version="1.0" encoding="utf-8"?>
<!-- Generator: Adobe Illustrator 16.0.0, SVG Export Plug-In . SVG Version: 6.00 Build 0)  -->
<!DOCTYPE svg PUBLIC "-//W3C//DTD SVG 1.1//EN" "http://www.w3.org/Graphics/SVG/1.1/DTD/svg11.dtd">
<svg version="1.1" id="Layer_1" xmlns="http://www.w3.org/2000/svg" xmlns:xlink="http://www.w3.org/1999/xlink" x="0px" y="0px"
	 width="288px" height="576px" viewBox="0 0 288 576" enable-background="new 0 0 288 576" xml:space="preserve">
<g id="_x31_0_38_">
	<path id="one_110_" fill="none" stroke="#000000" stroke-width="19.7005" stroke-linecap="round" stroke-miterlimit="10" d="
		M122.119,79.901c-25.972-5.975-70.576-2.806-75.505,23.989c-3.649,20.167,22.898,36.045,46.8,30.124
		c25.633-6.393,39.013-23.391,58.797-36.409c18.311-12.111,41.51-22.473,66.031-19.528c22.685,2.711,34.295,21.192,23.156,36.143
		c-11.76,15.792-35.15,11.042-51.774,13.807c-12.87,2.134-28.77,8.74-37.946,18.12c-6.252,6.338-10.114,17.094-9.88,26.015
		c0.938,38.171-38.18,36.174-40.977,36.217c-13.468-0.234-28.511-1.387-40.955,4.716c-10.075,4.951-15.75,14.982-12.953,26.177
		c3.413,13.53,16.239,23.188,29.472,25.79c10.353,2.05,21.812,0.354,31.138-4.396c17.073-8.666,30.262-22.889,46.247-33.089
		c19.122-12.188,41.401-21.205,64.473-18.419c22.685,2.71,32.481,19.976,23.156,36.122c-11.738,20.54-46.868,23.197-68.784,11.557"
		/>
	
		<line id="two_101_" fill="none" stroke="#000000" stroke-width="19.7005" stroke-linecap="round" stroke-miterlimit="10" x1="46.272" y1="172.161" x2="244.875" y2="172.161"/>
</g>
<g id="_x36__6_">
	<path id="one_96_" fill="none" stroke="#000000" stroke-width="20.087" stroke-linecap="round" stroke-miterlimit="10" d="
		M155.872,315.42c22.368,2.681,33.785,20.86,22.812,35.621c-10.213,13.717-27.877,14.022-43.471,13.58
		c-24.374-0.696-49.337,1.751-70.292,15.415c-8.589,5.603-17.515,15.7-17.811,26.409c-0.592,22.232,28.699,31.084,46.425,26.674
		c25.28-6.289,38.448-23.044,57.947-35.874c18.064-11.934,40.919-22.137,65.081-19.235c22.367,2.659,32.012,19.679,22.811,35.6
		c-11.585,20.228-46.192,22.844-67.802,11.385"/>
	
		<path id="three_43_" fill="none" stroke="#000000" stroke-width="20.087" stroke-linecap="round" stroke-linejoin="round" stroke-miterlimit="10" d="
		M184.508,457.408c-16.143,0-29.205,12.388-29.205,27.688c0,15.267,13.062,27.653,29.205,27.653h2.723
		c16.734,0,30.303-11.944,30.303-26.685v-0.969c0,12.271,11.312,22.24,25.302,22.24"/>
	
		<path id="two_87_" fill="none" stroke="#000000" stroke-width="20.087" stroke-linecap="round" stroke-linejoin="round" stroke-miterlimit="10" d="
		M99.676,457.408c16.101,0,29.227,12.388,29.227,27.688c0,15.267-13.126,27.653-29.227,27.653h-2.722
		c-16.734,0-30.324-11.944-30.324-26.685v-0.969c0,12.271-11.311,22.24-25.281,22.24"/>
</g>
</svg>
