<?xml version="1.0" encoding="utf-8"?>
<!-- Generator: Adobe Illustrator 16.0.0, SVG Export Plug-In . SVG Version: 6.00 Build 0)  -->
<!DOCTYPE svg PUBLIC "-//W3C//DTD SVG 1.1//EN" "http://www.w3.org/Graphics/SVG/1.1/DTD/svg11.dtd">
<svg version="1.1" id="Layer_1" xmlns="http://www.w3.org/2000/svg" xmlns:xlink="http://www.w3.org/1999/xlink" x="0px" y="0px"
	 width="288px" height="576px" viewBox="0 0 288 576" enable-background="new 0 0 288 576" xml:space="preserve">
<g id="_x31_0_38_">
	<path id="one_110_" fill="none" stroke="#000000" stroke-width="19.7005" stroke-linecap="round" stroke-miterlimit="10" d="
		M122.119,322.355c-25.972-5.976-70.576-2.807-75.505,23.988c-3.649,20.167,22.898,36.045,46.8,30.123
		c25.633-6.393,39.013-23.391,58.797-36.408c18.311-12.111,41.51-22.473,66.031-19.527c22.685,2.711,34.295,21.191,23.156,36.143
		c-11.76,15.792-35.15,11.042-51.774,13.807c-12.87,2.134-28.77,8.74-37.946,18.119c-6.252,6.338-10.114,17.095-9.88,26.016
		c0.938,38.17-38.18,36.174-40.977,36.217c-13.468-0.234-28.511-1.388-40.955,4.716c-10.075,4.951-15.75,14.982-12.953,26.177
		c3.413,13.53,16.239,23.188,29.472,25.79c10.353,2.05,21.812,0.354,31.138-4.396c17.073-8.666,30.262-22.889,46.247-33.09
		c19.122-12.188,41.401-21.204,64.473-18.418c22.685,2.71,32.481,19.975,23.156,36.121c-11.738,20.541-46.868,23.197-68.784,11.557"
		/>
	
		<line id="two_101_" fill="none" stroke="#000000" stroke-width="19.7005" stroke-linecap="round" stroke-miterlimit="10" x1="46.272" y1="414.615" x2="244.875" y2="414.615"/>
</g>
<g id="_x32__10_">
	<path id="two_110_" fill="none" stroke="#000000" stroke-width="20.2799" stroke-linecap="round" stroke-miterlimit="10" d="
		M120.921,163.698c-26.737-6.163-72.653-2.879-77.705,24.683c-3.824,20.793,23.549,37.15,48.135,31.031
		c26.406-6.579,40.182-24.078,60.525-37.458c18.872-12.49,42.752-23.145,67.994-20.101c23.332,2.779,33.438,20.562,23.838,37.183
		c-12.105,21.146-48.246,23.87-70.83,11.897"/>
	
		<line id="one_119_" fill="none" stroke="#000000" stroke-width="20.2799" stroke-linecap="round" stroke-miterlimit="10" x1="42.865" y1="121.483" x2="247.311" y2="121.483"/>
</g>
</svg>
