<?xml version="1.0" encoding="utf-8"?>
<!-- Generator: Adobe Illustrator 16.0.0, SVG Export Plug-In . SVG Version: 6.00 Build 0)  -->
<!DOCTYPE svg PUBLIC "-//W3C//DTD SVG 1.1//EN" "http://www.w3.org/Graphics/SVG/1.1/DTD/svg11.dtd">
<svg version="1.1" id="Layer_1" xmlns="http://www.w3.org/2000/svg" xmlns:xlink="http://www.w3.org/1999/xlink" x="0px" y="0px"
	 width="288px" height="288px" viewBox="0 0 288 288" enable-background="new 0 0 288 288" xml:space="preserve">
<g id="_x35__7_">
	<path id="three_51_" fill="none" stroke="#000000" stroke-width="20.0147" stroke-linecap="round" stroke-miterlimit="10" d="
		M222.412,109.848c0,10.549-9.632,17.396-21.536,17.396H87.95c-30.524,0-44.582,23.988-32.451,48.011"/>
	<path id="one_104_" fill="none" stroke="#000000" stroke-width="20.0147" stroke-linecap="round" stroke-miterlimit="10" d="
		M116.87,37.951c-7.615-1.261-15.733-1.869-23.416-2.03c-12.591-0.276-27.819-1.983-38.987,5.058
		c-9.817,6.168-13.691,20.651-4.083,29.355c9.542,8.611,25.663,9.425,37.704,7.247c25.708-4.677,39.124-17.132,58.962-26.638
		c10.137-4.884,21.029-8.863,31.969-11.535c12.316-2.993,26.537-3.395,39.034-1.032c11.193,2.131,25.778,14.161,19.747,26.419
		c-4.634,9.323-17.569,14.334-27.545,14.081c-14.837-0.378-28.896-1.96-42.748-7.339"/>
	<path id="five_16_" fill="none" stroke="#000000" stroke-width="20.0147" stroke-linecap="round" stroke-miterlimit="10" d="
		M116.87,209.679c-7.615-1.273-15.733-1.87-23.416-2.042c-12.591-0.286-27.819-1.984-38.987,5.059
		c-9.817,6.179-13.691,20.674-4.083,29.332c9.542,8.622,25.663,9.459,37.704,7.27c25.708-4.68,39.124-17.109,58.962-26.649
		c10.137-4.885,21.029-8.863,31.969-11.524c12.316-3.005,26.537-3.404,39.034-1.043c11.193,2.134,25.778,14.172,19.747,26.42
		c-4.634,9.322-17.569,14.345-27.545,14.093c-14.837-0.39-28.896-1.961-42.748-7.328"/>
	<path id="four_30_" fill="none" stroke="#000000" stroke-width="20.0147" stroke-linecap="round" stroke-miterlimit="10" d="
		M200.876,127.244c60.385-3.188,52.588,69.5-10.043,39.514"/>
	<path id="two_95_" fill="none" stroke="#000000" stroke-width="20.0147" stroke-linecap="round" stroke-miterlimit="10" d="
		M50.912,103.736h89.58h0.022c14.471,0,26.145,7.328,26.145,16.386v13.015c0,10.997-9.61,19.952-21.513,19.952h-40.133
		c-5.94,0-12.041,1.492-15.848,5.115c-5.414,5.08-5.458,14.298-0.092,19.183c6.262,5.711,17.339,7.523,26.122,4.473"/>
</g>
</svg>
