<?xml version="1.0" encoding="utf-8"?>
<!-- Generator: Adobe Illustrator 16.0.0, SVG Export Plug-In . SVG Version: 6.00 Build 0)  -->
<!DOCTYPE svg PUBLIC "-//W3C//DTD SVG 1.1//EN" "http://www.w3.org/Graphics/SVG/1.1/DTD/svg11.dtd">
<svg version="1.1" id="Layer_1" xmlns="http://www.w3.org/2000/svg" xmlns:xlink="http://www.w3.org/1999/xlink" x="0px" y="0px"
	 width="288px" height="288px" viewBox="0 0 288 288" enable-background="new 0 0 288 288" xml:space="preserve">
<g id="_x38__7_">
	
		<path id="six_8_" fill="none" stroke="#000000" stroke-width="18.533" stroke-linecap="round" stroke-linejoin="round" stroke-miterlimit="10" d="
		M185.792,177.238c-16.31,0-29.519,12.52-29.519,27.968c0,15.417,13.209,27.947,29.519,27.947h2.719
		c16.904,0,30.602-12.073,30.602-26.96v-0.987c0,12.414,11.425,22.468,25.546,22.468"/>
	<path id="four_28_" fill="none" stroke="#000000" stroke-width="18.533" stroke-linecap="round" stroke-miterlimit="10" d="
		M201.952,82.885c24.294,0,44.023,21.726,44.023,48.536c0,26.812-19.729,48.515-44.023,48.515c-10.724,0-19.389-7.307-19.389-16.3
		c0-10.321,7.581-18.699,16.926-18.699"/>
	<path id="two_90_" fill="none" stroke="#000000" stroke-width="18.533" stroke-linecap="round" stroke-miterlimit="10" d="
		M242.449,55.534c0,0-86.176-12.401-86.176,45.095c0,10.119,6.372,21.587,17.711,24.019c11.956,2.56,25.038-6.425,25.378-17.871"/>
	
		<path id="five_14_" fill="none" stroke="#000000" stroke-width="18.533" stroke-linecap="round" stroke-linejoin="round" stroke-miterlimit="10" d="
		M100.083,177.238c16.309,0,29.54,12.52,29.54,27.968c0,15.417-13.23,27.947-29.54,27.947h-2.718
		c-16.925,0-30.602-12.073-30.602-26.96v-0.987c0,12.414-11.446,22.468-25.546,22.468"/>
	<path id="three_46_" fill="none" stroke="#000000" stroke-width="18.533" stroke-linecap="round" stroke-miterlimit="10" d="
		M83.944,82.885c-24.316,0-44.043,21.726-44.043,48.536c0,26.812,19.728,48.515,44.043,48.515c10.703,0,19.388-7.307,19.388-16.3
		c0-10.321-7.603-18.699-16.925-18.699"/>
	<path id="one_99_" fill="none" stroke="#000000" stroke-width="18.533" stroke-linecap="round" stroke-miterlimit="10" d="
		M43.404,55.534c0,0,86.219-12.401,86.219,45.095c0,10.119-6.393,21.587-17.733,24.019c-11.956,2.56-25.038-6.425-25.376-17.871"/>
</g>
</svg>
