<?xml version="1.0" encoding="utf-8"?>
<!-- Generator: Adobe Illustrator 16.0.0, SVG Export Plug-In . SVG Version: 6.00 Build 0)  -->
<!DOCTYPE svg PUBLIC "-//W3C//DTD SVG 1.1//EN" "http://www.w3.org/Graphics/SVG/1.1/DTD/svg11.dtd">
<svg version="1.1" id="Layer_1" xmlns="http://www.w3.org/2000/svg" xmlns:xlink="http://www.w3.org/1999/xlink" x="0px" y="0px"
	 width="288px" height="288px" viewBox="0 0 288 288" enable-background="new 0 0 288 288" xml:space="preserve">
<path id="three_8_" fill="none" stroke="#000000" stroke-width="18.9428" stroke-linecap="round" stroke-miterlimit="10" d="
	M66.792,77.294c17.347,13.211,33.412,27.827,50.14,41.785c12.858,10.734,28.203,25.177,45.013,28.892
	c8.779,1.926,20.31-0.48,27.56-6c12.061-9.194,18.187-24.233,13.729-38.808c-4.154-13.569-14.378-23.47-24.849-32.453
	c-20.278-17.384-41.682-33.67-63.165-49.533"/>
<path fill="none" stroke="#000000" stroke-width="18.9428" stroke-linecap="round" stroke-miterlimit="10" d="M89.544,51.136
	c0,0,102.859,40.169,94.333,106.506c-2.589,20.151-14.72,35.705-31.566,46.327c-13.485,8.512-30.106,11.5-42.825,21.279
	c-8.854,6.809-15.913,21.851-12.124,32.914c4.837,14.146,26.093,16.741,31.195,1.407"/>
</svg>
