<?xml version="1.0" encoding="utf-8"?>
<!-- Generator: Adobe Illustrator 16.0.0, SVG Export Plug-In . SVG Version: 6.00 Build 0)  -->
<!DOCTYPE svg PUBLIC "-//W3C//DTD SVG 1.1//EN" "http://www.w3.org/Graphics/SVG/1.1/DTD/svg11.dtd">
<svg version="1.1" id="Layer_1" xmlns="http://www.w3.org/2000/svg" xmlns:xlink="http://www.w3.org/1999/xlink" x="0px" y="0px"
	 width="288px" height="288px" viewBox="0 0 288 288" enable-background="new 0 0 288 288" xml:space="preserve">
<path fill="none" stroke="#000000" stroke-width="17.8973" stroke-linecap="round" stroke-linejoin="round" stroke-miterlimit="10" d="
	M204.859,31.896l11.473,29.253c-18.34,0.928-33.739,1.593-51.221-5.259C145.65,48.27,128.3,35.433,107.029,32.57
	c-2.965-0.409-41.835-1.277-41.835,3.848c0,0.048,0,61.503,0,61.537c0,0,88.117,3.986,94.667,4.848
	c16.312,2.142,33.661,3.994,49.02,10.182c11.95,4.823,18.013,15.938,11.735,27.777c-7.136,13.453-23.162,15.875-35.416,22.582
	c-19.628,10.752-38.584,33.292-39.767,56.239c-0.966,18.703,13.509,35.165,31.164,39.509c11.748,2.888,27.199,3.078,35.457-7.231
	c9.635-12.04-0.853-28.644-13.335-33.471"/>
<path fill="none" stroke="#000000" stroke-width="17.8973" stroke-linecap="round" stroke-linejoin="round" stroke-miterlimit="10" d="
	M148.639,102.25c7.153,7.193,14.421,17.345,14.278,28.695c-0.228,16.841-18.497,17.7-29.51,18.096
	c-59.932,2.143-68.213,6.433-68.213,6.433v105.318"/>
</svg>
