<?xml version="1.0" encoding="utf-8"?>
<!-- Generator: Adobe Illustrator 16.0.0, SVG Export Plug-In . SVG Version: 6.00 Build 0)  -->
<!DOCTYPE svg PUBLIC "-//W3C//DTD SVG 1.1//EN" "http://www.w3.org/Graphics/SVG/1.1/DTD/svg11.dtd">
<svg version="1.1" id="Layer_1" xmlns="http://www.w3.org/2000/svg" xmlns:xlink="http://www.w3.org/1999/xlink" x="0px" y="0px"
	 width="288px" height="288px" viewBox="0 0 288 288" enable-background="new 0 0 288 288" xml:space="preserve">
<path id="two_14_" fill="none" stroke="#000000" stroke-width="16.3648" stroke-linecap="round" stroke-miterlimit="10" d="
	M115.115,244.327c-23.432,11.122-60.986,8.587-73.545-11.048c-9.967-15.429,0.486-31.937,24.74-34.512
	c26.236-2.815,51.047,7.075,70.648,18.658c21.112,12.438,35.427,28.669,62.84,34.772c25.537,5.685,53.962-9.503,50.012-28.792
	c-2.094-10.226-10.809-17.58-20.072-21.027c-12.837-4.764-26.621-7.081-40.313-6.459c-9.896,0.462-20.316,3.246-30.104,0.317
	c-4.714-1.408-8.271-5.392-9.575-10.158c-1.408-5.206-1.532-7.596-1.532-12.951"/>
<path fill="none" stroke="#000000" stroke-width="16.3648" stroke-linecap="round" stroke-linejoin="round" stroke-miterlimit="10" d="
	M38.498,169.958L38.498,169.958c0-74.391-9.034-134.707,69.781-134.707h71.4c81.228,0,69.803,60.315,69.803,134.707l0,0H38.498z"/>
<line fill="none" stroke="#000000" stroke-width="16.3648" stroke-linecap="round" stroke-miterlimit="10" x1="249.679" y1="150.863" x2="101.351" y2="35.251"/>
<line fill="none" stroke="#000000" stroke-width="16.3648" stroke-linecap="round" stroke-miterlimit="10" x1="200.483" y1="166.313" x2="57.511" y2="51.699"/>
<line fill="none" stroke="#000000" stroke-width="16.3648" stroke-linecap="round" stroke-miterlimit="10" x1="39.818" y1="149.396" x2="186.271" y2="35.251"/>
<line fill="none" stroke="#000000" stroke-width="16.3648" stroke-linecap="round" stroke-miterlimit="10" x1="88.138" y1="166.313" x2="226.243" y2="55.605"/>
</svg>
