<?xml version="1.0" encoding="utf-8"?>
<!-- Generator: Adobe Illustrator 16.0.0, SVG Export Plug-In . SVG Version: 6.00 Build 0)  -->
<!DOCTYPE svg PUBLIC "-//W3C//DTD SVG 1.1//EN" "http://www.w3.org/Graphics/SVG/1.1/DTD/svg11.dtd">
<svg version="1.1" id="Layer_1" xmlns="http://www.w3.org/2000/svg" xmlns:xlink="http://www.w3.org/1999/xlink" x="0px" y="0px"
	 width="288px" height="288px" viewBox="0 0 288 288" enable-background="new 0 0 288 288" xml:space="preserve">
<g id="_x31_">
	<path id="one_11_" fill="none" stroke="#000000" stroke-width="17" stroke-linecap="round" stroke-miterlimit="10" d="
		M119.955,215.428c-17.474-1.518-40.456-0.317-43.888,18.374c-2.577,14.087,15.969,25.172,32.648,21.019
		c17.889-4.454,27.227-16.301,41.013-25.386c12.807-8.464,28.998-15.689,46.125-13.641c15.809,1.905,22.656,13.959,16.143,25.219
		c-8.203,14.339-30.396,17.317-45.682,9.203"/>
</g>
<path id="two_6_" fill="none" stroke="#000000" stroke-width="17" stroke-linecap="round" stroke-miterlimit="10" d="
	M253.318,65.741H48.974c-7.894,0-14.293-7.324-14.293-16.365c0-9.009,6.399-16.334,14.293-16.334h0.861h41.533h26.624"/>
<path id="two_10_" fill="none" stroke="#000000" stroke-width="17" stroke-linecap="round" stroke-miterlimit="10" d="
	M145.137,232.676V47.335c0-7.892,7.322-14.293,16.367-14.293c9.01,0,62.723,0,91.814,0"/>
<path fill="none" stroke="#000000" stroke-width="17" stroke-linecap="round" stroke-miterlimit="10" d="M39.767,251.303V220.01
	c-0.135-5.2,2.604-10.64,6.324-14.118c3.192-2.986,7.35-4.686,11.315-6.377c20.98-8.926,50.979-3.382,59.685-29.847
	c2.753-8.363,4.11-18.2,4.188-26.987c0.092-10.437,0.159-21.88-4.854-31.357C106.487,92.537,80.314,85.47,61.64,94.517
	c-9.7,4.702-17.59,13.444-21.277,23.521c-2.744,7.495-1.997,16.485,1.993,23.373c3.93,6.777,12.819,8.896,19.616,5.697
	c6.849-3.216,9.632-10.422,12.325-16.98c2.882-7.023,8.535-16.604,17.856-12.395c8.067,3.64,7.088,15.202,5.995,22.369
	c-1.397,9.191-5.494,18.267-12.83,24.222c-13.082,10.61-35.798,4.749-46.866,19.66"/>
<path fill="none" stroke="#000000" stroke-width="17" stroke-linecap="round" stroke-miterlimit="10" d="M252.008,251.303V220.01
	c0.135-5.2-2.604-10.64-6.328-14.118c-3.191-2.986-7.344-4.686-11.307-6.377c-20.979-8.926-50.979-3.382-59.689-29.847
	c-2.754-8.363-4.105-18.2-4.184-26.987c-0.096-10.437-0.158-21.88,4.852-31.357c9.934-18.787,36.105-25.854,54.781-16.807
	c9.703,4.702,17.598,13.444,21.281,23.521c2.746,7.495,2.002,16.485-1.992,23.373c-3.932,6.777-12.824,8.896-19.623,5.697
	c-6.844-3.216-9.625-10.422-12.322-16.98c-2.875-7.023-8.529-16.604-17.85-12.395c-8.07,3.64-7.094,15.202-6.006,22.369
	c1.398,9.191,5.498,18.267,12.834,24.222c13.086,10.61,35.795,4.749,46.863,19.66"/>
</svg>
