<?xml version="1.0" encoding="utf-8"?>
<!-- Generator: Adobe Illustrator 16.0.0, SVG Export Plug-In . SVG Version: 6.00 Build 0)  -->
<!DOCTYPE svg PUBLIC "-//W3C//DTD SVG 1.1//EN" "http://www.w3.org/Graphics/SVG/1.1/DTD/svg11.dtd">
<svg version="1.1" id="Layer_1" xmlns="http://www.w3.org/2000/svg" xmlns:xlink="http://www.w3.org/1999/xlink" x="0px" y="0px"
	 width="288px" height="288px" viewBox="0 0 288 288" enable-background="new 0 0 288 288" xml:space="preserve">
<line id="two_18_" fill="none" stroke="#000000" stroke-width="20.2083" stroke-linecap="round" stroke-miterlimit="10" x1="37.507" y1="69.958" x2="250.492" y2="69.958"/>
<line id="two_17_" fill="none" stroke="#000000" stroke-width="20.2083" stroke-linecap="round" stroke-miterlimit="10" x1="37.507" y1="216.154" x2="250.492" y2="216.154"/>
<path id="four_10_" fill="none" stroke="#000000" stroke-width="20.2083" stroke-linecap="round" stroke-miterlimit="10" d="
	M131.874,221.061l0.033,0.488c-0.998-40.942,40.943-38.785,43.941-38.84c14.443,0.26,30.58,1.5,43.936-5.052
	c10.811-5.299,16.867-16.068,13.863-28.065c-3.631-14.511-17.4-24.861-31.615-27.658c-11.072-2.191-23.373-0.372-33.363,4.699
	c-17.156,10.956-31.048,26.006-49.343,35.306c-9.99,5.073-22.291,6.892-33.363,4.708c-14.215-2.807-27.982-13.147-31.613-27.667
	c-3.006-11.989,3.052-22.759,13.863-28.058c13.354-6.56,29.491-5.319,43.934-5.051c2.998-0.055,44.939,2.103,43.941-38.841
	l0.035,0.488"/>
</svg>
