<?xml-stylesheet type="text/css" href="style.css"?>
<!-- Generator: Adobe Illustrator 16.0.0, SVG Export Plug-In . SVG Version: 6.00 Build 0)  -->
<!DOCTYPE svg PUBLIC "-//W3C//DTD SVG 1.1//EN" "http://www.w3.org/Graphics/SVG/1.1/DTD/svg11.dtd">
<svg class="animate2" version="1.1" id="Layer_1" xmlns="http://www.w3.org/2000/svg" xmlns:xlink="http://www.w3.org/1999/xlink" x="0px" y="0px"
	 width="517px" height="458.415px" viewBox="0 0 517 458.415" enable-background="new 0 0 517 458.415" xml:space="preserve">
<line opacity="0.7" fill="none" stroke="#000000" stroke-width="7" stroke-linecap="round" stroke-miterlimit="10" x1="59.143" y1="-46.042" x2="59.143" y2="59.458"/>
<line opacity="0.7" fill="none" stroke="#000000" stroke-width="7" stroke-linecap="round" stroke-miterlimit="10" x1="59.143" y1="59.458" x2="59.143" y2="134.791"/>
<polyline opacity="0.7" fill="none" stroke="#000000" stroke-width="7" stroke-linecap="round" stroke-miterlimit="10" points="
	59.143,134.791 59.143,205.958 59.143,205.958 59.143,277.125 "/>
<polyline opacity="0.7" fill="none" stroke="#000000" stroke-width="7" stroke-linecap="round" stroke-linejoin="round" stroke-miterlimit="10" points="
	59.143,276.998 59.143,330.332 212.834,330.332 212.834,348.165 "/>
<polyline opacity="0.7" fill="none" stroke="#000000" stroke-width="7" stroke-linecap="round" stroke-linejoin="round" stroke-miterlimit="10" points="
	68.185,277.125 68.186,321.725 221.877,321.725 221.877,348.165 "/>
<polyline opacity="0.7" fill="none" stroke="#000000" stroke-width="7" stroke-linecap="round" stroke-linejoin="round" stroke-miterlimit="10" points="
	77.227,277.125 77.227,312.892 230.918,312.892 230.918,348.165 "/>
<line class="north" opacity="0.7" fill="none" stroke="#000000" stroke-width="7" stroke-linecap="round" stroke-miterlimit="10" x1="68.185" y1="14.665" x2="68.185" y2="59.458"/>
<line class="north" opacity="0.7" fill="none" stroke="#000000" stroke-width="7" stroke-linecap="round" stroke-miterlimit="10" x1="68.185" y1="59.458" x2="68.185" y2="134.791"/>
<line class="north" fill="none" stroke="#000000" stroke-width="7" stroke-linecap="round" stroke-miterlimit="10" x1="68.185" y1="134.791" x2="68.185" y2="205.958"/>
<line class="north" fill="none" stroke="#000000" stroke-width="7" stroke-linecap="round" stroke-miterlimit="10" x1="68.185" y1="205.958" x2="68.185" y2="277.125"/>
<line class="south" fill="none" stroke="#000000" stroke-width="7" stroke-linecap="round" stroke-miterlimit="10" x1="77.226" y1="14.665" x2="77.226" y2="59.458"/>
<line class="south" opacity="0.7" fill="none" stroke="#000000" stroke-width="7" stroke-linecap="round" stroke-miterlimit="10" x1="77.226" y1="59.458" x2="77.226" y2="134.791"/>
<line opacity="0.7" fill="none" stroke="#000000" stroke-width="7" stroke-linecap="round" stroke-miterlimit="10" x1="77.226" y1="134.791" x2="77.226" y2="205.958"/>
<line opacity="0.7" fill="none" stroke="#000000" stroke-width="7" stroke-linecap="round" stroke-miterlimit="10" x1="77.226" y1="205.958" x2="77.226" y2="277.125"/>
<line opacity="0.7" fill="none" stroke="#000000" stroke-width="7" stroke-linecap="round" stroke-miterlimit="10" x1="403.291" y1="-46.042" x2="403.291" y2="59.458"/>
<line opacity="0.7" fill="none" stroke="#000000" stroke-width="7" stroke-linecap="round" stroke-miterlimit="10" x1="403.291" y1="59.458" x2="403.291" y2="134.791"/>
<line opacity="0.7" fill="none" stroke="#000000" stroke-width="7" stroke-linecap="round" stroke-miterlimit="10" x1="403.291" y1="134.791" x2="403.291" y2="205.958"/>
<line opacity="0.7" fill="none" stroke="#000000" stroke-width="7" stroke-linecap="round" stroke-miterlimit="10" x1="403.291" y1="205.958" x2="403.291" y2="277.125"/>
<line opacity="0.7" fill="none" stroke="#000000" stroke-width="7" stroke-linecap="round" stroke-miterlimit="10" x1="411.613" y1="-46.042" x2="411.613" y2="59.458"/>
<line opacity="0.7" fill="none" stroke="#000000" stroke-width="7" stroke-linecap="round" stroke-miterlimit="10" x1="411.613" y1="59.458" x2="411.613" y2="134.791"/>
<line opacity="0.7" fill="none" stroke="#000000" stroke-width="7" stroke-linecap="round" stroke-miterlimit="10" x1="411.613" y1="134.791" x2="411.613" y2="205.958"/>
<line opacity="0.7" fill="none" stroke="#000000" stroke-width="7" stroke-linecap="round" stroke-miterlimit="10" x1="411.613" y1="205.958" x2="411.613" y2="508.165"/>
<line opacity="0.7" fill="none" stroke="#000000" stroke-width="7" stroke-linecap="round" stroke-miterlimit="10" x1="420.654" y1="-46.042" x2="420.654" y2="59.458"/>
<line opacity="0.7" fill="none" stroke="#000000" stroke-width="7" stroke-linecap="round" stroke-miterlimit="10" x1="420.654" y1="59.458" x2="420.654" y2="134.791"/>
<line opacity="0.7" fill="none" stroke="#000000" stroke-width="7" stroke-linecap="round" stroke-miterlimit="10" x1="420.654" y1="134.791" x2="420.654" y2="205.958"/>
<line opacity="0.7" fill="none" stroke="#000000" stroke-width="7" stroke-linecap="round" stroke-miterlimit="10" x1="420.654" y1="205.958" x2="420.654" y2="277.125"/>
<line opacity="0.7" fill="none" stroke="#000000" stroke-width="7" stroke-linecap="round" stroke-miterlimit="10" x1="420.654" y1="277.125" x2="420.654" y2="311.999"/>
<line opacity="0.7" fill="none" stroke="#000000" stroke-width="7" stroke-linecap="round" stroke-miterlimit="10" x1="420.66" y1="311.993" x2="420.66" y2="348.165"/>
<line opacity="0.7" fill="none" stroke="#000000" stroke-width="7" stroke-linecap="round" stroke-miterlimit="10" x1="376.487" y1="311.993" x2="376.487" y2="421.665"/>
<line opacity="0.7" fill="none" stroke="#000000" stroke-width="7" stroke-linecap="round" stroke-miterlimit="10" x1="394.521" y1="277.125" x2="394.521" y2="508.165"/>
<line opacity="0.7" fill="none" stroke="#000000" stroke-width="7" stroke-linecap="round" stroke-miterlimit="10" x1="403.291" y1="277.125" x2="403.291" y2="508.165"/>
<line opacity="0.7" fill="none" stroke="#000000" stroke-width="7" stroke-linecap="round" stroke-miterlimit="10" x1="367.438" y1="311.993" x2="367.438" y2="421.665"/>
<line opacity="0.7" fill="none" stroke="#000000" stroke-width="7" stroke-linecap="round" stroke-miterlimit="10" x1="258.786" y1="276.998" x2="258.786" y2="348.165"/>
<polyline opacity="0.7" fill="none" stroke="#000000" stroke-width="7" stroke-linecap="round" stroke-linejoin="round" stroke-miterlimit="10" points="
	267.417,348.165 267.417,375.332 430.25,375.332 "/>
<polyline opacity="0.7" fill="none" stroke="#000000" stroke-width="7" stroke-linecap="round" stroke-linejoin="round" stroke-miterlimit="10" points="
	258.786,348.165 258.786,383.449 430.25,383.449 "/>
<polyline opacity="0.7" fill="none" stroke="#000000" stroke-width="7" stroke-linecap="round" stroke-linejoin="round" stroke-miterlimit="10" points="
	250.155,348.165 250.155,391.941 430.25,391.941 "/>
<polyline opacity="0.7" fill="none" stroke="#000000" stroke-width="7" stroke-linecap="round" stroke-linejoin="round" stroke-miterlimit="10" points="
	241.502,348.165 241.502,400.438 430.25,400.438 "/>
<line opacity="0.7" fill="none" stroke="#000000" stroke-width="7" stroke-linecap="round" stroke-miterlimit="10" x1="267.417" y1="276.998" x2="267.417" y2="348.165"/>
<line opacity="0.7" fill="none" stroke="#000000" stroke-width="7" stroke-linecap="round" stroke-miterlimit="10" x1="367.438" y1="277.125" x2="367.438" y2="311.999"/>
<line opacity="0.7" fill="none" stroke="#000000" stroke-width="7" stroke-linecap="round" stroke-miterlimit="10" x1="376.487" y1="277.125" x2="376.487" y2="311.999"/>
<line opacity="0.7" fill="none" stroke="#000000" stroke-width="7" stroke-linecap="round" stroke-miterlimit="10" x1="385.72" y1="311.993" x2="385.72" y2="421.665"/>
<line opacity="0.7" fill="none" stroke="#000000" stroke-width="7" stroke-linecap="round" stroke-miterlimit="10" x1="385.72" y1="277.125" x2="385.72" y2="311.999"/>
<line opacity="0.7" fill="none" stroke="#000000" stroke-width="7" stroke-linecap="round" stroke-miterlimit="10" x1="149.84" y1="277.125" x2="149.84" y2="348.165"/>
<line opacity="0.7" fill="none" stroke="#000000" stroke-width="7" stroke-linecap="round" stroke-miterlimit="10" x1="158.882" y1="277.125" x2="158.882" y2="510.165"/>
<line opacity="0.7" fill="none" stroke="#000000" stroke-width="7" stroke-linecap="round" stroke-miterlimit="10" x1="420.66" y1="348.165" x2="420.66" y2="421.665"/>
<line opacity="0.7" fill="none" stroke="#000000" stroke-width="7" stroke-linecap="round" stroke-miterlimit="10" x1="230.918" y1="348.165" x2="230.918" y2="421.665"/>
<line opacity="0.7" fill="none" stroke="#000000" stroke-width="7" stroke-linecap="round" stroke-miterlimit="10" x1="221.877" y1="348.165" x2="221.877" y2="421.665"/>
<line opacity="0.7" fill="none" stroke="#000000" stroke-width="7" stroke-linecap="round" stroke-miterlimit="10" x1="212.834" y1="348.165" x2="212.834" y2="421.665"/>
<line opacity="0.7" fill="none" stroke="#000000" stroke-width="7" stroke-linecap="round" stroke-miterlimit="10" x1="149.84" y1="386.165" x2="149.84" y2="458.415"/>
<line opacity="0.7" fill="none" stroke="#000000" stroke-width="7" stroke-linecap="round" stroke-miterlimit="10" x1="149.84" y1="348.165" x2="149.84" y2="386.165"/>
<line opacity="0.7" fill="none" stroke="#000000" stroke-width="7" stroke-linecap="round" stroke-miterlimit="10" x1="149.84" y1="59.458" x2="149.84" y2="134.791"/>
<line opacity="0.7" fill="none" stroke="#000000" stroke-width="7" stroke-linecap="round" stroke-miterlimit="10" x1="149.84" y1="134.791" x2="149.84" y2="168.498"/>
<line opacity="0.7" fill="none" stroke="#000000" stroke-width="7" stroke-linecap="round" stroke-miterlimit="10" x1="149.84" y1="168.498" x2="149.84" y2="205.958"/>
<line opacity="0.7" fill="none" stroke="#000000" stroke-width="7" stroke-linecap="round" stroke-miterlimit="10" x1="149.84" y1="205.959" x2="149.84" y2="241.542"/>
<line opacity="0.7" fill="none" stroke="#000000" stroke-width="7" stroke-linecap="round" stroke-miterlimit="10" x1="149.84" y1="241.542" x2="149.84" y2="277.125"/>
<line opacity="0.7" fill="none" stroke="#000000" stroke-width="7" stroke-linecap="round" stroke-miterlimit="10" x1="158.881" y1="59.458" x2="158.881" y2="134.791"/>
<line opacity="0.7" fill="none" stroke="#000000" stroke-width="7" stroke-linecap="round" stroke-miterlimit="10" x1="158.881" y1="134.791" x2="158.881" y2="205.958"/>
<line opacity="0.7" fill="none" stroke="#000000" stroke-width="7" stroke-linecap="round" stroke-miterlimit="10" x1="158.881" y1="205.958" x2="158.881" y2="277.125"/>
<line opacity="0.7" fill="none" stroke="#000000" stroke-width="7" stroke-linecap="round" stroke-miterlimit="10" x1="167.922" y1="59.458" x2="167.922" y2="134.791"/>
<line opacity="0.7" fill="none" stroke="#000000" stroke-width="7" stroke-linecap="round" stroke-miterlimit="10" x1="176.753" y1="14.664" x2="176.753" y2="59.458"/>
<line opacity="0.7" fill="none" stroke="#000000" stroke-width="7" stroke-linecap="round" stroke-miterlimit="10" x1="185.799" y1="14.664" x2="185.799" y2="59.458"/>
<line opacity="0.7" fill="none" stroke="#000000" stroke-width="7" stroke-linecap="round" stroke-miterlimit="10" x1="195.033" y1="14.664" x2="195.033" y2="59.458"/>
<line opacity="0.7" fill="none" stroke="#000000" stroke-width="7" stroke-linecap="round" stroke-miterlimit="10" x1="250.155" y1="14.664" x2="250.155" y2="50.748"/>
<line opacity="0.7" fill="none" stroke="#000000" stroke-width="7" stroke-linecap="round" stroke-miterlimit="10" x1="250.155" y1="-23.52" x2="250.155" y2="12.564"/>
<line opacity="0.7" fill="none" stroke="#000000" stroke-width="7" stroke-linecap="round" stroke-miterlimit="10" x1="258.786" y1="-23.52" x2="258.786" y2="12.564"/>
<line opacity="0.7" fill="none" stroke="#000000" stroke-width="7" stroke-linecap="round" stroke-miterlimit="10" x1="241.523" y1="-30.13" x2="241.523" y2="50.748"/>
<line opacity="0.7" fill="none" stroke="#000000" stroke-width="7" stroke-linecap="round" stroke-miterlimit="10" x1="258.786" y1="14.664" x2="258.786" y2="50.748"/>
<line opacity="0.7" fill="none" stroke="#000000" stroke-width="7" stroke-linecap="round" stroke-miterlimit="10" x1="258.786" y1="50.748" x2="258.786" y2="132.729"/>
<line opacity="0.7" fill="none" stroke="#000000" stroke-width="7" stroke-linecap="round" stroke-miterlimit="10" x1="258.786" y1="132.729" x2="258.786" y2="276.998"/>
<line opacity="0.7" fill="none" stroke="#000000" stroke-width="7" stroke-linecap="round" stroke-miterlimit="10" x1="250.155" y1="132.729" x2="250.155" y2="348.165"/>
<line opacity="0.7" fill="none" stroke="#000000" stroke-width="7" stroke-linecap="round" stroke-miterlimit="10" x1="241.524" y1="132.729" x2="241.524" y2="348.165"/>
<line opacity="0.7" fill="none" stroke="#000000" stroke-width="7" stroke-linecap="round" stroke-miterlimit="10" x1="250.155" y1="50.748" x2="250.155" y2="132.729"/>
<line opacity="0.7" fill="none" stroke="#000000" stroke-width="7" stroke-linecap="round" stroke-miterlimit="10" x1="241.523" y1="50.748" x2="241.523" y2="132.729"/>
<line opacity="0.7" fill="none" stroke="#000000" stroke-width="7" stroke-linecap="round" stroke-miterlimit="10" x1="267.417" y1="-28.085" x2="267.417" y2="50.748"/>
<line opacity="0.7" fill="none" stroke="#000000" stroke-width="7" stroke-linecap="round" stroke-miterlimit="10" x1="267.417" y1="50.748" x2="267.417" y2="276.998"/>
<line opacity="0.7" fill="none" stroke="#000000" stroke-width="7" stroke-linecap="round" stroke-miterlimit="10" x1="195.033" y1="-30.13" x2="195.033" y2="14.664"/>
<line opacity="0.7" fill="none" stroke="#000000" stroke-width="7" stroke-linecap="round" stroke-miterlimit="10" x1="185.799" y1="-30.13" x2="185.799" y2="14.664"/>
<line opacity="0.7" fill="none" stroke="#000000" stroke-width="7" stroke-linecap="round" stroke-miterlimit="10" x1="176.753" y1="-30.13" x2="176.753" y2="14.664"/>
<line opacity="0.7" fill="none" stroke="#000000" stroke-width="7" stroke-linecap="round" stroke-miterlimit="10" x1="68.185" y1="-29.77" x2="68.185" y2="15.024"/>
<line opacity="0.7" fill="none" stroke="#000000" stroke-width="7" stroke-linecap="round" stroke-miterlimit="10" x1="77.226" y1="-29.77" x2="77.226" y2="15.024"/>
<line opacity="0.7" fill="none" stroke="#000000" stroke-width="7" stroke-linecap="round" stroke-miterlimit="10" x1="221.877" y1="421.665" x2="221.877" y2="466.458"/>
<line opacity="0.7" fill="none" stroke="#000000" stroke-width="7" stroke-linecap="round" stroke-miterlimit="10" x1="230.918" y1="421.665" x2="230.918" y2="466.458"/>
<line opacity="0.7" fill="none" stroke="#000000" stroke-width="7" stroke-linecap="round" stroke-miterlimit="10" x1="367.438" y1="421.665" x2="367.438" y2="466.458"/>
<line opacity="0.7" fill="none" stroke="#000000" stroke-width="7" stroke-linecap="round" stroke-miterlimit="10" x1="376.487" y1="421.665" x2="376.487" y2="466.458"/>
<line opacity="0.7" fill="none" stroke="#000000" stroke-width="7" stroke-linecap="round" stroke-miterlimit="10" x1="385.72" y1="421.665" x2="385.72" y2="466.458"/>
<line opacity="0.7" fill="none" stroke="#000000" stroke-width="7" stroke-linecap="round" stroke-miterlimit="10" x1="420.654" y1="421.665" x2="420.654" y2="466.458"/>
<polyline opacity="0.7" fill="none" stroke="#000000" stroke-width="7" stroke-linecap="round" stroke-linejoin="round" stroke-miterlimit="10" points="
	167.922,59.458 167.922,43.915 88.833,-36.502 "/>
<polyline opacity="0.7" fill="none" stroke="#000000" stroke-width="7" stroke-linecap="round" stroke-linejoin="round" stroke-miterlimit="10" points="
	158.821,59.458 158.821,47.643 88.833,-23.52 "/>
<line opacity="0.7" fill="none" stroke="#000000" stroke-width="7" stroke-linecap="round" stroke-linejoin="round" stroke-miterlimit="10" x1="113.321" y1="15.024" x2="43.334" y2="-56.139"/>
<polyline opacity="0.7" fill="none" stroke="#000000" stroke-width="7" stroke-linecap="round" stroke-linejoin="round" stroke-miterlimit="10" points="
	149.84,59.458 149.84,51.796 113.321,14.665 "/>
<polyline opacity="0.7" fill="none" stroke="#000000" stroke-width="7" stroke-linecap="round" stroke-linejoin="round" stroke-miterlimit="10" points="
	230.918,106.979 385.72,260.884 385.72,277.125 "/>
<polyline opacity="0.7" fill="none" stroke="#000000" stroke-width="7" stroke-linecap="round" stroke-linejoin="round" stroke-miterlimit="10" points="
	195.033,59.458 195.033,70.885 230.918,106.979 "/>
<line opacity="0.7" fill="none" stroke="#000000" stroke-width="7" stroke-linecap="round" stroke-miterlimit="10" x1="203.833" y1="-30.13" x2="203.833" y2="60.178"/>
<polyline opacity="0.7" fill="none" stroke="#000000" stroke-width="7" stroke-linecap="round" stroke-linejoin="round" stroke-miterlimit="10" points="
	230.918,95.708 394.521,257.597 394.521,277.125 "/>
<polyline opacity="0.7" fill="none" stroke="#000000" stroke-width="7" stroke-linecap="round" stroke-linejoin="round" stroke-miterlimit="10" points="
	203.833,59.458 203.833,67.593 230.918,95.708 "/>
<polyline opacity="0.7" fill="none" stroke="#000000" stroke-width="7" stroke-linecap="round" stroke-linejoin="round" stroke-miterlimit="10" points="
	319.022,207.392 376.487,264.406 376.487,277.125 "/>
<line opacity="0.7" fill="none" stroke="#000000" stroke-width="7" stroke-linecap="round" stroke-linejoin="round" stroke-miterlimit="10" x1="230.918" y1="119.979" x2="282.377" y2="171.034"/>
<line opacity="0.7" fill="none" stroke="#000000" stroke-width="7" stroke-linecap="round" stroke-linejoin="round" stroke-miterlimit="10" x1="282.59" y1="171.034" x2="319.022" y2="207.392"/>
<line opacity="0.7" fill="none" stroke="#000000" stroke-width="7" stroke-linecap="round" stroke-linejoin="round" stroke-miterlimit="10" x1="275.828" y1="176.864" x2="312.261" y2="213.222"/>
<polyline opacity="0.7" fill="none" stroke="#000000" stroke-width="7" stroke-linecap="round" stroke-linejoin="round" stroke-miterlimit="10" points="
	185.799,59.458 185.799,74.408 230.918,119.979 "/>
<polyline opacity="0.7" fill="none" stroke="#000000" stroke-width="7" stroke-linecap="round" stroke-linejoin="round" stroke-miterlimit="10" points="
	312.72,213.588 367.438,267.927 367.438,277.125 "/>
<line opacity="0.7" fill="none" stroke="#000000" stroke-width="7" stroke-linecap="round" stroke-linejoin="round" stroke-miterlimit="10" x1="231.105" y1="132.542" x2="275.828" y2="176.864"/>
<polyline opacity="0.7" fill="none" stroke="#000000" stroke-width="7" stroke-linecap="round" stroke-linejoin="round" stroke-miterlimit="10" points="
	176.753,59.458 176.753,77.93 231.105,132.542 "/>
<line opacity="0.7" fill="none" stroke="#000000" stroke-width="7" stroke-linecap="round" stroke-miterlimit="10" x1="167.922" y1="134.791" x2="167.922" y2="205.958"/>
<line opacity="0.7" fill="none" stroke="#000000" stroke-width="7" stroke-linecap="round" stroke-miterlimit="10" x1="167.922" y1="205.958" x2="167.922" y2="510.165"/>
<line opacity="0.7" fill="none" stroke="#000000" stroke-width="7" stroke-linecap="round" stroke-linejoin="round" stroke-miterlimit="10" x1="-24.667" y1="50.748" x2="203.833" y2="50.748"/>
<line opacity="0.7" fill="none" stroke="#000000" stroke-width="7" stroke-linecap="round" stroke-linejoin="round" stroke-miterlimit="10" x1="203.833" y1="50.748" x2="331.5" y2="50.748"/>
<line opacity="0.7" fill="none" stroke="#000000" stroke-width="7" stroke-linecap="round" stroke-linejoin="round" stroke-miterlimit="10" x1="331.5" y1="50.748" x2="394.521" y2="50.748"/>
<line opacity="0.7" fill="none" stroke="#000000" stroke-width="7" stroke-linecap="round" stroke-linejoin="round" stroke-miterlimit="10" x1="394.521" y1="50.748" x2="523.836" y2="50.748"/>
<line opacity="0.7" fill="none" stroke="#000000" stroke-width="7" stroke-linecap="round" stroke-linejoin="round" stroke-miterlimit="10" x1="203.833" y1="59.458" x2="394.521" y2="59.458"/>
<line opacity="0.7" fill="none" stroke="#000000" stroke-width="7" stroke-linecap="round" stroke-linejoin="round" stroke-miterlimit="10" x1="230.918" y1="277.125" x2="430.125" y2="277.125"/>
<line opacity="0.7" fill="none" stroke="#000000" stroke-width="7" stroke-linecap="round" stroke-linejoin="round" stroke-miterlimit="10" x1="430.125" y1="277.125" x2="523.836" y2="277.125"/>
<line opacity="0.7" fill="none" stroke="#000000" stroke-width="7" stroke-linecap="round" stroke-linejoin="round" stroke-miterlimit="10" x1="430.125" y1="375.332" x2="523.836" y2="375.332"/>
<line opacity="0.7" fill="none" stroke="#000000" stroke-width="7" stroke-linecap="round" stroke-linejoin="round" stroke-miterlimit="10" x1="430.125" y1="383.449" x2="523.836" y2="383.449"/>
<line opacity="0.7" fill="none" stroke="#000000" stroke-width="7" stroke-linecap="round" stroke-linejoin="round" stroke-miterlimit="10" x1="430.125" y1="391.941" x2="523.836" y2="391.941"/>
<line opacity="0.7" fill="none" stroke="#000000" stroke-width="7" stroke-linecap="round" stroke-linejoin="round" stroke-miterlimit="10" x1="430.125" y1="400.438" x2="523.836" y2="400.438"/>
<line opacity="0.7" fill="none" stroke="#000000" stroke-width="7" stroke-linecap="round" stroke-linejoin="round" stroke-miterlimit="10" x1="86.375" y1="277.125" x2="230.918" y2="277.125"/>
<circle fill="#CC2229" cx="59.143" cy="59.458" r="3.525"/>
<circle fill="#CC2229" cx="59.143" cy="134.791" r="3.525"/>
<circle fill="#CC2229" cx="68.185" cy="59.458" r="3.525"/>
<circle fill="#CC2229" cx="68.185" cy="14.664" r="3.525"/>
<circle fill="#CC2229" cx="77.226" cy="14.664" r="3.525"/>
<circle fill="#CC2229" cx="113.321" cy="14.664" r="3.525"/>
<circle fill="#CC2229" cx="68.185" cy="134.791" r="3.525"/>
<circle fill="#CC2229" cx="68.185" cy="205.958" r="3.525"/>
<circle fill="#CC2229" cx="68.185" cy="277.125" r="3.525"/>
<circle fill="#CC2229" cx="59.143" cy="277.125" r="3.525"/>
<circle fill="#CC2229" cx="77.226" cy="59.458" r="3.525"/>
<circle fill="#CC2229" cx="77.226" cy="134.791" r="3.525"/>
<circle fill="#CC2229" cx="77.226" cy="205.958" r="3.525"/>
<circle fill="#CC2229" cx="77.226" cy="277.125" r="3.525"/>
<circle fill="#CC2229" cx="212.834" cy="348.165" r="3.526"/>
<circle fill="#CC2229" cx="149.84" cy="348.165" r="3.526"/>
<circle fill="#CC2229" cx="149.84" cy="386.165" r="3.526"/>
<circle fill="#CC2229" cx="230.918" cy="421.665" r="3.525"/>
<circle fill="#CC2229" cx="367.438" cy="421.665" r="3.525"/>
<circle fill="#CC2229" cx="376.487" cy="421.665" r="3.525"/>
<circle fill="#CC2229" cx="385.72" cy="421.665" r="3.525"/>
<circle fill="#CC2229" cx="420.66" cy="421.665" r="3.525"/>
<circle fill="#CC2229" cx="430.25" cy="400.438" r="3.525"/>
<circle fill="#CC2229" cx="430.25" cy="391.941" r="3.525"/>
<circle fill="#CC2229" cx="430.25" cy="383.449" r="3.525"/>
<circle fill="#CC2229" cx="430.25" cy="375.332" r="3.525"/>
<circle fill="#CC2229" cx="430.25" cy="277.125" r="3.525"/>
<circle fill="#CC2229" cx="420.66" cy="277.125" r="3.525"/>
<circle fill="#CC2229" cx="420.66" cy="311.999" r="3.525"/>
<circle fill="#CC2229" cx="420.66" cy="348.165" r="3.525"/>
<circle fill="#CC2229" cx="385.72" cy="311.993" r="3.525"/>
<circle fill="#CC2229" cx="376.487" cy="311.993" r="3.525"/>
<circle fill="#CC2229" cx="367.438" cy="311.993" r="3.525"/>
<circle fill="#CC2229" cx="367.438" cy="277.125" r="3.525"/>
<circle fill="#CC2229" cx="376.487" cy="277.125" r="3.525"/>
<circle fill="#CC2229" cx="385.72" cy="277.125" r="3.525"/>
<circle fill="#CC2229" cx="394.521" cy="277.125" r="3.525"/>
<circle fill="#CC2229" cx="403.291" cy="277.125" r="3.525"/>
<circle fill="#CC2229" cx="403.291" cy="205.958" r="3.525"/>
<circle fill="#CC2229" cx="411.613" cy="205.958" r="3.525"/>
<circle fill="#CC2229" cx="420.654" cy="205.958" r="3.525"/>
<circle fill="#CC2229" cx="420.654" cy="170.374" r="3.525"/>
<circle fill="#CC2229" cx="420.654" cy="134.791" r="3.525"/>
<circle fill="#CC2229" cx="411.613" cy="134.791" r="3.525"/>
<circle fill="#CC2229" cx="411.613" cy="59.458" r="3.525"/>
<circle fill="#CC2229" cx="403.291" cy="59.458" r="3.525"/>
<circle fill="#CC2229" cx="394.521" cy="59.458" r="3.525"/>
<circle fill="#CC2229" cx="394.521" cy="50.748" r="3.525"/>
<circle fill="#CC2229" cx="331.5" cy="50.748" r="3.525"/>
<circle fill="#CC2229" cx="267.417" cy="50.748" r="3.525"/>
<circle fill="#CC2229" cx="258.786" cy="50.748" r="3.525"/>
<circle fill="#CC2229" cx="250.155" cy="50.748" r="3.525"/>
<circle fill="#CC2229" cx="241.524" cy="50.748" r="3.525"/>
<circle fill="#CC2229" cx="203.833" cy="50.748" r="3.525"/>
<circle fill="#CC2229" cx="203.833" cy="59.458" r="3.525"/>
<circle fill="#CC2229" cx="195.033" cy="59.458" r="3.525"/>
<circle fill="#CC2229" cx="185.799" cy="59.458" r="3.525"/>
<circle fill="#CC2229" cx="176.753" cy="59.458" r="3.525"/>
<circle fill="#CC2229" cx="176.753" cy="14.664" r="3.525"/>
<circle fill="#CC2229" cx="185.799" cy="14.664" r="3.525"/>
<circle fill="#CC2229" cx="195.033" cy="14.664" r="3.525"/>
<circle fill="#CC2229" cx="250.155" cy="14.664" r="3.525"/>
<circle fill="#CC2229" cx="258.786" cy="14.664" r="3.525"/>
<circle fill="#CC2229" cx="167.922" cy="59.458" r="3.525"/>
<circle fill="#CC2229" cx="158.881" cy="59.458" r="3.525"/>
<circle fill="#CC2229" cx="158.881" cy="134.791" r="3.525"/>
<circle fill="#CC2229" cx="158.881" cy="205.959" r="3.525"/>
<circle fill="#CC2229" cx="167.922" cy="134.791" r="3.525"/>
<circle fill="#CC2229" cx="167.922" cy="205.959" r="3.525"/>
<circle fill="#CC2229" cx="149.84" cy="59.458" r="3.525"/>
<circle fill="#CC2229" cx="149.84" cy="134.791" r="3.525"/>
<circle fill="#CC2229" cx="149.84" cy="205.958" r="3.525"/>
<circle fill="#CC2229" cx="149.84" cy="168.498" r="3.525"/>
<circle fill="#CC2229" cx="149.84" cy="241.542" r="3.525"/>
<circle fill="#CC2229" cx="149.84" cy="277.125" r="3.525"/>
<circle fill="#CC2229" cx="86.375" cy="277.125" r="3.525"/>
<circle fill="#CC2229" cx="158.882" cy="277.125" r="3.525"/>
<circle fill="#CC2229" cx="230.918" cy="277.125" r="3.525"/>
<circle fill="#CC2229" cx="230.918" cy="132.729" r="3.525"/>
<circle fill="#CC2229" cx="241.524" cy="132.729" r="3.525"/>
<circle fill="#CC2229" cx="250.155" cy="132.729" r="3.525"/>
<circle fill="#CC2229" cx="258.786" cy="132.729" r="3.525"/>
<circle fill="#CC2229" cx="275.828" cy="176.864" r="3.525"/>
<circle fill="#CC2229" cx="282.377" cy="171.034" r="3.525"/>
<circle fill="#CC2229" cx="319.022" cy="207.392" r="3.525"/>
<circle fill="#CC2229" cx="312.72" cy="213.588" r="3.525"/>
<circle fill="#CC2229" cx="230.918" cy="119.979" r="3.525"/>
<circle fill="#CC2229" cx="230.918" cy="106.979" r="3.525"/>
<circle fill="#CC2229" cx="230.918" cy="95.708" r="3.525"/>
<circle fill="#CC2229" cx="258.786" cy="277.125" r="3.525"/>
<circle fill="#CC2229" cx="267.417" cy="277.125" r="3.525"/>
<circle fill="#CC2229" cx="420.654" cy="59.458" r="3.525"/>
<circle fill="#CC2229" cx="403.291" cy="134.791" r="3.525"/>
<circle fill="#CC2229" cx="221.877" cy="421.665" r="3.525"/>
<circle fill="#CC2229" cx="212.834" cy="421.665" r="3.525"/>
<circle fill="#CC2229" cx="221.877" cy="348.165" r="3.525"/>
<circle fill="#CC2229" cx="230.918" cy="348.165" r="3.525"/>
<circle fill="#CC2229" cx="241.502" cy="348.165" r="3.525"/>
<circle fill="#CC2229" cx="250.155" cy="348.165" r="3.525"/>
<circle fill="#CC2229" cx="258.786" cy="348.165" r="3.525"/>
<circle fill="#CC2229" cx="267.417" cy="348.165" r="3.525"/>
</svg>
