<?xml version="1.0" encoding="utf-8"?>
<!-- Generator: Adobe Illustrator 16.0.0, SVG Export Plug-In . SVG Version: 6.00 Build 0)  -->
<!DOCTYPE svg PUBLIC "-//W3C//DTD SVG 1.1//EN" "http://www.w3.org/Graphics/SVG/1.1/DTD/svg11.dtd">
<svg version="1.1" id="Layer_1" xmlns="http://www.w3.org/2000/svg" xmlns:xlink="http://www.w3.org/1999/xlink" x="0px" y="0px"
	 width="288px" height="288px" viewBox="0 0 288 288" enable-background="new 0 0 288 288" xml:space="preserve">
<path fill="none" stroke="#000000" stroke-width="16.8259" stroke-linecap="round" stroke-linejoin="round" stroke-miterlimit="10" d="
	M37.279,81.035L137.767,60.69c3.955,8.083,10.067,16.154,19.137,18.505c9.014,2.35,18.195-2.076,27.008-3.747
	c10.131-1.918,21.264-3.534,31.529-2.255c18.207,2.278,31.389,13.832,27.91,33.347c-1.104,6.208-4.547,11.493-9.266,15.611
	c-8.963,7.813-20.912,11.094-32.318,13.372c-17.699,3.518-35.592,6.288-53.643,6.877c-15.434,0.499-30.848-0.808-46.268-1.101
	c-20.074-0.38-46.377,2.645-60.102,19.208c-16.811,20.3-15.129,60.551,10.275,72.15c33.762,15.42,68.785-15.946,93.386-34.822
	c15.044-11.526,32.999-21.388,51.38-26.25c11.98-3.169,25.012-4.717,37.25-2.216c22.797,4.649,38.014,32.162,18.74,50.258
	c-8.418,7.914-19.969,12.313-31.332,13.659c-6.529,0.763-13.484,0.701-20.008-0.17c-8.141-1.081-16.66-3.673-23.934-7.526"/>
</svg>
