<?xml-stylesheet type="text/css" href="style3.css"?>
<!-- Generator: Adobe Illustrator 16.0.0, SVG Export Plug-In . SVG Version: 6.00 Build 0)  -->
<!DOCTYPE svg PUBLIC "-//W3C//DTD SVG 1.1//EN" "http://www.w3.org/Graphics/SVG/1.1/DTD/svg11.dtd">
<svg version="1.1" id="Layer_1" xmlns="http://www.w3.org/2000/svg" xmlns:xlink="http://www.w3.org/1999/xlink" x="0px" y="0px"
	 width="259.903px" height="187.491px" viewBox="0 0 259.903 187.491" enable-background="new 0 0 259.903 187.491"
	 xml:space="preserve">
<g class="wave">

		<polyline opacity="0.2" fill="none" stroke="#ffffff" stroke-width="7.003" stroke-linecap="round" stroke-linejoin="round" stroke-miterlimit="10" points="
		218.184,38.101 205.537,45.403 192.891,38.101 	"/>

		<polyline opacity="0.2" fill="none" stroke="#ffffff" stroke-width="7.003" stroke-linecap="round" stroke-linejoin="round" stroke-miterlimit="10" points="
		192.862,38.101 180.216,45.403 167.569,38.101 	"/>

		<polyline opacity="0.2" fill="none" stroke="#ffffff" stroke-width="7.003" stroke-linecap="round" stroke-linejoin="round" stroke-miterlimit="10" points="
		167.569,38.101 154.923,45.403 142.276,38.101 	"/>

		<polyline opacity="0.2" fill="none" stroke="#ffffff" stroke-width="7.003" stroke-linecap="round" stroke-linejoin="round" stroke-miterlimit="10" points="
		142.276,38.101 129.63,45.403 116.983,38.101 	"/>

		<polyline opacity="0.2" fill="none" stroke="#ffffff" stroke-width="7.003" stroke-linecap="round" stroke-linejoin="round" stroke-miterlimit="10" points="
		116.955,38.101 104.309,45.403 91.662,38.101 	"/>

		<polyline opacity="0.2" fill="none" stroke="#ffffff" stroke-width="7.003" stroke-linecap="round" stroke-linejoin="round" stroke-miterlimit="10" points="
		91.662,38.101 79.016,45.403 66.369,38.101 	"/>

		<polyline opacity="0.2" fill="none" stroke="#ffffff" stroke-width="7.003" stroke-linecap="round" stroke-linejoin="round" stroke-miterlimit="10" points="
		66.369,38.101 53.723,45.403 41.076,38.101 	"/>
</g>
<g class="wave2">

		<polyline opacity="0.2" fill="none" stroke="#ffffff" stroke-width="7.003" stroke-linecap="round" stroke-linejoin="round" stroke-miterlimit="10" points="
		218.212,52.705 205.565,45.403 192.919,52.705 	"/>

		<polyline opacity="0.2" fill="none" stroke="#ffffff" stroke-width="7.003" stroke-linecap="round" stroke-linejoin="round" stroke-miterlimit="10" points="
		192.891,52.705 180.244,45.403 167.598,52.705 	"/>

		<polyline opacity="0.2" fill="none" stroke="#ffffff" stroke-width="7.003" stroke-linecap="round" stroke-linejoin="round" stroke-miterlimit="10" points="
		167.598,52.705 154.951,45.403 142.305,52.705 	"/>

		<polyline opacity="0.2" fill="none" stroke="#ffffff" stroke-width="7.003" stroke-linecap="round" stroke-linejoin="round" stroke-miterlimit="10" points="
		142.305,52.705 129.658,45.403 117.012,52.705 	"/>

		<polyline opacity="0.2" fill="none" stroke="#ffffff" stroke-width="7.003" stroke-linecap="round" stroke-linejoin="round" stroke-miterlimit="10" points="
		116.983,52.705 104.337,45.403 91.69,52.705 	"/>

		<polyline opacity="0.2" fill="none" stroke="#ffffff" stroke-width="7.003" stroke-linecap="round" stroke-linejoin="round" stroke-miterlimit="10" points="
		91.69,52.705 79.044,45.403 66.397,52.705 	"/>

		<polyline opacity="0.2" fill="none" stroke="#ffffff" stroke-width="7.003" stroke-linecap="round" stroke-linejoin="round" stroke-miterlimit="10" points="
		66.397,52.705 53.751,45.403 41.104,52.705 	"/>
</g>
<g class="wave">

		<polyline opacity="0.2" fill="none" stroke="#ffffff" stroke-width="7.003" stroke-linecap="round" stroke-linejoin="round" stroke-miterlimit="10" points="
		218.184,52.705 205.537,60.006 192.891,52.705 	"/>

		<polyline opacity="0.2" fill="none" stroke="#ffffff" stroke-width="7.003" stroke-linecap="round" stroke-linejoin="round" stroke-miterlimit="10" points="
		192.862,52.705 180.216,60.006 167.569,52.705 	"/>

		<polyline opacity="0.2" fill="none" stroke="#ffffff" stroke-width="7.003" stroke-linecap="round" stroke-linejoin="round" stroke-miterlimit="10" points="
		167.569,52.705 154.923,60.006 142.276,52.705 	"/>

		<polyline opacity="0.2" fill="none" stroke="#ffffff" stroke-width="7.003" stroke-linecap="round" stroke-linejoin="round" stroke-miterlimit="10" points="
		142.276,52.705 129.63,60.006 116.983,52.705 	"/>

		<polyline opacity="0.2" fill="none" stroke="#ffffff" stroke-width="7.003" stroke-linecap="round" stroke-linejoin="round" stroke-miterlimit="10" points="
		116.955,52.705 104.309,60.006 91.662,52.705 	"/>

		<polyline opacity="0.2" fill="none" stroke="#ffffff" stroke-width="7.003" stroke-linecap="round" stroke-linejoin="round" stroke-miterlimit="10" points="
		91.662,52.705 79.016,60.006 66.369,52.705 	"/>

		<polyline opacity="0.2" fill="none" stroke="#ffffff" stroke-width="7.003" stroke-linecap="round" stroke-linejoin="round" stroke-miterlimit="10" points="
		66.369,52.705 53.723,60.006 41.076,52.705 	"/>
</g>
<g class="wave2">

		<polyline opacity="0.2" fill="none" stroke="#ffffff" stroke-width="7.003" stroke-linecap="round" stroke-linejoin="round" stroke-miterlimit="10" points="
		218.212,67.308 205.565,60.006 192.919,67.308 	"/>

		<polyline opacity="0.2" fill="none" stroke="#ffffff" stroke-width="7.003" stroke-linecap="round" stroke-linejoin="round" stroke-miterlimit="10" points="
		192.891,67.308 180.244,60.006 167.598,67.308 	"/>

		<polyline opacity="0.2" fill="none" stroke="#ffffff" stroke-width="7.003" stroke-linecap="round" stroke-linejoin="round" stroke-miterlimit="10" points="
		167.598,67.308 154.951,60.006 142.305,67.308 	"/>

		<polyline opacity="0.2" fill="none" stroke="#ffffff" stroke-width="7.003" stroke-linecap="round" stroke-linejoin="round" stroke-miterlimit="10" points="
		142.305,67.308 129.658,60.006 117.012,67.308 	"/>

		<polyline opacity="0.2" fill="none" stroke="#ffffff" stroke-width="7.003" stroke-linecap="round" stroke-linejoin="round" stroke-miterlimit="10" points="
		116.983,67.308 104.337,60.006 91.69,67.308 	"/>

		<polyline opacity="0.2" fill="none" stroke="#ffffff" stroke-width="7.003" stroke-linecap="round" stroke-linejoin="round" stroke-miterlimit="10" points="
		91.69,67.308 79.044,60.006 66.397,67.308 	"/>

		<polyline opacity="0.2" fill="none" stroke="#ffffff" stroke-width="7.003" stroke-linecap="round" stroke-linejoin="round" stroke-miterlimit="10" points="
		66.397,67.308 53.751,60.006 41.104,67.308 	"/>
</g>
<g class="wave">

		<polyline opacity="0.2" fill="none" stroke="#ffffff" stroke-width="7.003" stroke-linecap="round" stroke-linejoin="round" stroke-miterlimit="10" points="
		218.184,67.308 205.537,74.61 192.891,67.308 	"/>

		<polyline opacity="0.2" fill="none" stroke="#ffffff" stroke-width="7.003" stroke-linecap="round" stroke-linejoin="round" stroke-miterlimit="10" points="
		192.862,67.308 180.216,74.61 167.569,67.308 	"/>

		<polyline opacity="0.2" fill="none" stroke="#ffffff" stroke-width="7.003" stroke-linecap="round" stroke-linejoin="round" stroke-miterlimit="10" points="
		167.569,67.308 154.923,74.61 142.276,67.308 	"/>

		<polyline opacity="0.2" fill="none" stroke="#ffffff" stroke-width="7.003" stroke-linecap="round" stroke-linejoin="round" stroke-miterlimit="10" points="
		142.276,67.308 129.63,74.61 116.983,67.308 	"/>

		<polyline opacity="0.2" fill="none" stroke="#ffffff" stroke-width="7.003" stroke-linecap="round" stroke-linejoin="round" stroke-miterlimit="10" points="
		116.955,67.308 104.309,74.61 91.662,67.308 	"/>

		<polyline opacity="0.2" fill="none" stroke="#ffffff" stroke-width="7.003" stroke-linecap="round" stroke-linejoin="round" stroke-miterlimit="10" points="
		91.662,67.308 79.016,74.61 66.369,67.308 	"/>

		<polyline opacity="0.2" fill="none" stroke="#ffffff" stroke-width="7.003" stroke-linecap="round" stroke-linejoin="round" stroke-miterlimit="10" points="
		66.369,67.308 53.723,74.61 41.076,67.308 	"/>
</g>
<g class="wave2">

		<polyline opacity="0.2" fill="none" stroke="#ffffff" stroke-width="7.003" stroke-linecap="round" stroke-linejoin="round" stroke-miterlimit="10" points="
		218.212,81.912 205.565,74.61 192.919,81.912 	"/>

		<polyline opacity="0.2" fill="none" stroke="#ffffff" stroke-width="7.003" stroke-linecap="round" stroke-linejoin="round" stroke-miterlimit="10" points="
		192.891,81.912 180.244,74.61 167.598,81.912 	"/>

		<polyline opacity="0.2" fill="none" stroke="#ffffff" stroke-width="7.003" stroke-linecap="round" stroke-linejoin="round" stroke-miterlimit="10" points="
		167.598,81.912 154.951,74.61 142.305,81.912 	"/>

		<polyline opacity="0.2" fill="none" stroke="#ffffff" stroke-width="7.003" stroke-linecap="round" stroke-linejoin="round" stroke-miterlimit="10" points="
		142.305,81.912 129.658,74.61 117.012,81.912 	"/>

		<polyline opacity="0.2" fill="none" stroke="#ffffff" stroke-width="7.003" stroke-linecap="round" stroke-linejoin="round" stroke-miterlimit="10" points="
		116.983,81.912 104.337,74.61 91.69,81.912 	"/>

		<polyline opacity="0.2" fill="none" stroke="#ffffff" stroke-width="7.003" stroke-linecap="round" stroke-linejoin="round" stroke-miterlimit="10" points="
		91.69,81.912 79.044,74.61 66.397,81.912 	"/>

		<polyline opacity="0.2" fill="none" stroke="#ffffff" stroke-width="7.003" stroke-linecap="round" stroke-linejoin="round" stroke-miterlimit="10" points="
		66.397,81.912 53.751,74.61 41.104,81.912 	"/>
</g>
<g class="wave">

		<polyline opacity="0.2" fill="none" stroke="#ffffff" stroke-width="7.003" stroke-linecap="round" stroke-linejoin="round" stroke-miterlimit="10" points="
		218.184,81.912 205.537,89.213 192.891,81.912 	"/>

		<polyline opacity="0.2" fill="none" stroke="#ffffff" stroke-width="7.003" stroke-linecap="round" stroke-linejoin="round" stroke-miterlimit="10" points="
		192.862,81.912 180.216,89.213 167.569,81.912 	"/>

		<polyline opacity="0.2" fill="none" stroke="#ffffff" stroke-width="7.003" stroke-linecap="round" stroke-linejoin="round" stroke-miterlimit="10" points="
		167.569,81.912 154.923,89.213 142.276,81.912 	"/>

		<polyline opacity="0.2" fill="none" stroke="#ffffff" stroke-width="7.003" stroke-linecap="round" stroke-linejoin="round" stroke-miterlimit="10" points="
		142.276,81.912 129.63,89.213 116.983,81.912 	"/>

		<polyline opacity="0.2" fill="none" stroke="#ffffff" stroke-width="7.003" stroke-linecap="round" stroke-linejoin="round" stroke-miterlimit="10" points="
		116.955,81.912 104.309,89.213 91.662,81.912 	"/>

		<polyline opacity="0.2" fill="none" stroke="#ffffff" stroke-width="7.003" stroke-linecap="round" stroke-linejoin="round" stroke-miterlimit="10" points="
		91.662,81.912 79.016,89.213 66.369,81.912 	"/>

		<polyline opacity="0.2" fill="none" stroke="#ffffff" stroke-width="7.003" stroke-linecap="round" stroke-linejoin="round" stroke-miterlimit="10" points="
		66.369,81.912 53.723,89.213 41.076,81.912 	"/>
</g>
<g class="wave2">

		<polyline opacity="0.2" fill="none" stroke="#ffffff" stroke-width="7.003" stroke-linecap="round" stroke-linejoin="round" stroke-miterlimit="10" points="
		218.212,96.515 205.565,89.213 192.919,96.515 	"/>

		<polyline opacity="0.2" fill="none" stroke="#ffffff" stroke-width="7.003" stroke-linecap="round" stroke-linejoin="round" stroke-miterlimit="10" points="
		192.891,96.515 180.244,89.213 167.598,96.515 	"/>

		<polyline opacity="0.2" fill="none" stroke="#ffffff" stroke-width="7.003" stroke-linecap="round" stroke-linejoin="round" stroke-miterlimit="10" points="
		167.598,96.515 154.951,89.213 142.305,96.515 	"/>

		<polyline opacity="0.2" fill="none" stroke="#ffffff" stroke-width="7.003" stroke-linecap="round" stroke-linejoin="round" stroke-miterlimit="10" points="
		142.305,96.515 129.658,89.213 117.012,96.515 	"/>

		<polyline opacity="0.2" fill="none" stroke="#ffffff" stroke-width="7.003" stroke-linecap="round" stroke-linejoin="round" stroke-miterlimit="10" points="
		116.983,96.515 104.337,89.213 91.69,96.515 	"/>

		<polyline opacity="0.2" fill="none" stroke="#ffffff" stroke-width="7.003" stroke-linecap="round" stroke-linejoin="round" stroke-miterlimit="10" points="
		91.69,96.515 79.044,89.213 66.397,96.515 	"/>

		<polyline opacity="0.2" fill="none" stroke="#ffffff" stroke-width="7.003" stroke-linecap="round" stroke-linejoin="round" stroke-miterlimit="10" points="
		66.397,96.515 53.751,89.213 41.104,96.515 	"/>
</g>
<g class="wave">

		<polyline opacity="0.2" fill="none" stroke="#ffffff" stroke-width="7.003" stroke-linecap="round" stroke-linejoin="round" stroke-miterlimit="10" points="
		218.184,96.515 205.537,103.817 192.891,96.515 	"/>

		<polyline opacity="0.2" fill="none" stroke="#ffffff" stroke-width="7.003" stroke-linecap="round" stroke-linejoin="round" stroke-miterlimit="10" points="
		192.862,96.515 180.216,103.817 167.569,96.515 	"/>

		<polyline opacity="0.2" fill="none" stroke="#ffffff" stroke-width="7.003" stroke-linecap="round" stroke-linejoin="round" stroke-miterlimit="10" points="
		167.569,96.515 154.923,103.817 142.276,96.515 	"/>

		<polyline opacity="0.2" fill="none" stroke="#ffffff" stroke-width="7.003" stroke-linecap="round" stroke-linejoin="round" stroke-miterlimit="10" points="
		142.276,96.515 129.63,103.817 116.983,96.515 	"/>

		<polyline opacity="0.2" fill="none" stroke="#ffffff" stroke-width="7.003" stroke-linecap="round" stroke-linejoin="round" stroke-miterlimit="10" points="
		116.955,96.515 104.309,103.817 91.662,96.515 	"/>

		<polyline opacity="0.2" fill="none" stroke="#ffffff" stroke-width="7.003" stroke-linecap="round" stroke-linejoin="round" stroke-miterlimit="10" points="
		91.662,96.515 79.016,103.817 66.369,96.515 	"/>

		<polyline opacity="0.2" fill="none" stroke="#ffffff" stroke-width="7.003" stroke-linecap="round" stroke-linejoin="round" stroke-miterlimit="10" points="
		66.369,96.515 53.723,103.817 41.076,96.515 	"/>
</g>
<g class="wave2">

		<polyline opacity="0.2" fill="none" stroke="#ffffff" stroke-width="7.003" stroke-linecap="round" stroke-linejoin="round" stroke-miterlimit="10" points="
		218.212,111.119 205.565,103.817 192.919,111.119 	"/>

		<polyline opacity="0.2" fill="none" stroke="#ffffff" stroke-width="7.003" stroke-linecap="round" stroke-linejoin="round" stroke-miterlimit="10" points="
		192.891,111.119 180.244,103.817 167.598,111.119 	"/>

		<polyline opacity="0.2" fill="none" stroke="#ffffff" stroke-width="7.003" stroke-linecap="round" stroke-linejoin="round" stroke-miterlimit="10" points="
		167.598,111.119 154.951,103.817 142.305,111.119 	"/>

		<polyline opacity="0.2" fill="none" stroke="#ffffff" stroke-width="7.003" stroke-linecap="round" stroke-linejoin="round" stroke-miterlimit="10" points="
		142.305,111.119 129.658,103.817 117.012,111.119 	"/>

		<polyline opacity="0.2" fill="none" stroke="#ffffff" stroke-width="7.003" stroke-linecap="round" stroke-linejoin="round" stroke-miterlimit="10" points="
		116.983,111.119 104.337,103.817 91.69,111.119 	"/>

		<polyline opacity="0.2" fill="none" stroke="#ffffff" stroke-width="7.003" stroke-linecap="round" stroke-linejoin="round" stroke-miterlimit="10" points="
		91.69,111.119 79.044,103.817 66.397,111.119 	"/>

		<polyline opacity="0.2" fill="none" stroke="#ffffff" stroke-width="7.003" stroke-linecap="round" stroke-linejoin="round" stroke-miterlimit="10" points="
		66.397,111.119 53.751,103.817 41.104,111.119 	"/>
</g>
<g class="wave">

		<polyline opacity="0.2" fill="none" stroke="#ffffff" stroke-width="7.003" stroke-linecap="round" stroke-linejoin="round" stroke-miterlimit="10" points="
		218.184,111.119 205.537,118.42 192.891,111.119 	"/>

		<polyline opacity="0.2" fill="none" stroke="#ffffff" stroke-width="7.003" stroke-linecap="round" stroke-linejoin="round" stroke-miterlimit="10" points="
		192.862,111.119 180.216,118.42 167.569,111.119 	"/>

		<polyline opacity="0.2" fill="none" stroke="#ffffff" stroke-width="7.003" stroke-linecap="round" stroke-linejoin="round" stroke-miterlimit="10" points="
		167.569,111.119 154.923,118.42 142.276,111.119 	"/>

		<polyline opacity="0.2" fill="none" stroke="#ffffff" stroke-width="7.003" stroke-linecap="round" stroke-linejoin="round" stroke-miterlimit="10" points="
		142.276,111.119 129.63,118.42 116.983,111.119 	"/>

		<polyline opacity="0.2" fill="none" stroke="#ffffff" stroke-width="7.003" stroke-linecap="round" stroke-linejoin="round" stroke-miterlimit="10" points="
		116.955,111.119 104.309,118.42 91.662,111.119 	"/>

		<polyline opacity="0.2" fill="none" stroke="#ffffff" stroke-width="7.003" stroke-linecap="round" stroke-linejoin="round" stroke-miterlimit="10" points="
		91.662,111.119 79.016,118.42 66.369,111.119 	"/>

		<polyline opacity="0.2" fill="none" stroke="#ffffff" stroke-width="7.003" stroke-linecap="round" stroke-linejoin="round" stroke-miterlimit="10" points="
		66.369,111.119 53.723,118.42 41.076,111.119 	"/>
</g>
<g class="wave2">

		<polyline opacity="0.2" fill="none" stroke="#ffffff" stroke-width="7.003" stroke-linecap="round" stroke-linejoin="round" stroke-miterlimit="10" points="
		218.212,125.722 205.565,118.42 192.919,125.722 	"/>

		<polyline opacity="0.2" fill="none" stroke="#ffffff" stroke-width="7.003" stroke-linecap="round" stroke-linejoin="round" stroke-miterlimit="10" points="
		192.891,125.722 180.244,118.42 167.598,125.722 	"/>

		<polyline opacity="0.2" fill="none" stroke="#ffffff" stroke-width="7.003" stroke-linecap="round" stroke-linejoin="round" stroke-miterlimit="10" points="
		167.598,125.722 154.951,118.42 142.305,125.722 	"/>

		<polyline opacity="0.2" fill="none" stroke="#ffffff" stroke-width="7.003" stroke-linecap="round" stroke-linejoin="round" stroke-miterlimit="10" points="
		142.305,125.722 129.658,118.42 117.012,125.722 	"/>

		<polyline opacity="0.2" fill="none" stroke="#ffffff" stroke-width="7.003" stroke-linecap="round" stroke-linejoin="round" stroke-miterlimit="10" points="
		116.983,125.722 104.337,118.42 91.69,125.722 	"/>

		<polyline opacity="0.2" fill="none" stroke="#ffffff" stroke-width="7.003" stroke-linecap="round" stroke-linejoin="round" stroke-miterlimit="10" points="
		91.69,125.722 79.044,118.42 66.397,125.722 	"/>

		<polyline opacity="0.2" fill="none" stroke="#ffffff" stroke-width="7.003" stroke-linecap="round" stroke-linejoin="round" stroke-miterlimit="10" points="
		66.397,125.722 53.751,118.42 41.104,125.722 	"/>
</g>
<g class="wave">

		<polyline opacity="0.2" fill="none" stroke="#ffffff" stroke-width="7.003" stroke-linecap="round" stroke-linejoin="round" stroke-miterlimit="10" points="
		218.184,125.722 205.537,133.024 192.891,125.722 	"/>

		<polyline opacity="0.2" fill="none" stroke="#ffffff" stroke-width="7.003" stroke-linecap="round" stroke-linejoin="round" stroke-miterlimit="10" points="
		192.862,125.722 180.216,133.024 167.569,125.722 	"/>

		<polyline opacity="0.2" fill="none" stroke="#ffffff" stroke-width="7.003" stroke-linecap="round" stroke-linejoin="round" stroke-miterlimit="10" points="
		167.569,125.722 154.923,133.024 142.276,125.722 	"/>

		<polyline opacity="0.2" fill="none" stroke="#ffffff" stroke-width="7.003" stroke-linecap="round" stroke-linejoin="round" stroke-miterlimit="10" points="
		142.276,125.722 129.63,133.024 116.983,125.722 	"/>

		<polyline opacity="0.2" fill="none" stroke="#ffffff" stroke-width="7.003" stroke-linecap="round" stroke-linejoin="round" stroke-miterlimit="10" points="
		116.955,125.722 104.309,133.024 91.662,125.722 	"/>

		<polyline opacity="0.2" fill="none" stroke="#ffffff" stroke-width="7.003" stroke-linecap="round" stroke-linejoin="round" stroke-miterlimit="10" points="
		91.662,125.722 79.016,133.024 66.369,125.722 	"/>

		<polyline opacity="0.2" fill="none" stroke="#ffffff" stroke-width="7.003" stroke-linecap="round" stroke-linejoin="round" stroke-miterlimit="10" points="
		66.369,125.722 53.723,133.024 41.076,125.722 	"/>
</g>
<g class="wave2">

		<polyline opacity="0.2" fill="none" stroke="#ffffff" stroke-width="7.003" stroke-linecap="round" stroke-linejoin="round" stroke-miterlimit="10" points="
		218.212,140.326 205.565,133.024 192.919,140.326 	"/>

		<polyline opacity="0.2" fill="none" stroke="#ffffff" stroke-width="7.003" stroke-linecap="round" stroke-linejoin="round" stroke-miterlimit="10" points="
		192.891,140.326 180.244,133.024 167.598,140.326 	"/>

		<polyline opacity="0.2" fill="none" stroke="#ffffff" stroke-width="7.003" stroke-linecap="round" stroke-linejoin="round" stroke-miterlimit="10" points="
		167.598,140.326 154.951,133.024 142.305,140.326 	"/>

		<polyline opacity="0.2" fill="none" stroke="#ffffff" stroke-width="7.003" stroke-linecap="round" stroke-linejoin="round" stroke-miterlimit="10" points="
		142.305,140.326 129.658,133.024 117.012,140.326 	"/>

		<polyline opacity="0.2" fill="none" stroke="#ffffff" stroke-width="7.003" stroke-linecap="round" stroke-linejoin="round" stroke-miterlimit="10" points="
		116.983,140.326 104.337,133.024 91.69,140.326 	"/>

		<polyline opacity="0.2" fill="none" stroke="#ffffff" stroke-width="7.003" stroke-linecap="round" stroke-linejoin="round" stroke-miterlimit="10" points="
		91.69,140.326 79.044,133.024 66.397,140.326 	"/>

		<polyline opacity="0.2" fill="none" stroke="#ffffff" stroke-width="7.003" stroke-linecap="round" stroke-linejoin="round" stroke-miterlimit="10" points="
		66.397,140.326 53.751,133.024 41.104,140.326 	"/>
</g>
<g class="wave">

		<polyline opacity="0.2" fill="none" stroke="#ffffff" stroke-width="7.003" stroke-linecap="round" stroke-linejoin="round" stroke-miterlimit="10" points="
		218.184,140.326 205.537,147.627 192.891,140.326 	"/>

		<polyline opacity="0.2" fill="none" stroke="#ffffff" stroke-width="7.003" stroke-linecap="round" stroke-linejoin="round" stroke-miterlimit="10" points="
		192.862,140.326 180.216,147.627 167.569,140.326 	"/>

		<polyline opacity="0.2" fill="none" stroke="#ffffff" stroke-width="7.003" stroke-linecap="round" stroke-linejoin="round" stroke-miterlimit="10" points="
		167.569,140.326 154.923,147.627 142.276,140.326 	"/>

		<polyline opacity="0.2" fill="none" stroke="#ffffff" stroke-width="7.003" stroke-linecap="round" stroke-linejoin="round" stroke-miterlimit="10" points="
		142.276,140.326 129.63,147.627 116.983,140.326 	"/>

		<polyline opacity="0.2" fill="none" stroke="#ffffff" stroke-width="7.003" stroke-linecap="round" stroke-linejoin="round" stroke-miterlimit="10" points="
		116.955,140.326 104.309,147.627 91.662,140.326 	"/>

		<polyline opacity="0.2" fill="none" stroke="#ffffff" stroke-width="7.003" stroke-linecap="round" stroke-linejoin="round" stroke-miterlimit="10" points="
		91.662,140.326 79.016,147.627 66.369,140.326 	"/>

		<polyline opacity="0.2" fill="none" stroke="#ffffff" stroke-width="7.003" stroke-linecap="round" stroke-linejoin="round" stroke-miterlimit="10" points="
		66.369,140.326 53.723,147.627 41.076,140.326 	"/>
</g>
<g class="wave2">

		<polyline opacity="0.2" fill="none" stroke="#ffffff" stroke-width="7.003" stroke-linecap="round" stroke-linejoin="round" stroke-miterlimit="10" points="
		218.212,154.929 205.565,147.627 192.919,154.929 	"/>

		<polyline opacity="0.2" fill="none" stroke="#ffffff" stroke-width="7.003" stroke-linecap="round" stroke-linejoin="round" stroke-miterlimit="10" points="
		192.891,154.929 180.244,147.627 167.598,154.929 	"/>

		<polyline opacity="0.2" fill="none" stroke="#ffffff" stroke-width="7.003" stroke-linecap="round" stroke-linejoin="round" stroke-miterlimit="10" points="
		167.598,154.929 154.951,147.627 142.305,154.929 	"/>

		<polyline opacity="0.2" fill="none" stroke="#ffffff" stroke-width="7.003" stroke-linecap="round" stroke-linejoin="round" stroke-miterlimit="10" points="
		142.305,154.929 129.658,147.627 117.012,154.929 	"/>

		<polyline opacity="0.2" fill="none" stroke="#ffffff" stroke-width="7.003" stroke-linecap="round" stroke-linejoin="round" stroke-miterlimit="10" points="
		116.983,154.929 104.337,147.627 91.69,154.929 	"/>

		<polyline opacity="0.2" fill="none" stroke="#ffffff" stroke-width="7.003" stroke-linecap="round" stroke-linejoin="round" stroke-miterlimit="10" points="
		91.69,154.929 79.044,147.627 66.397,154.929 	"/>

		<polyline opacity="0.2" fill="none" stroke="#ffffff" stroke-width="7.003" stroke-linecap="round" stroke-linejoin="round" stroke-miterlimit="10" points="
		66.397,154.929 53.751,147.627 41.104,154.929 	"/>
</g>
</svg>
