<?xml version="1.0" encoding="utf-8"?>
<!-- Generator: Adobe Illustrator 16.0.0, SVG Export Plug-In . SVG Version: 6.00 Build 0)  -->
<!DOCTYPE svg PUBLIC "-//W3C//DTD SVG 1.1//EN" "http://www.w3.org/Graphics/SVG/1.1/DTD/svg11.dtd">
<svg version="1.1" id="Layer_1" xmlns="http://www.w3.org/2000/svg" xmlns:xlink="http://www.w3.org/1999/xlink" x="0px" y="0px"
	 width="288px" height="288px" viewBox="0 0 288 288" enable-background="new 0 0 288 288" xml:space="preserve">
<path id="two_9_" fill="none" stroke="#000000" stroke-width="16.4024" stroke-linecap="round" stroke-miterlimit="10" d="
	M68.542,112.349c-0.148,8.99-10.296,16.185-19.717,14.333c-8.918-1.773-14.052-10.691-14.184-18.646
	c-0.351-23.256,17.7-33.563,38.215-36.123c31.534-3.926,63.412-3.69,95.111-2.472c25.212,0.968,63.389-4.051,81.461,18.083
	c4.584,5.627,6.233,13.359,6.123,20.512c-0.124,7.955-5.259,16.873-14.193,18.646c-9.405,1.852-19.57-5.343-19.7-14.333"/>
<path id="two_3_" fill="none" stroke="#000000" stroke-width="16.4024" stroke-linecap="round" stroke-miterlimit="10" d="
	M39.901,199.297c-4.325,5.817-5.615,13.627-5.184,20.767c0.487,7.937,6.026,16.618,15.004,17.975
	c9.503,1.433,19.318-6.235,19.045-15.212"/>
<path fill="none" stroke="#000000" stroke-width="16.4024" stroke-linecap="round" stroke-miterlimit="10" d="M236.513,126.981
	c-60.957-14.61-91.418,7.485-91.418,7.485c-38.107-21.539-86.805-8.798-86.805-8.798"/>
<path fill="none" stroke="#000000" stroke-width="16.4024" stroke-linecap="round" stroke-miterlimit="10" d="M145.095,134.467
	v50.498h80.455c0,0,22.935-2.306,22.935,24.913c-0.149,7.239-3.901,14.2-8.624,19.587c-5.243,5.966-14.938,9.431-22.868,5.008
	c-8.398-4.692-11.456-16.754-5.74-23.688"/>
<line fill="none" stroke="#000000" stroke-width="16.4024" stroke-linecap="round" stroke-miterlimit="10" x1="68.767" y1="222.312" x2="208.665" y2="222.312"/>
</svg>
