<?xml-stylesheet type="text/css" href="style.css"?>

<!-- Generator: Adobe Illustrator 16.0.0, SVG Export Plug-In . SVG Version: 6.00 Build 0)  -->
<!DOCTYPE svg PUBLIC "-//W3C//DTD SVG 1.1//EN" "http://www.w3.org/Graphics/SVG/1.1/DTD/svg11.dtd">
<svg class="animate2" version="1.1" id="Layer_1" xmlns="http://www.w3.org/2000/svg" xmlns:xlink="http://www.w3.org/1999/xlink" x="0px" y="0px"
	 width="155.068px" height="147.145px" viewBox="0 0 155.068 147.145" enable-background="new 0 0 155.068 147.145"
	 xml:space="preserve">


<g  cursor="pointer" class="group" id="logo">

	<polygon fill="#ffffff" fill-opacity="1" stroke="none" stroke-width="26.579" stroke-linecap="round" stroke-linejoin="round" stroke-miterlimit="10" points="
		77.797,127.839 29.799,100.13 29.799,44.705 77.797,16.99 125.797,44.705 125.797,100.13 "/>
			<polyline id="link1" class="tesla link" fill="none" stroke="#000000" stroke-width="8.4699" stroke-linecap="round" stroke-linejoin="round" stroke-miterlimit="10" points="
				38.732,38.459 47.217,43.358 62.51,34.525 77.793,43.349 93.09,34.517 108.381,43.347 116.846,38.459 "/>

<polyline id="link2" class="watson link" fill="none" stroke="#000000" stroke-width="8.4699" stroke-linecap="round" stroke-linejoin="round" stroke-miterlimit="10" points="
	31.92,53.99 47.217,62.821 62.511,53.988 77.794,62.813 93.09,53.98 108.381,62.811 123.677,53.977 "/>

<polyline id="link3" class="link" fill="none" stroke="#000000" stroke-width="8.4699" stroke-linecap="round" stroke-linejoin="round" stroke-miterlimit="10" points="
	31.761,73.242 47.06,82.073 62.354,73.242 77.636,82.066 92.931,73.233 108.224,82.064 123.518,73.233 "/>

<polyline id="link4" class="vimeo link" fill="none" stroke="#000000" stroke-width="8.4699" stroke-linecap="round" stroke-miterlimit="10" points="
	31.904,92.683 47.2,101.516 62.496,92.683 65.882,94.637 "/>



<polyline id="link6" class="sound animatedelay link" fill="none" stroke="#000000" stroke-width="8.4699" stroke-linecap="round" stroke-miterlimit="10" points="
	89.687,94.629 93.074,92.676 93.074,92.676 93.074,92.676 108.365,101.503 123.661,92.673 "/>
<polygon id="link7" class="animatehex facebook" fill="none" stroke="#000000" stroke-width="26.579" stroke-linecap="round" stroke-linejoin="round" stroke-miterlimit="10" points="
	77.797,127.839 29.799,100.13 29.799,44.705 77.797,16.99 125.797,44.705 125.797,100.13 "/>
	<polyline id="link5" class="old animateheart link" fill="none" stroke="#000000" stroke-width="8.4699" stroke-linecap="round" stroke-miterlimit="10" points="
	74.393,99.552 77.778,101.506 81.164,99.552 "/>
	<a xlink:href="http://yeemachine.com/projects" target="_parent">

	<polygon id="link8" fill="transparent" fill-opacity="1" stroke="none" stroke-width="26.579" stroke-linecap="round" stroke-linejoin="round" stroke-miterlimit="10" points="
		77.797,127.839 29.799,100.13 29.799,44.705 77.797,16.99 125.797,44.705 125.797,100.13 "/>
	</a>

</g>



</svg>
