<?xml version="1.0" encoding="utf-8"?>
<!-- Generator: Adobe Illustrator 16.0.0, SVG Export Plug-In . SVG Version: 6.00 Build 0)  -->
<!DOCTYPE svg PUBLIC "-//W3C//DTD SVG 1.1//EN" "http://www.w3.org/Graphics/SVG/1.1/DTD/svg11.dtd">
<svg version="1.1" id="Layer_1" xmlns="http://www.w3.org/2000/svg" xmlns:xlink="http://www.w3.org/1999/xlink" x="0px" y="0px"
	 width="288px" height="288px" viewBox="0 0 288 288" enable-background="new 0 0 288 288" xml:space="preserve">
<g id="_x39__7_">
	<path id="two_113_" fill="none" stroke="#000000" stroke-width="19.9326" stroke-linecap="round" stroke-miterlimit="10" d="
		M75.184,241.359c5.259-44.626,11.252-89.316,22.421-133.163c6.017-23.816,17.098-50.208,44.712-60.207
		c8.397-3.029,25.125-4.967,33.675-1.505c31.64,12.823,22.485,52.189,10.842,73.735c-14.024,25.893-43.564,52.491-41.943,83.07
		c0.759,14.035,9.328,31.209,24.609,33.135c19.865,2.5,33.522-24.175,19.455-38.739c-3.506-3.658-5.907-6.212-10.821-7.661"/>
	<path id="three_55_" fill="none" stroke="#000000" stroke-width="18.8872" stroke-linecap="round" stroke-miterlimit="10" d="
		M189.453,192.124c0-8.408,0.779-17.909,6.601-24.51c6.883-7.835,20.192-7.034,26.035,1.711
		c13.505,20.181-12.466,63.485,22.875,68.117"/>
	<path id="one_122_" fill="none" stroke="#000000" stroke-width="18.4746" stroke-linecap="round" stroke-miterlimit="10" d="
		M41.142,241.359c4.999-42.7,10.712-85.464,21.338-127.418c5.756-22.776,16.296-48.044,42.569-57.577
		c8.007-2.923,23.936-4.771,32.074-1.449c30.147,12.271,36.942,48.629,16.641,55.705c-9.804,3.431-25.32-5.29-16.708-22.983"/>
	<path id="four_32_" fill="none" stroke="#000000" stroke-width="18.8872" stroke-linecap="round" stroke-miterlimit="10" d="
		M127.319,134.783c-10.627,43.837-10.908,61.95-15.907,106.576"/>
</g>
</svg>
