<?xml version="1.0" encoding="utf-8"?>
<!-- Generator: Adobe Illustrator 16.0.0, SVG Export Plug-In . SVG Version: 6.00 Build 0)  -->
<!DOCTYPE svg PUBLIC "-//W3C//DTD SVG 1.1//EN" "http://www.w3.org/Graphics/SVG/1.1/DTD/svg11.dtd">
<svg version="1.1" id="Layer_1" xmlns="http://www.w3.org/2000/svg" xmlns:xlink="http://www.w3.org/1999/xlink" x="0px" y="0px"
	 width="288px" height="288px" viewBox="0 0 288 288" enable-background="new 0 0 288 288" xml:space="preserve">
<path fill="none" stroke="#000000" stroke-width="17.8336" stroke-linecap="round" stroke-miterlimit="10" d="M127.97,41.807
	c0,8.264-7.543,14.946-16.848,14.946h-9.482c-9.281,0-16.825-6.682-16.825-14.946l0,0c0-8.24,7.544-14.94,16.825-14.94h9.482
	C120.427,26.867,127.97,33.567,127.97,41.807L127.97,41.807z"/>
<path fill="none" stroke="#000000" stroke-width="17.8336" stroke-linecap="round" stroke-miterlimit="10" d="M127.97,85.849
	c0,8.25-7.543,14.951-16.848,14.951h-9.482c-9.281,0-16.825-6.7-16.825-14.951l0,0c0-8.253,7.544-14.947,16.825-14.947h9.482
	C120.427,70.902,127.97,77.596,127.97,85.849L127.97,85.849z"/>
<path fill="none" stroke="#000000" stroke-width="17.8336" stroke-linecap="round" stroke-miterlimit="10" d="M200.173,41.807
	c0,8.264-7.562,14.946-16.859,14.946h-9.49c-9.284,0-16.816-6.682-16.816-14.946l0,0c0-8.24,7.532-14.94,16.816-14.94h9.49
	C192.61,26.867,200.173,33.567,200.173,41.807L200.173,41.807z"/>
<path fill="none" stroke="#000000" stroke-width="17.8336" stroke-linecap="round" stroke-miterlimit="10" d="M200.173,85.849
	c0,8.25-7.562,14.951-16.859,14.951h-9.49c-9.284,0-16.816-6.7-16.816-14.951l0,0c0-8.253,7.532-14.947,16.816-14.947h9.49
	C192.61,70.902,200.173,77.596,200.173,85.849L200.173,85.849z"/>
<path id="three_7_" fill="none" stroke="#000000" stroke-width="17.8336" stroke-linecap="round" stroke-miterlimit="10" d="
	M205.381,178.509H94.357h1.783c-6.099,0-11.052,5.647-11.052,12.64c0,6.979,4.953,12.627,11.052,12.627h-1.783h25.576h-2.889
	c6.093,0,11.051,5.665,11.051,12.652c0,7.056,0,14.112,0,21.174c0-1.427,0-2.858,0-4.272c0,4.73,0,9.481,0,14.23
	c0,9.857-8.025,17.847-17.442,17.847h-9.595c-9.381,0-16.992-7.989-16.992-17.847v0.763l0,0c0-9.398,7.99-17.301,17.835-17.301"/>
<path id="three_1_" fill="none" stroke="#000000" stroke-width="17.8336" stroke-linecap="round" stroke-miterlimit="10" d="
	M205.381,151.429h-85.448H94.357h1.783c-6.099,0-11.052-5.666-11.052-12.647c0-6.979,4.953-12.644,11.052-12.644h-1.783h30.41"/>
<path fill="none" stroke="#000000" stroke-width="17.8336" stroke-linecap="round" stroke-linejoin="round" stroke-miterlimit="10" d="
	M158.563,222.872c0.018-7.859,0.036-15.726,0.06-23.58c0.023-11.551,0.065-23.108,0.091-34.654
	c0.018-9.584,0.045-19.188,0.094-28.791c0.019-4.156-0.558-8.811,0.078-12.883c3.143,8.965,13.489,8.549,21.306,8.447
	c8.658-0.094,22.354,1.719,25.189-9.328"/>
<path fill="none" stroke="#000000" stroke-width="17.8336" stroke-linecap="round" stroke-miterlimit="10" d="M205.381,209.911
	c0,0,0,37.875,0,37.78c0,9.862-8.127,17.854-18.155,17.854H176.97c-5.588,0-11.96-3.062-14.98-7.771
	c-2.879-4.517-3.343-9.987-3.438-15.194c-0.13-5.002-0.064-10-0.019-15.001"/>
</svg>
