<?xml version="1.0" encoding="utf-8"?>
<!-- Generator: Adobe Illustrator 16.0.0, SVG Export Plug-In . SVG Version: 6.00 Build 0)  -->
<!DOCTYPE svg PUBLIC "-//W3C//DTD SVG 1.1//EN" "http://www.w3.org/Graphics/SVG/1.1/DTD/svg11.dtd">
<svg version="1.1" id="Layer_1" xmlns="http://www.w3.org/2000/svg" xmlns:xlink="http://www.w3.org/1999/xlink" x="0px" y="0px"
	 width="288px" height="288px" viewBox="0 0 288 288" enable-background="new 0 0 288 288" xml:space="preserve">
<path id="four_9_" fill="none" stroke="#000000" stroke-width="20.2083" stroke-linecap="round" stroke-miterlimit="10" d="
	M145.546,49.324l-4.096,95.978l-0.037-0.505c1.027,42.023-42.026,39.816-45.104,39.873c-14.823-0.27-31.396-1.549-45.089,5.178
	c-11.104,5.447-17.329,16.494-14.244,28.809c3.732,14.902,17.864,25.525,32.45,28.398c11.372,2.24,24.006,0.373,34.253-4.832
	c18.778-9.541,33.301-25.195,50.919-36.434c21.027-13.418,45.564-23.324,70.969-20.285c24.967,2.992,35.746,21.998,25.471,39.779
	c-12.93,22.592-51.598,25.52-75.701,12.717"/>
<path id="one_6_" fill="none" stroke="#000000" stroke-width="20.2083" stroke-linecap="round" stroke-miterlimit="10" d="
	M88.678,90.539h-34.48c-9.951,0-18.008-9.23-18.008-20.61c0-11.377,8.057-20.604,18.008-20.604H158.39h78.494
	c9.947,0,18.023,9.227,18.023,20.604c0,11.38-8.076,20.61-18.023,20.61h-28.242"/>
<path id="one_5_" fill="none" stroke="#000000" stroke-width="20.2083" stroke-linecap="round" stroke-miterlimit="10" d="
	M88.678,160.135h-34.48c-9.951,0-18.008-9.232-18.008-20.612c0-11.378,8.057-20.604,18.008-20.604H158.39h78.494
	c9.947,0,18.023,9.226,18.023,20.604c0,11.379-8.076,20.612-18.023,20.612h-28.242"/>
</svg>
