<?xml version="1.0" encoding="utf-8"?>
<!-- Generator: Adobe Illustrator 16.0.0, SVG Export Plug-In . SVG Version: 6.00 Build 0)  -->
<!DOCTYPE svg PUBLIC "-//W3C//DTD SVG 1.1//EN" "http://www.w3.org/Graphics/SVG/1.1/DTD/svg11.dtd">
<svg version="1.1" id="Layer_1" xmlns="http://www.w3.org/2000/svg" xmlns:xlink="http://www.w3.org/1999/xlink" x="0px" y="0px"
	 width="288px" height="288px" viewBox="0 0 288 288" enable-background="new 0 0 288 288" xml:space="preserve">
<path fill="none" stroke="#000000" stroke-width="16.2607" stroke-linecap="round" stroke-miterlimit="10" d="M245.933,80.634
	c0-46.223-50.826-43.908-50.826-43.908c-46.213,0-40.061,55.346-40.061,55.346c-0.08,32.091-12.715,15.844-39.552,32.091
	c-26.851,16.257-24.46,0-24.46,0L90.86,69.229c0,0,3.936-32.502-25.623-32.502c-29.564,0-26.117,32.502-26.117,32.502V211.61"/>
<path fill="none" stroke="#000000" stroke-width="16.2607" stroke-linecap="round" stroke-miterlimit="10" d="M245.933,80.634
	c0,14.311-2.109,33.745-17.531,39.468c-5.33,1.963-11.818,0.076-17.385,1.653c-5.611,1.594-10.23,5.134-13.01,10.371
	c-2.201,4.13-2.803,9.562-2.803,14.197c0,7.713-0.934,15.845-5.025,22.545c-5.318,8.656-12.68,10.104-22.035,10.028
	c-3.957-0.028-7.768,0.591-11.547,1.771c-5.637,1.741-10.89,5.383-13.696,10.695c-6.38,12.039-4.163,35.263,8.337,43.128
	c3.906,2.45,9.686,3.557,14.256,3.557c21.477,0,42.959,0,64.432,0.016c6.152,0,13.594-0.634,18.045-5.758
	c6.309-7.241,5.643-19.428,4.867-28.502c-0.883-10.521-2.824-21.189-7.529-30.615"/>
<path fill="none" stroke="#000000" stroke-width="16.2607" stroke-linecap="round" stroke-miterlimit="10" d="M39.001,251.708
	c0,0,53.822,7.188,53.822-35.349c0-42.537,0-53.617,0-53.617"/>
</svg>
