<?xml version="1.0" encoding="utf-8"?>
<!-- Generator: Adobe Illustrator 16.0.0, SVG Export Plug-In . SVG Version: 6.00 Build 0)  -->
<!DOCTYPE svg PUBLIC "-//W3C//DTD SVG 1.1//EN" "http://www.w3.org/Graphics/SVG/1.1/DTD/svg11.dtd">
<svg version="1.1" id="Layer_1" xmlns="http://www.w3.org/2000/svg" xmlns:xlink="http://www.w3.org/1999/xlink" x="0px" y="0px"
	 width="288px" height="288px" viewBox="0 0 288 288" enable-background="new 0 0 288 288" xml:space="preserve">
<g id="_x31_0_43_">
	<path id="one_115_" fill="none" stroke="#000000" stroke-width="20.1981" stroke-linecap="round" stroke-miterlimit="10" d="
		M118.918,48.953c-26.606-6.125-72.36-2.855-77.392,24.605c-3.763,20.678,23.478,36.968,47.962,30.896
		c26.301-6.554,39.998-23.981,60.26-37.328c18.817-12.418,42.602-23.041,67.743-20.021c23.236,2.778,35.14,21.704,23.718,37.032
		c-12.078,16.214-36.037,11.334-53.061,14.179c-13.216,2.177-29.517,8.96-38.925,18.543c-6.391,6.533-10.328,17.55-10.132,26.685
		c0.962,39.156-39.123,37.087-41.988,37.142c-13.83-0.25-29.233-1.443-42.012,4.836c-10.35,5.064-16.148,15.371-13.26,26.836
		c3.479,13.873,16.63,23.775,30.217,26.434c10.59,2.088,22.362,0.359,31.924-4.486c17.484-8.883,31.006-23.467,47.417-33.938
		c19.583-12.494,42.448-21.738,66.102-18.893c23.236,2.777,33.301,20.49,23.718,37.043c-12.033,21.039-48.05,23.773-70.521,11.859"
		/>
	
		<line id="two_106_" fill="none" stroke="#000000" stroke-width="20.1981" stroke-linecap="round" stroke-miterlimit="10" x1="41.154" y1="143.543" x2="244.777" y2="143.543"/>
</g>
</svg>
