<?xml version="1.0" encoding="utf-8"?>
<!-- Generator: Adobe Illustrator 16.0.0, SVG Export Plug-In . SVG Version: 6.00 Build 0)  -->
<!DOCTYPE svg PUBLIC "-//W3C//DTD SVG 1.1//EN" "http://www.w3.org/Graphics/SVG/1.1/DTD/svg11.dtd">
<svg version="1.1" id="Layer_1" xmlns="http://www.w3.org/2000/svg" xmlns:xlink="http://www.w3.org/1999/xlink" x="0px" y="0px"
	 width="288px" height="288px" viewBox="0 0 288 288" enable-background="new 0 0 288 288" xml:space="preserve">
<path id="two_23_" fill="none" stroke="#000000" stroke-width="20.2083" stroke-linecap="round" stroke-miterlimit="10" d="
	M91.365,263.336c30.814-57.13,29.538-111.973,29.538-126.117c0-14.11-10.021-25.583-22.358-25.583h3.587h-1.89H61.129
	c-12.363,0-22.374-11.464-22.374-25.607c0-14.127,10.011-25.583,22.374-25.583h1.326h44.6h-3.588
	c12.338,0,22.35-11.464,22.35-25.592"/>
<path id="two_22_" fill="none" stroke="#000000" stroke-width="20.2083" stroke-linecap="round" stroke-miterlimit="10" d="
	M196.645,263.336c-30.815-57.13-29.539-111.973-29.539-126.117c0-14.11,10.019-25.583,22.356-25.583h-3.585h1.889h39.114
	c12.362,0,22.374-11.464,22.374-25.607c0-14.127-10.012-25.583-22.374-25.583h-1.326h-44.599h3.586
	c-12.337,0-22.349-11.464-22.349-25.592"/>
<line fill="none" stroke="#000000" stroke-width="20.2083" stroke-linecap="round" stroke-miterlimit="10" x1="38.746" y1="24.146" x2="249.254" y2="24.146"/>
</svg>
