<?xml version="1.0" encoding="utf-8"?>
<!-- Generator: Adobe Illustrator 16.0.0, SVG Export Plug-In . SVG Version: 6.00 Build 0)  -->
<!DOCTYPE svg PUBLIC "-//W3C//DTD SVG 1.1//EN" "http://www.w3.org/Graphics/SVG/1.1/DTD/svg11.dtd">
<svg version="1.1" id="Layer_1" xmlns="http://www.w3.org/2000/svg" xmlns:xlink="http://www.w3.org/1999/xlink" x="0px" y="0px"
	 width="288px" height="288px" viewBox="0 0 288 288" enable-background="new 0 0 288 288" xml:space="preserve">
<path id="one_3_" fill="none" stroke="#000000" stroke-width="15.9448" stroke-linecap="round" stroke-miterlimit="10" d="
	M249.03,230.64c15.325-19.083-1.004-28.182-12.119-29.426c-16.817-1.941-32.893,3.784-45.525,10.035
	c-13.624,6.696-22.848,15.457-40.526,18.737c-16.462,3.057-30.542-4.949-32.249-15.505c-2.625-16.297,8.14-40.11,55.887-39.888
	c44.756,0,76.988-41.742,76.988-67.955c0-20.892-7.881-37.689-25.907-40.453c-27.321-4.164-53.42,8.292-73.942,21.863
	c-22.128,14.567-37.111,33.594-65.815,40.74c-26.743,6.655-56.487-11.125-52.357-33.724c5.485-29.993,55.435-33.551,84.487-26.866"
	/>
<path fill="none" stroke="#000000" stroke-width="15.9448" stroke-linecap="round" stroke-miterlimit="10" d="M214.018,65.392
	c0,0-12.163,81.77-136.507,93.129c-18.683,1.706-36.191,9.143-42.872,27.661c-5.429,15.032,0.498,42.156,20.149,42.619
	c12.124,0.287,20.96-10.535,25.328-20.703"/>
</svg>
