<?xml version="1.0" encoding="utf-8"?>
<!-- Generator: Adobe Illustrator 16.0.0, SVG Export Plug-In . SVG Version: 6.00 Build 0)  -->
<!DOCTYPE svg PUBLIC "-//W3C//DTD SVG 1.1//EN" "http://www.w3.org/Graphics/SVG/1.1/DTD/svg11.dtd">
<svg version="1.1" id="Layer_1" xmlns="http://www.w3.org/2000/svg" xmlns:xlink="http://www.w3.org/1999/xlink" x="0px" y="0px"
	 width="288px" height="288px" viewBox="0 0 288 288" enable-background="new 0 0 288 288" xml:space="preserve">
<path id="two_12_" fill="none" stroke="#000000" stroke-width="20.1553" stroke-linecap="round" stroke-linejoin="round" stroke-miterlimit="10" d="
	M252.52,106.346h-51.216h2.986c-10.263,0-18.595,9.532-18.595,21.285c0,11.753,8.332,21.292,18.595,21.292h-2.986h37.102h1.113
	c10.277,0,18.608,9.53,18.608,21.29c0,11.75-8.331,21.296-18.608,21.296h-32.55c-50.192,0-66.214-35.115-63.368-85.164h-0.625
	c2.847,50.048-13.174,85.164-63.374,85.164H47.061c-10.279,0-18.61-9.546-18.61-21.296c0-11.76,8.331-21.29,18.61-21.29h1.107
	h37.101h-2.984c10.267,0,18.598-9.54,18.598-21.292c0-11.753-8.331-21.285-18.598-21.285h2.984h-51.21"/>
</svg>
