<?xml version="1.0" encoding="utf-8"?>
<!-- Generator: Adobe Illustrator 16.0.0, SVG Export Plug-In . SVG Version: 6.00 Build 0)  -->
<!DOCTYPE svg PUBLIC "-//W3C//DTD SVG 1.1//EN" "http://www.w3.org/Graphics/SVG/1.1/DTD/svg11.dtd">
<svg version="1.1" id="Layer_1" xmlns="http://www.w3.org/2000/svg" xmlns:xlink="http://www.w3.org/1999/xlink" x="0px" y="0px"
	 width="288px" height="288px" viewBox="0 0 288 288" enable-background="new 0 0 288 288" xml:space="preserve">
<path id="two_25_" fill="none" stroke="#000000" stroke-width="16" stroke-linecap="round" stroke-miterlimit="10" d="
	M252.569,261.296h-22.522c-8.632,0-15.625-7.993-15.625-17.887c0-9.858,6.993-17.853,15.625-17.853h0.923h10.999h-2.504
	c8.615,0,15.607-8.011,15.607-17.868c0-9.861-6.992-17.872-15.607-17.872h2.504h-22.843h-7.648c-9.884,0-17.887,6.992-17.887,15.627
	v27.312v-7.199v32.078v-2.503c0,8.616-8.012,15.609-17.87,15.609c-9.868,0-17.869-6.993-17.869-15.609v2.503v-31.146V173.45
	c0,0,22.461-56.812-13.699-65.578"/>
<path id="two_24_" fill="none" stroke="#000000" stroke-width="16" stroke-linecap="round" stroke-miterlimit="10" d="
	M34.854,156.876h45.174c8.634,0,15.627-8,15.627-17.883c0-9.858-6.993-17.861-15.627-17.861h-0.922H47.959h2.502
	c-8.614,0-15.607-8.002-15.607-17.87c0-9.858,6.993-17.87,15.607-17.87h-2.502h148.515h42.991h-2.504
	c8.615,0,15.608,8.012,15.608,17.87c0,9.868-6.993,17.87-15.608,17.87h2.504h-31.146h-0.925c-8.632,0-15.624,8.003-15.624,17.861
	c0,9.883,6.992,17.883,15.624,17.883h45.176"/>
<path id="four_12_" fill="none" stroke="#000000" stroke-width="16" stroke-linecap="round" stroke-miterlimit="10" d="
	M120.266,23.962c-16.575-8.797-43.156-6.785-52.047,8.753c-7.062,12.224,0.346,25.286,17.517,27.34
	c17.453,2.097,34.332-4.714,48.792-13.942c12.11-7.726,22.091-18.482,35.003-25.043c7.046-3.583,15.729-4.869,23.542-3.332
	c10.031,1.985,19.752,9.28,22.315,19.536c2.115,8.459-2.158,16.056-9.789,19.795c-9.427,4.635-20.814,3.754-30.999,3.565
	c-2.116,0.035-31.717-1.485-31.009,27.409l-0.026-0.346l0.588,20.175c-37.578,10.497-14.002,65.578-14.002,65.578v53.039v31.146
	v-2.503c0,8.616-8.005,15.609-17.87,15.609c-9.858,0-17.87-6.993-17.87-15.609v2.503v-32.078v7.199v-27.312
	c0-8.635-8.004-15.627-17.887-15.627h-7.649H46.032h2.504c-8.615,0-15.608,8.011-15.608,17.872c0,9.857,6.993,17.868,15.608,17.868
	h-2.504H57.03h0.924c8.633,0,15.624,7.994,15.624,17.853c0,9.894-6.991,17.887-15.624,17.887H34.854"/>
</svg>
