<?xml version="1.0" encoding="utf-8"?>
<!-- Generator: Adobe Illustrator 16.0.0, SVG Export Plug-In . SVG Version: 6.00 Build 0)  -->
<!DOCTYPE svg PUBLIC "-//W3C//DTD SVG 1.1//EN" "http://www.w3.org/Graphics/SVG/1.1/DTD/svg11.dtd">
<svg version="1.1" id="Layer_1" xmlns="http://www.w3.org/2000/svg" xmlns:xlink="http://www.w3.org/1999/xlink" x="0px" y="0px"
	 width="288px" height="288px" viewBox="0 0 288 288" enable-background="new 0 0 288 288" xml:space="preserve">
<path id="three_17_" fill="none" stroke="#000000" stroke-width="18.5464" stroke-linecap="round" stroke-miterlimit="10" d="
	M128.433,19.112c0.024,8.464,0.315,18.932-9.335,22.187c-2.77,0.936-6.016,1.483-8.947,1.558c-6.09,0.136-12.192-0.235-18.295-0.229
	c-1.99,0.01-3.993-0.024-5.996-0.006"/>
<path id="three_16_" fill="none" stroke="#000000" stroke-width="18.5464" stroke-linecap="round" stroke-miterlimit="10" d="
	M128.433,66.274c0.024,8.464,0.315,18.933-9.335,22.187c-2.77,0.943-6.016,1.48-8.947,1.557c-6.09,0.143-12.192-0.227-18.295-0.227
	c-1.99,0.009-3.993-0.017-5.996,0"/>
<path id="three_15_" fill="none" stroke="#000000" stroke-width="18.5464" stroke-linecap="round" stroke-miterlimit="10" d="
	M160.715,19.112c-0.024,8.464-0.308,18.932,9.343,22.187c2.771,0.936,6.015,1.483,8.947,1.558
	c6.089,0.136,12.186-0.235,18.288-0.229c1.997,0.01,3.994-0.024,5.996-0.006"/>
<path id="three_14_" fill="none" stroke="#000000" stroke-width="18.5464" stroke-linecap="round" stroke-miterlimit="10" d="
	M160.715,66.274c-0.024,8.464-0.308,18.933,9.343,22.187c2.771,0.943,6.015,1.48,8.947,1.557c6.089,0.143,12.186-0.227,18.288-0.227
	c1.997,0.009,3.994-0.017,5.996,0"/>
<polyline fill="none" stroke="#000000" stroke-width="18.5464" stroke-linecap="round" stroke-linejoin="round" stroke-miterlimit="10" points="
	82.644,19.112 82.644,118.207 204.099,118.207 204.099,19.112 "/>
<path fill="none" stroke="#000000" stroke-width="18.5464" stroke-linecap="round" stroke-miterlimit="10" d="M82.644,174.306
	c1.769,16.674,14.82,24.785,25.634,19.888c11.61-5.297,17.658-19.324,26.616-30.103c8.31-10.017,18.796-18.579,29.902-16.144
	c10.258,2.252,14.702,16.526,10.469,29.881c-12.113,38.798-49.96,36.388-54.431,62.187c-3.752,21.608,13.244,29.856,26.824,29.856
	c29.212,0,26.22-26.134,29.51-39.384c3.188-12.836,18.658-30.722,33.183-21.114c9.811,6.479,11.982,31.688,1.996,46.125"/>
<path fill="none" stroke="#000000" stroke-width="18.5464" stroke-linecap="round" stroke-miterlimit="10" d="M131.648,118.207
	c0,0,15.102,29.39,3.246,45.884"/>
</svg>
