<?xml version="1.0" encoding="utf-8"?>
<!-- Generator: Adobe Illustrator 16.0.0, SVG Export Plug-In . SVG Version: 6.00 Build 0)  -->
<!DOCTYPE svg PUBLIC "-//W3C//DTD SVG 1.1//EN" "http://www.w3.org/Graphics/SVG/1.1/DTD/svg11.dtd">
<svg version="1.1" id="Layer_1" xmlns="http://www.w3.org/2000/svg" xmlns:xlink="http://www.w3.org/1999/xlink" x="0px" y="0px"
	 width="288px" height="288px" viewBox="0 0 288 288" enable-background="new 0 0 288 288" xml:space="preserve">
<path id="four_9_" fill="none" stroke="#000000" stroke-width="18.5273" stroke-linecap="round" stroke-miterlimit="10" d="
	M158.508,95.91c-8.61,9.851-0.395,20.137,11.63,19.498c8.987-0.469,17.369-8.925,20.011-16.925c2.854-8.674,1.174-18.678-5.36-25.25
	c-13.982-14.071-30.714-6.136-45.798,1.461l-8.659,4.725"/>
<path id="four_7_" fill="none" stroke="#000000" stroke-width="18.5273" stroke-linecap="round" stroke-miterlimit="10" d="
	M195.226,170.151c-5.41-0.545-7.078,3.63-7.88,8.3c-1.327,7.732,4.495,14.106,11.272,16.342c8.547,2.805,19.425-2.049,24.767-8.561
	c5.812-7.039,7.85-16.972,4.137-25.464c-7.94-18.192-26.415-16.829-30.782-17.079l-64.722-0.876"/>
<path id="four_2_" fill="none" stroke="#000000" stroke-width="18.5273" stroke-linecap="round" stroke-miterlimit="10" d="
	M123.481,74.508c6.72,5.996,7.924,16.931,1.408,23.252c-6.769,6.556-18.362,6.747-26.54,2.63
	c-8.153-4.109-14.02-12.383-14.058-21.645c-0.073-19.844,17.387-26.055,33.414-31.36l73.784-20.694"/>
<path fill="none" stroke="#000000" stroke-width="18.5273" stroke-linecap="round" stroke-miterlimit="10" d="M174.024,115.437
	c0,0-1.422,71.055-87.386,109.411"/>
<path fill="none" stroke="#000000" stroke-width="18.5273" stroke-linecap="round" stroke-miterlimit="10" d="M50.051,188.783
	c21.938-3.711,41.011-20.351,46.087-42.372c1.755-7.65,7.684-14.771,15.417-16.687c17.108-4.255,28.752,18.438,13.112,26.033"/>
<path fill="none" stroke="#000000" stroke-width="18.5273" stroke-linecap="round" stroke-miterlimit="10" d="M185.388,195.609
	c0,0-25.972,35.699-77.132,66.964"/>
</svg>
