<?xml-stylesheet type="text/css" href="working demo/../../../style.css"?>
<!-- Generator: Adobe Illustrator 16.0.0, SVG Export Plug-In . SVG Version: 6.00 Build 0)  -->
<!DOCTYPE svg PUBLIC "-//W3C//DTD SVG 1.1//EN" "http://www.w3.org/Graphics/SVG/1.1/DTD/svg11.dtd">
<svg version="1.1" id="Layer_1" xmlns="http://www.w3.org/2000/svg" xmlns:xlink="http://www.w3.org/1999/xlink" x="0px" y="0px"
	 width="288px" height="576px" viewBox="0 0 288 576" enable-background="new 0 0 288 576" xml:space="preserve">
	 <rect x="0" y="0" width="100%" height="100%" fill-opacity="0"/>

<g class="roman" id="_x33__681_">

		<line id="one_479_" fill="none" stroke="#000000" stroke-width="20.6773" stroke-linecap="round" stroke-miterlimit="10" x1="96.379" y1="510.592" x2="96.379" y2="318.145"/>

		<line id="three_865_" fill="none" stroke="#000000" stroke-width="20.6773" stroke-linecap="round" stroke-miterlimit="10" x1="190.973" y1="510.592" x2="190.973" y2="318.145"/>

		<line id="three_864_" fill="none" stroke="#000000" stroke-width="20.6773" stroke-linecap="round" stroke-miterlimit="10" x1="143.666" y1="510.592" x2="143.666" y2="318.145"/>
</g>
<g class="roman">
	<g id="_x33__667_">

			<line id="three_843_" fill="none" stroke="#000000" stroke-width="20.6773" stroke-linecap="round" stroke-miterlimit="10" x1="79.85" y1="261.83" x2="207.506" y2="69.382"/>
	</g>
	<g id="_x33__666_">

			<line id="three_842_" fill="none" stroke="#000000" stroke-width="20.6773" stroke-linecap="round" stroke-miterlimit="10" x1="207.482" y1="261.83" x2="79.826" y2="69.382"/>
	</g>
</g>
<g class="birdbug" id="_x31_0_38_">
	<path id="one_110_" fill="none" stroke="#000000" stroke-width="19.7005" stroke-linecap="round" stroke-miterlimit="10" d="
		M120.119,74.497c-25.972-5.975-70.576-2.806-75.505,23.989c-3.649,20.167,22.898,36.045,46.8,30.124
		c25.633-6.393,39.013-23.391,58.797-36.409c18.311-12.111,41.51-22.473,66.031-19.528c22.685,2.711,34.295,21.192,23.156,36.143
		c-11.76,15.792-35.15,11.042-51.774,13.807c-12.87,2.134-28.771,8.74-37.946,18.12c-6.252,6.338-10.114,17.094-9.88,26.015
		c0.938,38.171-38.18,36.174-40.977,36.217c-13.468-0.234-28.511-1.387-40.955,4.716c-10.075,4.951-15.75,14.982-12.953,26.177
		c3.413,13.53,16.239,23.188,29.472,25.79c10.353,2.05,21.812,0.354,31.138-4.396c17.073-8.666,30.262-22.889,46.247-33.089
		c19.123-12.188,41.401-21.205,64.474-18.419c22.685,2.71,32.481,19.976,23.155,36.122c-11.737,20.54-46.867,23.197-68.783,11.557"
		/>

		<line id="two_101_" fill="none" stroke="#000000" stroke-width="19.7005" stroke-linecap="round" stroke-miterlimit="10" x1="44.272" y1="166.757" x2="242.875" y2="166.757"/>
</g>
<g class="birdbug" id="_x33__6_">
	<path id="two_107_" fill="none" stroke="#000000" stroke-width="19.7532" stroke-linecap="round" stroke-miterlimit="10" d="
		M119.998,383.756c-26.021-6.002-70.744-2.803-75.687,24.053c-3.681,20.243,22.96,36.164,46.905,30.215
		c25.701-6.388,39.117-23.442,58.955-36.496c18.38-12.143,41.642-22.533,66.229-19.58c22.746,2.719,32.547,20.039,23.195,36.239
		c-11.771,20.585-47.014,23.239-68.947,11.587"/>

		<line id="one_116_" fill="none" stroke="#000000" stroke-width="19.7532" stroke-linecap="round" stroke-miterlimit="10" x1="43.968" y1="342.648" x2="243.104" y2="342.648"/>

		<line id="three_52_" fill="none" stroke="#000000" stroke-width="19.7532" stroke-linecap="round" stroke-miterlimit="10" x1="43.968" y1="474.733" x2="243.104" y2="474.733"/>
</g>
</svg>
