<?xml-stylesheet type="text/css" href="working demo/../../../style.css"?>
<!-- Generator: Adobe Illustrator 16.0.0, SVG Export Plug-In . SVG Version: 6.00 Build 0)  -->
<!DOCTYPE svg PUBLIC "-//W3C//DTD SVG 1.1//EN" "http://www.w3.org/Graphics/SVG/1.1/DTD/svg11.dtd">
<svg version="1.1" id="Layer_1" xmlns="http://www.w3.org/2000/svg" xmlns:xlink="http://www.w3.org/1999/xlink" x="0px" y="0px"
	 width="288px" height="576px" viewBox="0 0 288 576" enable-background="new 0 0 288 576" xml:space="preserve">
	 <rect x="0" y="0" width="100%" height="100%" fill-opacity="0"/>

<g class="roman" id="_x33__674_">

		<line id="three_851_" fill="none" stroke="#000000" stroke-width="20.6642" stroke-linecap="round" stroke-miterlimit="10" x1="144.512" y1="510.417" x2="80.736" y2="318.091"/>

		<line id="three_850_" fill="none" stroke="#000000" stroke-width="20.6642" stroke-linecap="round" stroke-miterlimit="10" x1="144.512" y1="510.596" x2="208.288" y2="318.271"/>
</g>
<g class="roman">
	<g id="_x33__671_">

			<line id="three_847_" fill="none" stroke="#000000" stroke-width="20.6642" stroke-linecap="round" stroke-miterlimit="10" x1="80.712" y1="262.092" x2="208.288" y2="69.767"/>
	</g>
	<g id="_x33__670_">

			<line id="three_846_" fill="none" stroke="#000000" stroke-width="20.6642" stroke-linecap="round" stroke-miterlimit="10" x1="208.288" y1="262.092" x2="80.712" y2="69.767"/>
	</g>
</g>
<g class="birdbug" id="_x31_0_38_">
	<path id="one_110_" fill="none" stroke="#000000" stroke-width="19.7005" stroke-linecap="round" stroke-miterlimit="10" d="
		M121.596,73.823c-25.972-5.975-70.576-2.806-75.505,23.989c-3.649,20.167,22.898,36.045,46.8,30.124
		c25.633-6.393,39.013-23.391,58.793-36.409c18.311-12.111,41.51-22.473,66.03-19.528c22.685,2.711,34.295,21.192,23.155,36.143
		c-11.76,15.792-35.149,11.042-51.773,13.807c-12.87,2.134-28.77,8.74-37.944,18.12c-6.249,6.338-10.111,17.094-9.877,26.015
		c0.938,38.171-38.18,36.174-40.977,36.217c-13.468-0.234-28.511-1.387-40.955,4.716C49.268,211.968,43.593,222,46.39,233.194
		c3.413,13.53,16.239,23.188,29.472,25.79c10.353,2.05,21.812,0.354,31.138-4.396c17.073-8.666,30.262-22.889,46.243-33.089
		c19.121-12.188,41.4-21.205,64.473-18.419c22.686,2.71,32.48,19.976,23.156,36.122c-11.738,20.54-46.868,23.197-68.784,11.557"/>

		<line id="two_101_" fill="none" stroke="#000000" stroke-width="19.7005" stroke-linecap="round" stroke-miterlimit="10" x1="45.749" y1="166.083" x2="244.347" y2="166.083"/>
</g>
<g class="birdbug" id="_x35__6_">
	<path id="three_50_" fill="none" stroke="#000000" stroke-width="18.9223" stroke-linecap="round" stroke-miterlimit="10" d="
		M228.494,374.933c0,10.873-9.932,17.932-22.184,17.932H89.842c-31.481-0.013-45.988,24.748-33.477,49.511"/>
	<path id="one_103_" fill="none" stroke="#000000" stroke-width="18.9223" stroke-linecap="round" stroke-miterlimit="10" d="
		M119.656,300.799c-7.849-1.312-16.241-1.95-24.177-2.103c-12.985-0.293-28.685-2.037-40.197,5.216
		c-10.104,6.353-14.115,21.303-4.228,30.233c9.843,8.914,26.473,9.76,38.896,7.492c26.518-4.803,40.372-17.639,60.814-27.471
		c10.428-5.032,21.682-9.141,32.954-11.882c12.729-3.091,27.385-3.504,40.288-1.074c11.512,2.202,26.602,14.613,20.337,27.254
		c-4.748,9.627-18.104,14.787-28.404,14.519c-15.286-0.393-29.79-2.029-44.079-7.547"/>
	<path id="five_15_" fill="none" stroke="#000000" stroke-width="18.9223" stroke-linecap="round" stroke-miterlimit="10" d="
		M119.656,477.9c-7.849-1.324-16.241-1.941-24.177-2.126c-12.985-0.271-28.685-2.049-40.197,5.235
		c-10.104,6.342-14.115,21.281-4.228,30.236c9.843,8.899,26.473,9.757,38.896,7.492c26.518-4.826,40.372-17.641,60.814-27.473
		c10.428-5.053,21.682-9.139,32.954-11.882c12.729-3.079,27.385-3.514,40.288-1.075c11.512,2.212,26.602,14.614,20.337,27.234
		c-4.748,9.648-18.104,14.808-28.404,14.516c-15.286-0.368-29.79-2.017-44.079-7.545"/>
	<path id="four_29_" fill="none" stroke="#000000" stroke-width="18.9223" stroke-linecap="round" stroke-miterlimit="10" d="
		M206.312,392.863c62.229-3.298,54.187,71.689-10.385,40.761"/>
	<path id="two_94_" fill="none" stroke="#000000" stroke-width="18.9223" stroke-linecap="round" stroke-miterlimit="10" d="
		M51.618,368.621h92.409h0.021c14.89,0,26.945,7.578,26.945,16.913v13.421c0,11.35-9.929,20.564-22.177,20.564h-41.39
		c-6.157,0-12.401,1.552-16.37,5.28c-5.55,5.236-5.593,14.743-0.087,19.784c6.441,5.875,17.867,7.741,26.952,4.607"/>
</g>
</svg>
