<?xml-stylesheet type="text/css" href="working demo/../../../style.css"?>
<!-- Generator: Adobe Illustrator 16.0.0, SVG Export Plug-In . SVG Version: 6.00 Build 0)  -->
<!DOCTYPE svg PUBLIC "-//W3C//DTD SVG 1.1//EN" "http://www.w3.org/Graphics/SVG/1.1/DTD/svg11.dtd">
<svg version="1.1" id="Layer_1" xmlns="http://www.w3.org/2000/svg" xmlns:xlink="http://www.w3.org/1999/xlink" x="0px" y="0px"
	 width="288px" height="288px" viewBox="0 0 288 288" enable-background="new 0 0 288 288" xml:space="preserve">
	 <rect x="0" y="0" width="100%" height="100%" fill-opacity="0"/>

<g id="_x33__684_" class="roman">

		<line id="one_482_" fill="none" stroke="#000000" stroke-width="20.6596" stroke-linecap="round" stroke-miterlimit="10" x1="96.41" y1="243.775" x2="96.41" y2="51.493"/>

		<line id="three_868_" fill="none" stroke="#000000" stroke-width="20.6596" stroke-linecap="round" stroke-miterlimit="10" x1="190.924" y1="243.775" x2="190.924" y2="51.493"/>

		<line id="three_867_" fill="none" stroke="#000000" stroke-width="20.6596" stroke-linecap="round" stroke-miterlimit="10" x1="143.657" y1="243.775" x2="143.657" y2="51.493"/>
</g>
<g id="_x33__7_" class="birdbug">
	<path id="two_1_" fill="none" stroke="#000000" stroke-width="20.2083" stroke-linecap="round" stroke-miterlimit="10" d="
		M120.212,118.989c-26.62-6.119-72.397-2.867-77.409,24.617c-3.789,20.708,23.49,37,47.986,30.901
		c26.293-6.557,40.019-23.961,60.29-37.326c18.806-12.435,42.624-23.04,67.735-20.02c23.312,2.758,33.359,20.479,23.75,37.052
		c-12.039,21.061-48.072,23.784-70.533,11.854"/>

		<line id="one_1_" fill="none" stroke="#000000" stroke-width="20.2083" stroke-linecap="round" stroke-miterlimit="10" x1="42.43" y1="76.936" x2="246.176" y2="76.936"/>

		<line id="three_1_" fill="none" stroke="#000000" stroke-width="20.2083" stroke-linecap="round" stroke-miterlimit="10" x1="42.43" y1="212.062" x2="246.176" y2="212.062"/>
</g>
</svg>
