<?xml-stylesheet type="text/css" href="working demo/../../../style.css"?>
<!-- Generator: Adobe Illustrator 16.0.0, SVG Export Plug-In . SVG Version: 6.00 Build 0)  -->
<!DOCTYPE svg PUBLIC "-//W3C//DTD SVG 1.1//EN" "http://www.w3.org/Graphics/SVG/1.1/DTD/svg11.dtd">
<svg version="1.1" id="Layer_1" xmlns="http://www.w3.org/2000/svg" xmlns:xlink="http://www.w3.org/1999/xlink" x="0px" y="0px"
	 width="288px" height="288px" viewBox="0 0 288 288" enable-background="new 0 0 288 288" xml:space="preserve">
	 <rect x="0" y="0" width="100%" height="100%" fill-opacity="0"/>

<g id="_x33__678_" class="roman">

		<line id="one_476_" fill="none" stroke="#000000" stroke-width="21.1744" stroke-linecap="round" stroke-miterlimit="10" x1="228.354" y1="242.908" x2="228.354" y2="45.822"/>

		<line id="three_859_" fill="none" stroke="#000000" stroke-width="21.1744" stroke-linecap="round" stroke-miterlimit="10" x1="122.721" y1="242.908" x2="57.37" y2="45.822"/>

		<line id="three_858_" fill="none" stroke="#000000" stroke-width="21.1744" stroke-linecap="round" stroke-miterlimit="10" x1="122.721" y1="243.08" x2="188.073" y2="46.006"/>
</g>
<g id="_x36__7_" class="birdbug">
	<path id="one_1_" fill="none" stroke="#000000" stroke-width="20.5743" stroke-linecap="round" stroke-miterlimit="10" d="
		M157.716,42.947c22.911,2.723,34.626,21.366,23.388,36.474c-10.482,14.06-28.574,14.386-44.527,13.931
		c-24.964-0.724-50.557,1.795-72.019,15.778c-8.797,5.749-17.962,16.071-18.243,27.051c-0.583,22.762,29.374,31.838,47.551,27.311
		c25.874-6.441,39.382-23.604,59.355-36.734c18.502-12.222,41.932-22.685,66.68-19.711c22.912,2.745,32.77,20.176,23.367,36.474
		c-11.865,20.727-47.314,23.397-69.428,11.672"/>

		<path id="three_1_" fill="none" stroke="#000000" stroke-width="20.5743" stroke-linecap="round" stroke-linejoin="round" stroke-miterlimit="10" d="
		M187.068,188.357c-16.536,0-29.916,12.697-29.916,28.357c0,15.646,13.38,28.336,29.916,28.336h2.766
		c17.141,0,31.061-12.213,31.061-27.31v-1.026c0,12.579,11.606,22.805,25.896,22.805"/>

		<path id="two_1_" fill="none" stroke="#000000" stroke-width="20.5743" stroke-linecap="round" stroke-linejoin="round" stroke-miterlimit="10" d="
		M100.154,188.357c16.514,0,29.936,12.697,29.936,28.357c0,15.646-13.422,28.336-29.936,28.336h-2.767
		c-17.161,0-31.082-12.213-31.082-27.31v-1.026c0,12.579-11.564,22.805-25.872,22.805"/>
</g>
</svg>
