<?xml-stylesheet type="text/css" href="working demo/../../../style.css"?>
<!-- Generator: Adobe Illustrator 16.0.0, SVG Export Plug-In . SVG Version: 6.00 Build 0)  -->
<!DOCTYPE svg PUBLIC "-//W3C//DTD SVG 1.1//EN" "http://www.w3.org/Graphics/SVG/1.1/DTD/svg11.dtd">
<svg version="1.1" id="Layer_1" xmlns="http://www.w3.org/2000/svg" xmlns:xlink="http://www.w3.org/1999/xlink" x="0px" y="0px"
	 width="288px" height="288px" viewBox="0 0 288 288" enable-background="new 0 0 288 288" xml:space="preserve">
	 <rect x="0" y="0" width="100%" height="100%" fill-opacity="0"/>

<g id="_x33__676_" class="roman">

		<line id="one_473_" fill="none" stroke="#000000" stroke-width="21.1051" stroke-linecap="round" stroke-miterlimit="10" x1="188.078" y1="244.221" x2="188.078" y2="47.78"/>

		<line id="one_472_" fill="none" stroke="#000000" stroke-width="21.1051" stroke-linecap="round" stroke-miterlimit="10" x1="228.844" y1="244.221" x2="228.844" y2="47.78"/>

		<line id="one_471_" fill="none" stroke="#000000" stroke-width="21.1051" stroke-linecap="round" stroke-miterlimit="10" x1="269.678" y1="244.221" x2="269.678" y2="47.78"/>

		<line id="three_855_" fill="none" stroke="#000000" stroke-width="21.1051" stroke-linecap="round" stroke-miterlimit="10" x1="82.792" y1="244.221" x2="17.656" y2="47.78"/>

		<line id="three_854_" fill="none" stroke="#000000" stroke-width="21.1051" stroke-linecap="round" stroke-miterlimit="10" x1="82.792" y1="244.393" x2="147.932" y2="47.963"/>
</g>
<g id="_x38__7_" class="birdbug">

		<path id="six_1_" fill="none" stroke="#000000" stroke-width="18.533" stroke-linecap="round" stroke-linejoin="round" stroke-miterlimit="10" d="
		M186.792,178.721c-16.31,0-29.519,12.52-29.519,27.967c0,15.418,13.209,27.946,29.519,27.946h2.72
		c16.903,0,30.603-12.071,30.603-26.959v-0.987c0,12.414,11.425,22.469,25.546,22.469"/>
	<path id="four_1_" fill="none" stroke="#000000" stroke-width="18.533" stroke-linecap="round" stroke-miterlimit="10" d="
		M202.952,84.366c24.294,0,44.022,21.726,44.022,48.536c0,26.812-19.729,48.515-44.022,48.515c-10.724,0-19.39-7.308-19.39-16.3
		c0-10.321,7.582-18.698,16.926-18.698"/>
	<path id="two_1_" fill="none" stroke="#000000" stroke-width="18.533" stroke-linecap="round" stroke-miterlimit="10" d="
		M243.449,57.016c0,0-86.176-12.401-86.176,45.095c0,10.119,6.371,21.587,17.711,24.019c11.955,2.56,25.037-6.425,25.377-17.871"/>

		<path id="five_1_" fill="none" stroke="#000000" stroke-width="18.533" stroke-linecap="round" stroke-linejoin="round" stroke-miterlimit="10" d="
		M101.083,178.721c16.309,0,29.54,12.52,29.54,27.967c0,15.418-13.23,27.946-29.54,27.946h-2.718
		c-16.925,0-30.602-12.071-30.602-26.959v-0.987c0,12.414-11.446,22.469-25.546,22.469"/>
	<path id="three_1_" fill="none" stroke="#000000" stroke-width="18.533" stroke-linecap="round" stroke-miterlimit="10" d="
		M84.944,84.366c-24.316,0-44.043,21.726-44.043,48.536c0,26.812,19.728,48.515,44.043,48.515c10.703,0,19.388-7.308,19.388-16.3
		c0-10.321-7.603-18.698-16.925-18.698"/>
	<path id="one_1_" fill="none" stroke="#000000" stroke-width="18.533" stroke-linecap="round" stroke-miterlimit="10" d="
		M44.404,57.016c0,0,86.219-12.401,86.219,45.095c0,10.119-6.393,21.587-17.733,24.019c-11.956,2.56-25.038-6.425-25.376-17.871"/>
</g>
</svg>
