<?xml-stylesheet type="text/css" href="working demo/../../../style.css"?>
<!-- Generator: Adobe Illustrator 16.0.0, SVG Export Plug-In . SVG Version: 6.00 Build 0)  -->
<!DOCTYPE svg PUBLIC "-//W3C//DTD SVG 1.1//EN" "http://www.w3.org/Graphics/SVG/1.1/DTD/svg11.dtd">
<svg version="1.1" id="Layer_1" xmlns="http://www.w3.org/2000/svg" xmlns:xlink="http://www.w3.org/1999/xlink" x="0px" y="0px"
	 width="288px" height="288px" viewBox="0 0 288 288" enable-background="new 0 0 288 288" xml:space="preserve">
	 <rect x="0" y="0" width="100%" height="100%" fill-opacity="0"/>

<g class="roman">
	<g id="_x33__649_">

			<line id="three_825_" fill="none" stroke="#000000" stroke-width="20.8676" stroke-linecap="round" stroke-miterlimit="10" x1="100.951" y1="245.984" x2="229.781" y2="51.756"/>
	</g>
	<g id="_x33__648_">

			<line id="three_824_" fill="none" stroke="#000000" stroke-width="20.8676" stroke-linecap="round" stroke-miterlimit="10" x1="229.781" y1="245.984" x2="100.929" y2="51.756"/>
	</g>
</g>
<line class="roman" id="one_464_" fill="none" stroke="#000000" stroke-width="20.8676" stroke-linecap="round" stroke-miterlimit="10" x1="59.627" y1="245.714" x2="59.627" y2="51.483"/>
<g id="_x39__7_" class="birdbug">
	<path id="two_1_" fill="none" stroke="#000000" stroke-width="19.9326" stroke-linecap="round" stroke-miterlimit="10" d="
		M76.184,241.199c5.259-44.627,11.252-89.316,22.421-133.164c6.017-23.816,17.098-50.208,44.712-60.207
		c8.397-3.029,25.125-4.967,33.675-1.505c31.64,12.823,22.484,52.189,10.842,73.735c-14.023,25.893-43.564,52.491-41.943,83.07
		c0.76,14.035,9.328,31.209,24.609,33.136c19.865,2.5,33.521-24.176,19.455-38.738c-3.506-3.658-5.907-6.213-10.821-7.662"/>
	<path id="three_1_" fill="none" stroke="#000000" stroke-width="18.8872" stroke-linecap="round" stroke-miterlimit="10" d="
		M190.453,191.964c0-8.407,0.779-17.909,6.602-24.51c6.883-7.835,20.191-7.034,26.034,1.711
		c13.505,20.181-12.466,63.485,22.875,68.116"/>
	<path id="one_1_" fill="none" stroke="#000000" stroke-width="18.4746" stroke-linecap="round" stroke-miterlimit="10" d="
		M42.142,241.199c4.999-42.7,10.712-85.465,21.338-127.418c5.756-22.776,16.296-48.044,42.569-57.577
		c8.007-2.923,23.936-4.771,32.074-1.449c30.146,12.271,36.941,48.629,16.641,55.705c-9.804,3.431-25.32-5.29-16.708-22.983"/>
	<path id="four_1_" fill="none" stroke="#000000" stroke-width="18.8872" stroke-linecap="round" stroke-miterlimit="10" d="
		M128.319,134.623c-10.627,43.837-10.908,61.949-15.907,106.576"/>
</g>
</svg>
